<?xml version="1.0" encoding="utf-8"?>
<!-- Generator: Adobe Illustrator 28.3.0, SVG Export Plug-In . SVG Version: 6.00 Build 0)  -->
<svg version="1.1" id="Ebene_1" xmlns="http://www.w3.org/2000/svg" xmlns:xlink="http://www.w3.org/1999/xlink" x="0px" y="0px"
	 viewBox="0 0 74 74" style="enable-background:new 0 0 74 74;" xml:space="preserve">
<style type="text/css">
	.st0{clip-path:url(#SVGID_00000104701568320833099610000009139503347297020861_);}
	.st1{fill:url(#SVGID_00000036956507285685059160000004976872330235932330_);}
	.st2{fill:url(#SVGID_00000154424344063608349360000016309929623598488733_);}
	.st3{fill:url(#SVGID_00000173128796197979042610000013048704477635220660_);}
	.st4{fill:url(#SVGID_00000090267134239857662370000004411503281500379828_);}
</style>
<g>
	<defs>
		<rect id="SVGID_1_" x="4" width="66" height="74"/>
	</defs>
	<clipPath id="SVGID_00000034066580610487405040000010529880494177668006_">
		<use xlink:href="#SVGID_1_"  style="overflow:visible;"/>
	</clipPath>
	<g style="clip-path:url(#SVGID_00000034066580610487405040000010529880494177668006_);">
		
			<linearGradient id="SVGID_00000177461545010310940380000013233305169837097130_" gradientUnits="userSpaceOnUse" x1="19.6212" y1="75.999" x2="19.6212" y2="35.6377" gradientTransform="matrix(1 0 0 -1 0 76)">
			<stop  offset="0" style="stop-color:#F0D6BF"/>
			<stop  offset="1" style="stop-color:#F2B39F"/>
		</linearGradient>
		<path style="fill:url(#SVGID_00000177461545010310940380000013233305169837097130_);" d="M4,15.4c0-4.2,0-8.4,0-12.6
			c0-1.3,0.6-2.2,1.8-2.6C6.1,0.1,6.3,0,6.5,0c7.3,0,14.6,0,21.9,0c1.4,0,2.7,0,4.1,0c1.5,0,2.7,0.9,2.6,2.6c-0.1,2.2,0,4.4,0,6.7
			c0,1.3-0.6,1.6-1.7,1.3c-0.5-0.1-1-0.3-1.5-0.4c-1.6-0.5-3-0.2-4.4,0.7c-1.8,1.1-2.4,2.9-2.3,4.9c0.2,2.2,1.5,3.7,3.6,4.6
			c1.2,0.5,2.4,0.4,3.6,0c0.2-0.1,0.4-0.1,0.6-0.2c1.6-0.5,2.1,0.1,2.2,1.6c0.1,1.7,0,3.4,0,5.2c0,0.4,0,0.8,0,1.2
			c0,1.4-0.8,2.4-2.4,2.4c-2.5,0-5,0-7.5,0c-1.1,0-1.6,0.8-1.3,1.8c0.2,0.7,0.6,1.5,0.7,2.3c0.4,2.1-1,4.3-2.8,5.2
			c-3.1,1.6-6.5-0.1-7.5-3.1c-0.5-1.4-0.2-2.9,0.5-4.2c0.5-1-0.2-2-1.3-1.9c-2.3,0.1-4.6,0-6.8,0c-1.7,0-2.8-1.1-2.8-2.8
			C4,23.6,4,19.5,4,15.4z"/>
		
			<linearGradient id="SVGID_00000137814314303468457350000012844465880596380803_" gradientUnits="userSpaceOnUse" x1="54.4781" y1="60.292" x2="54.4781" y2="20.1689" gradientTransform="matrix(1 0 0 -1 0 76)">
			<stop  offset="0" style="stop-color:#F0D6BF"/>
			<stop  offset="1" style="stop-color:#F2B39F"/>
		</linearGradient>
		<path style="fill:url(#SVGID_00000137814314303468457350000012844465880596380803_);" d="M69.9,46.1c-0.4,0-0.7,0-1,0
			c-2.8,0-5.7,0-8.5,0c-1.2,0-1.8,0.8-1.4,2c0.2,0.9,0.5,1.7,0.6,2.6c0.1,1.4-0.5,2.5-1.4,3.5c-0.8,0.9-1.7,1.5-3,1.6
			c-1.4,0.1-2.6-0.4-3.7-1.3c-1.1-0.9-1.6-2.1-1.8-3.4c-0.2-1,0.1-1.9,0.5-2.7c0.1-0.3,0.2-0.7,0.2-1c-0.1-0.8-0.6-1.3-1.5-1.3
			c-3,0-6,0-9.1,0c-0.2,0-0.4,0-0.6,0c0-0.2,0-0.3,0-0.5c0-2.9,0-5.8,0-8.8c0-1,0.5-1.4,1.6-1.2c0.5,0.1,1,0.3,1.4,0.5
			c3,1,6.1-0.5,7-3.3c1.1-3.6-1.7-7.1-5-6.9c-1,0-1.9,0.4-2.9,0.6c-1.4,0.3-2-0.1-2-1.5c0-2.3,0-4.5,0-6.8c0-1.5,1-2.5,2.4-2.5
			c8.6,0,17.1,0,25.7,0c1.6,0,2.6,1.2,2.6,2.7c0,9.2,0,18.3,0,27.5L69.9,46.1L69.9,46.1z"/>
		
			<linearGradient id="SVGID_00000072253849534756201110000015294434906763427489_" gradientUnits="userSpaceOnUse" x1="49.7713" y1="28.2988" x2="49.7713" y2="2.0004" gradientTransform="matrix(1 0 0 -1 0 76)">
			<stop  offset="0" style="stop-color:#F0D6BF"/>
			<stop  offset="1" style="stop-color:#F2B39F"/>
		</linearGradient>
		<path style="fill:url(#SVGID_00000072253849534756201110000015294434906763427489_);" d="M39.1,74c0-2.8-0.1-5.5,0-8.2
			c0-1.2-1-1.9-2-1.4c-1.4,0.7-2.9,0.8-4.4,0.2c-1.9-0.7-3.3-2.8-3.2-4.6c0.2-2.6,3.1-5.5,6.5-4.5c0.4,0.1,0.8,0.2,1.3,0.3
			c1.1,0.3,1.8-0.3,1.7-1.4c0-2.1,0-4.1,0-6.2c0-0.4,0.1-0.6,0.6-0.6c2.8,0,5.6,0,8.4,0c0.5,0,0.6,0.1,0.5,0.6
			c-0.7,2.2-0.6,4.4,0.8,6.3c1.2,1.6,2.9,2.7,5,2.8c1.2,0.1,2.3,0,3.4-0.6c1.1-0.6,1.9-1.5,2.5-2.6c1-1.8,1.2-3.7,0.6-5.7
			c-0.2-0.7-0.2-0.8,0.6-0.8c2.9,0,5.7,0,8.7,0c0,0.2,0,0.4,0,0.6c0,7.6,0,15.2,0,22.8c0,1.7-1.2,2.9-2.9,2.9c-4.9,0-9.8,0-14.8,0
			c-4.2,0-8.4,0-12.6,0C39.6,74,39.4,74,39.1,74L39.1,74z"/>
		
			<linearGradient id="SVGID_00000108270279063861340420000013970249226106817207_" gradientUnits="userSpaceOnUse" x1="22.4638" y1="32.6289" x2="22.4638" y2="2.0012" gradientTransform="matrix(1 0 0 -1 0 76)">
			<stop  offset="0" style="stop-color:#F0D6BF"/>
			<stop  offset="1" style="stop-color:#F2B39F"/>
		</linearGradient>
		<path style="fill:url(#SVGID_00000108270279063861340420000013970249226106817207_);" d="M37.6,74h-0.5c-8.9,0-17.8,0-26.7,0
			c-1.4,0-2.5-0.8-2.8-2c-0.1-0.2-0.1-0.5-0.1-0.7c0-8.6,0-17.1,0-25.7c0-1.4,0.8-2.2,2.2-2.2c2.5,0.1,5.1,0,7.6,0
			c1.2,0,1.7,0.7,1.4,1.9c-0.2,0.8-0.6,1.6-0.6,2.4c-0.3,2.9,2,5.3,4.7,5.7c3.1,0.5,6.3-2.2,5.9-5.8c-0.1-0.8-0.5-1.6-0.7-2.4
			c-0.3-1.1,0.3-1.8,1.4-1.8c2.5,0.1,5,0,7.5,0c0.3,0,0.5,0,0.8,0v10.8c-0.7-0.1-1.4-0.2-2.1-0.3c-1.9-0.3-3.6,0.3-5,1.6
			c-1.3,1.1-2.1,2.5-2.3,4.2c-0.2,2.3,0.7,4.1,2.4,5.5c1.8,1.4,3.9,1.6,6.2,1.1c0.9-0.2,0.9-0.2,0.9,0.7
			C37.6,69.3,37.6,71.6,37.6,74L37.6,74z"/>
	</g>
</g>
</svg>
