<svg width="74" height="74" viewBox="0 0 74 74" fill="none" xmlns="http://www.w3.org/2000/svg">
<path d="M55.2398 18.4061C58.1837 21.429 60.3294 25.1367 61.4836 29.1953H69.375V43.0703H61.4836C60.3305 47.1315 58.1848 50.8418 55.2398 53.8668L59.1928 60.7103L47.1895 67.6406L43.2438 60.7971C39.1524 61.828 34.8693 61.828 30.7779 60.7971L26.8105 67.6406L14.8145 60.7031L18.7674 53.8596C15.8209 50.8375 13.6727 47.1296 12.5164 43.0703H4.625V29.1953H12.5164C13.6706 25.1367 15.8163 21.429 18.7602 18.4061L14.8 11.5625L26.8105 4.625H26.825L30.7779 11.4613C34.867 10.4316 39.1475 10.4316 43.2365 11.4613L47.175 4.625H47.1822L59.2 11.5625L55.2398 18.4061ZM50.875 36.1328C50.875 32.4529 49.4132 28.9238 46.8111 26.3217C44.209 23.7196 40.6799 22.2578 37 22.2578C33.3201 22.2578 29.791 23.7196 27.1889 26.3217C24.5868 28.9238 23.125 32.4529 23.125 36.1328C23.125 39.8127 24.5868 43.3419 27.1889 45.9439C29.791 48.546 33.3201 50.0078 37 50.0078C40.6799 50.0078 44.209 48.546 46.8111 45.9439C49.4132 43.3419 50.875 39.8127 50.875 36.1328Z" fill="#F88D7F"/>
</svg>
