<svg width="74" height="74" viewBox="0 0 74 74" fill="none" xmlns="http://www.w3.org/2000/svg">
<g clip-path="url(#clip0_65_427)">
<path d="M38.85 25.9C38.1717 25.9 37.6475 25.5917 37.2775 24.975C36.9075 24.3583 36.9075 23.7417 37.2775 23.125L48.1 4.3475C48.5933 3.54583 49.21 3.06853 49.95 2.9156C50.69 2.76267 51.4917 2.9008 52.355 3.33C56.61 5.24167 60.3717 7.90813 63.64 11.3294C66.9083 14.7507 69.4367 18.6209 71.225 22.94C71.5333 23.7417 71.4865 24.436 71.0844 25.0231C70.6823 25.6102 70.0509 25.9025 69.19 25.9H38.85ZM25.6225 30.4325L14.5225 11.1925C14.0292 10.3908 13.9058 9.58917 14.1525 8.7875C14.3992 7.98583 14.8925 7.33833 15.6325 6.845C18.5925 4.74833 21.8769 3.08333 25.4856 1.85C29.0943 0.616667 32.9325 0 37 0C37.925 0 38.9425 0.0468671 40.0525 0.1406C41.1625 0.234334 42.0875 0.341633 42.8275 0.4625C43.6908 0.585833 44.2619 0.955833 44.5406 1.5725C44.8193 2.18917 44.7416 2.8675 44.3075 3.6075L28.86 30.4325C28.49 31.0492 27.951 31.3575 27.2431 31.3575C26.5352 31.3575 25.995 31.0492 25.6225 30.4325ZM3.145 44.4C2.46667 44.4 1.85 44.1694 1.295 43.7081C0.74 43.2468 0.400834 42.6758 0.2775 41.995C0.154167 41.3142 0.0777 40.5742 0.0481 39.775C0.0185 38.9758 0.00246667 38.0508 0 37C0 33.115 0.6327 29.246 1.8981 25.3931C3.1635 21.5402 5.1208 17.8858 7.77 14.43C8.44833 13.5667 9.2352 13.135 10.1306 13.135C11.026 13.135 11.7191 13.5975 12.21 14.5225L27.75 41.625C28.12 42.2417 28.1052 42.8583 27.7056 43.475C27.306 44.0917 26.7658 44.4 26.085 44.4H3.145ZM21.645 70.67C17.575 68.6967 13.8442 66.0142 10.4525 62.6225C7.06083 59.2308 4.50167 55.3767 2.775 51.06C2.46667 50.2583 2.52833 49.5652 2.96 48.9806C3.39167 48.396 4.03917 48.1025 4.9025 48.1H35.0575C35.7358 48.1 36.26 48.4083 36.63 49.025C37 49.6417 37 50.2583 36.63 50.875L25.9925 69.4675C25.4992 70.2692 24.8825 70.7933 24.1425 71.04C23.4025 71.2867 22.57 71.1633 21.645 70.67ZM37 74C36.1367 74 35.1648 73.9531 34.0844 73.8594C33.004 73.7657 32.0642 73.6584 31.265 73.5375C30.4017 73.4142 29.8158 73.0442 29.5075 72.4275C29.1992 71.8108 29.2608 71.1325 29.6925 70.3925L44.955 43.7525C45.325 43.1358 45.9417 42.8275 46.805 42.8275C47.6683 42.8275 48.285 43.1358 48.655 43.7525L59.57 62.715C60.0017 63.3933 60.141 64.1333 59.9881 64.935C59.8352 65.7367 59.3258 66.4767 58.46 67.155C55.6233 69.2517 52.3094 70.9167 48.5181 72.15C44.7268 73.3833 40.8875 74 37 74ZM62.0675 59.6625L46.3425 32.375C45.9725 31.7583 45.9885 31.1417 46.3906 30.525C46.7927 29.9083 47.3316 29.6 48.0075 29.6H70.855C71.5333 29.6 72.15 29.8319 72.705 30.2956C73.26 30.7593 73.5992 31.3291 73.7225 32.005C73.8458 32.6809 73.9223 33.4209 73.9519 34.225C73.9815 35.0291 73.9975 35.9541 74 37C74 40.885 73.3673 44.786 72.1019 48.7031C70.8365 52.6202 68.8792 56.2733 66.23 59.6625C65.7367 60.3408 65.0275 60.696 64.1025 60.7281C63.1775 60.7602 62.4992 60.405 62.0675 59.6625Z" fill="url(#paint0_linear_65_427)"/>
</g>
<defs>
<linearGradient id="paint0_linear_65_427" x1="37" y1="0" x2="37" y2="74" gradientUnits="userSpaceOnUse">
<stop stop-color="#F0D6BF"/>
<stop offset="1" stop-color="#F2B39F"/>
</linearGradient>
<clipPath id="clip0_65_427">
<rect width="74" height="74" fill="white"/>
</clipPath>
</defs>
</svg>
