<svg width="71" height="16" viewBox="0 0 71 16" fill="none" xmlns="http://www.w3.org/2000/svg">
<g clip-path="url(#clip0_196_438)">
<path d="M35.42 3.99669C32.6476 3.99669 30.6487 5.79517 30.6487 8.49283C30.6487 11.1906 32.8988 12.9891 35.6713 12.9891C37.3463 12.9891 38.8228 12.3297 39.737 11.2181L37.8158 10.1141C37.3085 10.6661 36.5375 10.9883 35.6712 10.9883C34.4683 10.9883 33.4462 10.3639 33.067 9.36469H40.1035C40.1589 9.08483 40.1915 8.79504 40.1915 8.49035C40.1915 5.79517 38.1926 3.99669 35.42 3.99669ZM33.0446 7.61862C33.3584 6.62193 34.2174 5.9949 35.4177 5.9949C36.6206 5.9949 37.4795 6.62193 37.7908 7.61862H33.0446ZM62.4614 3.99655C59.689 3.99655 57.69 5.79517 57.69 8.49283C57.69 11.1906 59.94 12.9891 62.7125 12.9891C64.3875 12.9891 65.864 12.3297 66.7783 11.2181L64.857 10.1141C64.3498 10.6661 63.5789 10.9883 62.7125 10.9883C61.5096 10.9883 60.4874 10.3639 60.1083 9.36469H67.1445C67.1998 9.08483 67.2324 8.79504 67.2324 8.49035C67.2324 5.79517 65.2335 3.99655 62.4611 3.99655M60.0879 7.61862C60.4019 6.62193 61.2607 5.9949 62.4611 5.9949C63.6639 5.9949 64.5228 6.62193 64.8341 7.61862H60.0879ZM50.2865 8.49283C50.2865 9.99159 51.271 10.9908 52.7978 10.9908C53.8324 10.9908 54.6083 10.5237 55.0077 9.76179L56.9363 10.8684C56.1377 12.1923 54.6411 12.9891 52.7978 12.9891C50.0229 12.9891 48.0265 11.1905 48.0265 8.49283C48.0265 5.79517 50.0254 3.99669 52.7978 3.99669C54.6411 3.99669 56.1352 4.79352 56.9363 6.11738L55.0077 7.224C54.6083 6.46207 53.8324 5.99504 52.7978 5.99504C51.2735 5.99504 50.2865 6.99393 50.2865 8.49283ZM70.9994 1.24897V12.7393H68.7393V1.24897H70.9994ZM9.28057 0L18.5595 15.9866H0.00146484L9.28057 0ZM32.4794 1.24897L25.5208 13.2389L18.562 1.24897H21.1713L25.5208 8.74276L29.8703 1.24897H32.4794ZM47.2732 4.24648V6.6669C47.0221 6.59448 46.756 6.54455 46.4696 6.54455C45.0106 6.54455 43.9584 7.54372 43.9584 9.04248V12.7393H41.6982V4.24648H43.9584V6.54441C43.9584 5.27545 45.4425 4.24648 47.2732 4.24648Z" fill="#F0D6BF"/>
</g>
<defs>
<clipPath id="clip0_196_438">
<rect width="71" height="16" fill="white"/>
</clipPath>
</defs>
</svg>
