<svg width="74" height="74" viewBox="0 0 74 74" fill="none" xmlns="http://www.w3.org/2000/svg">
<path d="M37 61.8594C29.4338 61.8594 20.9007 60.1814 14.1742 57.3789C11.707 56.3397 9.59398 54.6588 7.86684 53.332C7.78116 53.2665 7.67886 53.2263 7.57151 53.2158C7.46415 53.2054 7.35602 53.2252 7.25934 53.273C7.16266 53.3208 7.08128 53.3948 7.0244 53.4864C6.96753 53.578 6.93743 53.6838 6.9375 53.7916V55.6098C6.9375 59.6668 10.3325 63.3018 16.4968 65.8455C22.0107 68.1219 29.2921 69.375 37 69.375C44.7079 69.375 51.9879 68.1219 57.5032 65.8455C63.6675 63.3047 67.0625 59.6668 67.0625 55.6098V53.7916C67.0626 53.6838 67.0325 53.578 66.9756 53.4864C66.9187 53.3948 66.8373 53.3208 66.7407 53.273C66.644 53.2252 66.5358 53.2054 66.4285 53.2158C66.3211 53.2263 66.2188 53.2665 66.1332 53.332C64.406 54.6574 62.293 56.3397 59.8244 57.3789C53.0979 60.1814 44.5662 61.8594 37 61.8594ZM67.0625 18.2846C66.9454 14.2884 63.5677 10.7112 57.5234 8.18914C51.9937 5.89109 44.7093 4.625 37 4.625C29.2907 4.625 22.0063 5.89109 16.4896 8.18914C10.4511 10.7054 7.07336 14.2754 6.95051 18.2615L6.9375 20.8125C6.9375 21.7389 7.68906 23.1944 9.05199 24.3868C10.6606 25.793 13.0483 27.1805 15.9577 28.3946C22.148 30.9817 30.0148 32.5195 37 32.5195C43.9852 32.5195 51.852 30.9759 58.0423 28.3888C60.9517 27.1748 63.3394 25.7873 64.948 24.381C66.3109 23.1958 67.0625 21.7404 67.0625 20.8125V18.2846Z" fill="#F88D7F"/>
<path d="M59.8244 32.6639C53.0994 35.4721 44.5662 37.1443 37 37.1443C29.4338 37.1443 20.9007 35.4721 14.1742 32.6639C11.7071 31.6305 9.59402 29.9481 7.86687 28.617C7.7808 28.5511 7.67797 28.5108 7.57009 28.5006C7.46222 28.4904 7.35365 28.5107 7.25676 28.5592C7.15987 28.6078 7.07857 28.6825 7.02213 28.775C6.96568 28.8675 6.93637 28.974 6.93753 29.0824V33.531C6.93753 34.4575 7.6891 35.6239 9.05203 36.8162C10.6607 38.224 13.0483 39.61 15.9577 40.8255C22.148 43.4083 30.0148 44.949 37 44.949C43.9852 44.949 51.8521 43.4054 58.0423 40.8198C60.9518 39.6042 63.3394 38.2182 64.948 36.8105C66.311 35.6224 67.0625 34.4575 67.0625 33.531V29.0824C67.0626 28.9745 67.0325 28.8688 66.9756 28.7771C66.9188 28.6855 66.8374 28.6116 66.7407 28.5638C66.644 28.5159 66.5359 28.4961 66.4285 28.5066C66.3212 28.517 66.2189 28.5572 66.1332 28.6228C64.4061 29.9481 62.293 31.6305 59.8244 32.6639Z" fill="#F88D7F"/>
<path d="M59.8244 45.0935C53.0979 47.8989 44.5662 49.574 37 49.574C29.4338 49.574 20.9007 47.8989 14.1742 45.0935C11.707 44.0572 9.59399 42.3749 7.86685 41.0466C7.78097 40.981 7.67841 40.9407 7.5708 40.9304C7.46318 40.9201 7.35483 40.9401 7.25805 40.9883C7.16126 41.0365 7.07992 41.1108 7.02326 41.2029C6.9666 41.2949 6.93689 41.401 6.93751 41.5092V45.8162C6.93751 46.7426 7.68907 47.9075 9.05056 49.0985C10.6592 50.5062 13.0483 51.8923 15.9577 53.1078C22.148 55.6906 30.0134 57.2341 37 57.2341C43.9866 57.2341 51.852 55.6906 58.0423 53.1049C60.9517 51.8894 63.3394 50.5033 64.948 49.0956C66.3109 47.9032 67.0625 46.7368 67.0625 45.8162V41.5092C67.0626 41.4013 67.0325 41.2956 66.9756 41.2039C66.9187 41.1123 66.8374 41.0384 66.7407 40.9905C66.644 40.9427 66.5359 40.9229 66.4285 40.9333C66.3211 40.9438 66.2188 40.984 66.1332 41.0495C64.406 42.3749 62.293 44.0572 59.8244 45.0935Z" fill="#F88D7F"/>
</svg>
