<?xml version="1.0" encoding="utf-8"?>
<!-- Generator: Adobe Illustrator 28.3.0, SVG Export Plug-In . SVG Version: 6.00 Build 0)  -->
<svg version="1.1" id="Ebene_1" xmlns="http://www.w3.org/2000/svg" xmlns:xlink="http://www.w3.org/1999/xlink" x="0px" y="0px"
	 viewBox="0 0 74 74" style="enable-background:new 0 0 74 74;" xml:space="preserve">
<style type="text/css">
	.st0{clip-path:url(#SVGID_00000116202003067281747660000012309649668391780999_);}
	.st1{fill:url(#SVGID_00000144336926031782181330000006265721426160968639_);}
	.st2{fill:url(#SVGID_00000056415079354811533580000012626039791836258196_);}
</style>
<g>
	<defs>
		<rect id="SVGID_1_" x="3" width="68" height="74"/>
	</defs>
	<clipPath id="SVGID_00000005264438341512710930000012005352352195798663_">
		<use xlink:href="#SVGID_1_"  style="overflow:visible;"/>
	</clipPath>
	<g style="clip-path:url(#SVGID_00000005264438341512710930000012005352352195798663_);">
		
			<linearGradient id="SVGID_00000095298394328185008000000013617167670179904677_" gradientUnits="userSpaceOnUse" x1="37.001" y1="76" x2="37.001" y2="17.0158" gradientTransform="matrix(1 0 0 -1 0 76)">
			<stop  offset="0" style="stop-color:#F0D6BF"/>
			<stop  offset="1" style="stop-color:#F2B39F"/>
		</linearGradient>
		<path style="fill:url(#SVGID_00000095298394328185008000000013617167670179904677_);" d="M13.8,5.3c0-1.4,0-2.8,0-4.2
			c0-0.7,0.5-1.1,1.1-1.1c0.4,0,0.8,0,1.3,0c14.1,0,28.2,0,42.3,0c0.2,0,0.4,0,0.6,0c0.8,0,1.2,0.4,1.2,1.3c0,1.3,0,2.7,0,4.1
			c0.2,0,0.4,0,0.6,0c2.7,0,5.4,0,8.1,0c0.5,0,1.1,0.2,1.5,0.5C70.8,6.1,71,6.6,71,7c0,2.6,0.1,5.2-0.1,7.7c-0.2,3.6-0.9,7-2.7,10.2
			c-3,5.2-7.5,8.3-13.3,9.7c-0.3,0.1-0.7,0.2-1,0.2c-0.9-0.1-1.4,0.5-2,1.1c-2.9,3.3-6.4,5.9-10.5,7.6c-0.1,0-0.2,0.1-0.2,0.1
			c0.3,2.6,0.5,5.1,0.9,7.7c0.4,2.5,1,5,1.5,7.6c-0.1,0-0.3,0.1-0.5,0.1c-4,0-8,0-12,0c-0.6,0-0.6-0.4-0.5-0.7
			c0.3-1.8,0.7-3.5,1.1-5.3c0.1-0.7,0.2-1.4,0.3-2.1c0.2-1.2,0.3-2.4,0.5-3.6c0.1-1.1,0.3-2.3,0.4-3.4c0-0.1-0.1-0.2-0.2-0.3
			c-4.4-1.9-8-4.8-11.1-8.5c-0.2-0.2-0.5-0.3-0.7-0.4c-7.8-0.8-14.2-6-16.6-13.5C3.4,18.9,3,16.5,3,14.1c0-2.3,0-4.5,0-6.8
			C3,6,3.6,5.4,4.9,5.3c2.7,0,5.4,0,8.1,0C13.3,5.3,13.5,5.3,13.8,5.3z M37,8.2c-0.6,0-1,0.4-1.2,0.9c-0.7,1.7-1.5,3.5-2.3,5.2
			c-0.1,0.3-0.3,0.4-0.6,0.5c-2,0.2-4,0.5-6,0.8c-0.2,0-0.3,0.1-0.5,0.2c-0.7,0.5-0.8,1.3-0.2,2c1.4,1.4,2.9,2.9,4.3,4.3
			c0.3,0.3,0.4,0.5,0.3,0.8c-0.4,1.8-0.8,3.6-1.3,5.5c-0.1,0.5,0,0.9,0.4,1.3c0.4,0.3,0.8,0.3,1.3,0.2c0.2-0.1,0.3-0.1,0.5-0.2
			c1.6-0.8,3.2-1.7,4.8-2.5c0.3-0.2,0.6-0.2,0.9,0c1.6,0.9,3.3,1.8,5,2.7c0.5,0.3,1,0.4,1.5,0c0.5-0.4,0.6-0.9,0.4-1.4
			c-0.3-1.4-0.7-2.8-1-4.3c-0.4-1.5-0.3-1.5,0.8-2.6c1.2-1.2,2.4-2.4,3.6-3.6c0.4-0.4,0.5-0.8,0.3-1.3c-0.2-0.4-0.4-0.8-1-0.8
			c-2-0.2-4-0.5-6-0.7c-0.3,0-0.5-0.2-0.6-0.5c-0.7-1.8-1.5-3.5-2.3-5.2C37.9,8.6,37.5,8.3,37,8.2L37,8.2z M6.2,8.7
			c0,1.8,0,3.5,0,5.3c0,1.5,0.1,3,0.5,4.5c1.1,4.7,3.5,8.5,7.7,11c1.3,0.8,2.6,1.3,4.2,1.5c-4-7-5-14.5-4.8-22.3L6.2,8.7L6.2,8.7z
			 M55.4,31c1.2-0.1,3.3-1,4.8-1.9c3.9-2.5,6.1-6.2,7-10.6c0.7-3.2,0.5-6.5,0.5-9.7c0,0,0-0.1-0.1-0.1h-7.4
			c-0.1,1.8-0.1,3.5-0.2,5.3c0,1.1-0.1,2.2-0.2,3.2c-0.2,1.5-0.4,3-0.8,4.4c-0.5,1.8-1,3.6-1.7,5.4C56.8,28.4,56.1,29.6,55.4,31
			L55.4,31z"/>
		
			<linearGradient id="SVGID_00000011749264354974454480000013879510303430678200_" gradientUnits="userSpaceOnUse" x1="36.9682" y1="15.5684" x2="36.9682" y2="2.0038" gradientTransform="matrix(1 0 0 -1 0 76)">
			<stop  offset="0" style="stop-color:#F0D6BF"/>
			<stop  offset="1" style="stop-color:#F2B39F"/>
		</linearGradient>
		<path style="fill:url(#SVGID_00000011749264354974454480000013879510303430678200_);" d="M37,74c-5.2,0-10.5,0-15.7,0
			c-0.5,0-1.1,0-1.5-0.2c-0.8-0.3-1.2-0.9-1.1-1.8c0.4-2.4,0.8-4.8,1.2-7.2c0.1-0.7,0.3-1.4,0.4-2.1c0.1-1.3,1.2-2.1,2.4-2.3
			c0.3,0,0.6-0.1,0.9-0.1c8.8,0,17.6,0,26.4,0c0.9,0,1.7,0,2.5,0.5c0.6,0.4,0.9,0.9,1,1.6c0.3,1.5,0.6,3,0.8,4.5
			c0.2,1,0.3,2,0.4,2.9c0.1,0.6,0.3,1.2,0.4,1.8c0.3,1.3-0.5,2.2-1.8,2.2c-2.1,0.1-4.1,0-6.2,0C43.8,74,40.4,74,37,74L37,74L37,74z"
			/>
	</g>
</g>
</svg>
