<svg width="74" height="74" viewBox="0 0 74 74" fill="none" xmlns="http://www.w3.org/2000/svg">
<g clip-path="url(#clip0_392_1255)">
<path d="M7.4 4.93359C5.4374 4.93359 3.55518 5.71323 2.16741 7.101C0.779641 8.48877 0 10.371 0 12.3336L0 51.8003C0 53.7629 0.779641 55.6451 2.16741 57.0329C3.55518 58.4206 5.4374 59.2003 7.4 59.2003H66.6C68.5626 59.2003 70.4448 58.4206 71.8326 57.0329C73.2204 55.6451 74 53.7629 74 51.8003V12.3336C74 10.371 73.2204 8.48877 71.8326 7.101C70.4448 5.71323 68.5626 4.93359 66.6 4.93359H7.4ZM19.7333 74.0003H54.2667V69.0669H19.7333V74.0003Z" fill="#F88D7F"/>
</g>
<defs>
<clipPath id="clip0_392_1255">
<rect width="74" height="74" fill="white"/>
</clipPath>
</defs>
</svg>
