<?xml version="1.0" encoding="utf-8"?>
<!-- Generator: Adobe Illustrator 28.3.0, SVG Export Plug-In . SVG Version: 6.00 Build 0)  -->
<svg version="1.1" id="Ebene_1" xmlns="http://www.w3.org/2000/svg" xmlns:xlink="http://www.w3.org/1999/xlink" x="0px" y="0px"
	 viewBox="0 0 74 74" style="enable-background:new 0 0 74 74;" xml:space="preserve">
<style type="text/css">
	.st0{clip-path:url(#SVGID_00000158001202740444386350000009760910642892774824_);}
	.st1{fill:url(#SVGID_00000081630690082456130660000003415543652054361503_);}
</style>
<g>
	<defs>
		<rect id="SVGID_1_" x="6.5" width="61" height="74"/>
	</defs>
	<clipPath id="SVGID_00000149363878028687990470000006436159788470412954_">
		<use xlink:href="#SVGID_1_"  style="overflow:visible;"/>
	</clipPath>
	<g style="clip-path:url(#SVGID_00000149363878028687990470000006436159788470412954_);">
		
			<linearGradient id="SVGID_00000060709307902834515830000013154521066506129301_" gradientUnits="userSpaceOnUse" x1="37" y1="75.999" x2="37" y2="1.999" gradientTransform="matrix(1 0 0 -1 0 76)">
			<stop  offset="0" style="stop-color:#F0D6BF"/>
			<stop  offset="1" style="stop-color:#F2B39F"/>
		</linearGradient>
		<path style="fill:url(#SVGID_00000060709307902834515830000013154521066506129301_);" d="M67.5,17.4c0,1.9,0,3.9-0.1,5.8
			c-0.1,1.3-0.2,2.6-0.3,3.9c-0.1,2.1-0.3,4.2-0.7,6.4c-0.2,1.5-0.6,3-0.9,4.5c-0.5,2.4-1.2,4.7-2.1,7c-2.1,5.3-4.9,10.2-8.7,14.5
			c-4.1,4.7-8.7,8.6-13.8,12.2c-0.9,0.6-1.8,1.3-2.8,1.9c-0.9,0.6-1.7,0.6-2.6-0.1c-2.9-2-5.7-4-8.4-6.2c-0.8-0.6-1.5-1.3-2.2-2
			c-1-0.9-2-1.8-2.9-2.8c-5.3-5.3-9.2-11.5-11.8-18.4C9,40.7,8.2,37.3,7.6,33.7c-0.5-3.4-0.8-6.8-0.9-10.2
			c-0.2-3.9-0.1-7.9-0.2-11.8c0-1,0.7-1.6,1.6-1.6c0.7,0,1.3-0.1,1.9-0.2c0.9-0.2,1.8-0.3,2.7-0.5c4.8-0.9,9.5-2.2,13.9-4.2
			c3.2-1.4,6.3-3.1,9.2-4.9c0.8-0.5,1.5-0.4,2.3,0c3.3,2,6.6,3.9,10.2,5.3c2.6,1.1,5.3,1.9,8,2.6c2.3,0.6,4.6,1,7,1.4
			c0.8,0.1,1.6,0.3,2.5,0.3c1.2,0.1,1.7,0.7,1.7,1.8C67.5,13.7,67.5,15.6,67.5,17.4L67.5,17.4z M37,14.9c-1,0-2,0-3,0
			c-0.9,0-1.5,0.5-1.7,1.3c-0.2,0.6,0,1.1,0,1.6c0.1,1,0.1,2,0.1,2.9c0.1,1.4,0.2,2.7,0.3,4.1c0.1,1.1,0.1,2.1,0.2,3.2
			c0.1,2.2,0.3,4.4,0.4,6.7c0.1,2,0.2,4,0.4,6c0.1,0.9,0.8,1.6,1.7,1.6c1,0,2,0,3,0c0.8,0,1.6-0.6,1.7-1.4c0.1-0.4,0.1-0.7,0.1-1.1
			c0.1-2,0.3-4.1,0.4-6.1c0.1-2.3,0.3-4.6,0.4-7c0.1-1.4,0.2-2.8,0.3-4.2c0.1-1.9,0.3-3.9,0.3-5.8c0-1.2-0.7-1.9-1.9-1.9
			C38.9,14.9,37.9,14.9,37,14.9L37,14.9z M37,55.8c2.9,0,4.8-2,4.8-4.9c0-2.7-2.1-4.9-4.8-4.9c-3-0.1-4.9,2.5-4.9,4.5
			C32.1,53.7,34.1,55.8,37,55.8z"/>
	</g>
</g>
</svg>
