<svg width="130" height="81" viewBox="0 0 130 81" fill="none" xmlns="http://www.w3.org/2000/svg">
<g clip-path="url(#clip0_71_1259)">
<g filter="url(#filter0_d_71_1259)">
<mask id="path-1-inside-1_71_1259" fill="white">
<path d="M101.496 74.1754V61.5673C106.378 61.5673 111.145 61.6966 115.903 61.5306C120.662 61.3647 125.409 60.9054 130.161 60.5753C130.149 60.3587 130.135 60.1422 130.123 59.9256C129.597 59.9256 129.073 59.9274 128.548 59.9256C120.154 59.8924 111.758 59.833 103.365 59.8453C101.704 59.8488 100.941 59.3178 101.014 57.5573C101.114 55.1908 101.038 52.8156 101.038 50.1574C93.635 51.2507 86.6891 52.2777 79.7607 53.3011C79.6123 54.4084 79.4988 55.2589 79.3329 56.4885C72.6245 54.8293 66.0804 53.2103 60.2627 51.7694C60.7797 47.8922 61.2216 44.5895 61.6896 41.0791C63.1008 41.3148 64.4317 41.5366 65.9441 41.7899C65.5232 42.8902 65.2211 43.6831 64.9189 44.476C66.1852 41.369 68.6111 42.0606 71.0998 42.2492C77.3576 42.7225 83.631 43.0247 89.9045 43.2238C92.3548 43.3006 94.8209 42.9181 96.7909 42.7801C87.5938 41.9628 77.9688 41.1087 68.7543 40.2914C68.6041 36.8543 68.487 34.1873 68.363 31.365C81.9037 32.2522 95.7622 32.474 109.357 28.8098C109.092 28.5968 108.824 28.5077 108.582 28.5549C95.1562 31.1257 81.6627 30.9947 68.1552 29.463C66.8087 29.3111 65.3468 28.4885 64.3286 27.5506C62.9139 26.2495 61.8695 24.5466 60.1964 22.4159V28.9862C49.8885 26.6302 40.0207 24.3056 30.1146 22.1591C27.8493 21.6684 26.9045 20.5436 27.0966 18.3919C27.1874 17.3825 27.4564 16.3468 27.8581 15.4176C28.8745 13.0721 30.3241 10.8662 31 8.43685C31.5153 6.5873 31.3913 4.41988 30.9878 2.51444C30.8062 1.65342 29.3059 0.673625 28.3017 0.542637C27.7445 0.469284 26.5255 1.96604 26.3823 2.87772C25.9753 5.48176 25.53 8.21155 25.902 10.7754C26.4504 14.5549 24.9414 17.2323 22.3758 19.9096C17.634 18.3762 12.7892 16.8079 7.94266 15.2412C7.87454 15.4334 7.80643 15.6237 7.73832 15.8158C12.2495 17.6933 16.7608 19.5726 21.41 21.5077C20.1455 23.6122 18.9806 25.5526 17.7353 27.6257C11.7431 25.7674 5.88178 23.9493 0.0187573 22.1312C-0.0406239 22.2936 -0.101752 22.4561 -0.161133 22.6167C5.49929 24.9047 11.1597 27.1908 16.8743 29.5015C16.4115 31.2777 15.9766 32.9421 15.5033 34.7567C13.8948 34.0756 12.405 33.4433 10.917 32.8128C12.4504 34.2048 14.6492 34.975 15.6395 36.5189C17.3651 39.212 18.3466 42.3819 19.5884 45.234C13.3795 41.8894 6.8965 38.3947 0.411721 34.9017C2.16696 36.6848 4.07414 38.234 6.18742 39.4146C14.6685 44.1529 23.2246 48.7549 31.7144 53.4758C32.4985 53.9124 33.5552 54.8171 33.5674 55.5209C33.6285 59.1764 29.5434 63.3033 25.9107 63.4483C24.7004 63.4972 23.4813 63.3086 22.2658 63.2282L22.3199 63.2352C27.1176 65.5563 33.2233 63.209 34.9279 55.0773C39.6557 57.0561 44.2787 59.2462 49.0764 60.9421C58.5582 64.2936 68.1395 67.364 77.6719 70.5758C78.5137 70.8605 79.2944 71.3303 80.1031 71.7145C79.9878 71.973 79.8743 72.2332 79.759 72.4917C79.3591 72.3747 78.9643 72.2105 78.5557 72.1512C75.5726 71.7163 72.518 74.0514 72.3818 76.9767C72.2857 79.0411 73.2987 80.3615 75.4574 80.5274C78.3339 80.7492 81.0112 78.0194 80.9693 74.9525C80.9641 74.6015 80.8558 74.2522 80.8453 73.8994C80.8261 73.1536 80.8401 72.4061 80.8401 71.5172C84.6492 72.3066 88.1056 72.993 91.5427 73.7684C92.0387 73.8802 92.6447 74.3238 92.8526 74.7727C94.5571 78.484 96.6669 78.9224 99.9556 76.3148C100.614 75.7944 101.639 75.459 102.476 75.494C104.856 75.5918 107.225 76.0563 109.603 76.1349C113.194 76.2537 116.794 76.1664 120.388 76.1664C120.388 76.0581 120.384 75.9515 120.384 75.8433C114.16 75.2949 107.935 74.7465 101.489 74.1771L101.496 74.1754ZM61.3368 30.9353C64.8945 30.7869 67.3099 34.7235 66.3528 39.5037C64.5871 39.1527 62.9821 38.8348 61.3368 38.5082V30.9353ZM29.8648 23.9441C39.3396 25.9875 48.8004 28.0973 58.2944 30.0464C59.8488 30.366 60.4042 30.9057 60.3291 32.4304C60.2383 34.2589 60.3082 36.098 60.3082 38.344C56.8553 37.6332 53.771 37.0167 50.6971 36.3548C48.9733 35.9827 47.281 35.457 45.5484 35.1392C42.9881 34.6694 40.9778 33.7821 39.2767 31.4488C36.7705 28.0134 32.9369 27.6397 28.7959 28.9443C28.4903 27.2327 28.2021 25.619 27.8598 23.7031C28.7383 23.8061 29.3112 23.8253 29.8648 23.9441ZM30.1582 33.838C33.3404 34.72 36.4771 35.5094 39.5439 36.5137C40.1081 36.6988 40.8241 37.8305 40.7228 38.3877C40.3508 40.4189 39.6627 42.3924 39.0392 44.5738C31.2253 42.1287 30.6385 41.3952 30.1582 33.838ZM30.3835 41.0721C25.9614 39.9962 24.3336 37.3503 26.1011 34.2362C26.3962 33.7175 27.1088 33.0958 27.5996 33.1202C28.1113 33.1464 28.8641 33.8101 29.0282 34.3428C29.5434 36.0229 29.8421 37.7694 30.1984 39.4967C30.3014 39.9962 30.3206 40.5114 30.3835 41.0721ZM30.8865 31.3562C33.8311 30.2629 36.4456 30.6594 38.4332 33.3263C35.9182 32.6696 33.4032 32.0129 30.8865 31.3562ZM42.2929 37.242C48.1071 38.4506 54.033 39.6818 60.13 40.9481V43.863C55.5367 42.6474 52.7458 45.0139 50.5312 48.7427C46.8461 47.466 43.2099 46.2068 39.6854 44.986C40.5604 42.3854 41.3848 39.9368 42.2929 37.242ZM28.7156 3.09254C31.1782 5.04338 30.5302 8.87871 26.8032 13.3515C26.3072 8.11025 26.9324 4.92113 28.7156 3.09254ZM23.7311 22.0002C24.8715 22.5189 26.5499 22.7565 26.8416 23.5232C27.5402 25.3518 27.6258 27.4266 27.8127 29.4159C27.8266 29.5661 26.618 30.1058 26.0871 29.9852C24.2288 29.5661 22.4194 28.9373 20.2905 28.2981C21.4624 26.1534 22.5033 24.248 23.7311 22.0002ZM19.749 30.469C21.4484 31.0139 23.1635 31.5658 24.6393 32.0391V38.737C18.1056 36.3792 17.3843 36.7739 19.749 30.469ZM32.413 51.4673C26.9673 48.1961 20.4965 45.9937 19.0312 38.0646C23.0587 39.9822 26.8416 41.7043 30.5302 43.6115C31.1467 43.9311 31.4873 45.0052 31.7213 45.7999C32.2331 47.5359 32.5963 49.3173 33.019 51.0795C32.8164 51.2088 32.6156 51.338 32.413 51.469V51.4673ZM79.6961 69.3672C73.8453 67.4705 68.0836 65.834 62.4965 63.7347C54.15 60.598 45.9536 57.0666 37.6333 53.853C35.2336 52.9274 33.8276 51.579 33.5464 48.975C33.398 47.6005 32.9037 46.2644 32.516 44.7153C38.3528 46.8565 44.242 48.245 49.2458 51.1529C52.0996 52.8121 54.501 53.2749 57.5906 53.7569C64.9609 54.9061 72.1512 57.208 79.6961 59.117V69.3672ZM100.301 69.7619C97.6817 68.9393 95.5701 69.7619 93.8358 71.8455C93.5477 72.1913 92.7478 72.3572 92.2622 72.2524C88.9055 71.5259 85.5487 70.7697 82.239 69.8545C81.6208 69.6833 80.8383 68.7821 80.7807 68.1586C80.5938 66.1536 80.7108 64.1225 80.7108 61.1586H100.301V69.7637V69.7619ZM99.2762 55.8789C93.7136 56.4308 88.2435 58.614 82.5429 56.995C82.0539 56.8552 81.5771 56.6719 80.4978 56.3068C87.0245 55.3218 92.9259 54.4293 98.8308 53.5491C99.1662 53.4985 99.5155 53.5421 100.584 53.5421C100.024 54.5883 99.7093 55.837 99.2762 55.8807V55.8789Z"/>
</mask>
<path d="M101.496 74.1754V61.5673C106.378 61.5673 111.145 61.6966 115.903 61.5306C120.662 61.3647 125.409 60.9054 130.161 60.5753C130.149 60.3587 130.135 60.1422 130.123 59.9256C129.597 59.9256 129.073 59.9274 128.548 59.9256C120.154 59.8924 111.758 59.833 103.365 59.8453C101.704 59.8488 100.941 59.3178 101.014 57.5573C101.114 55.1908 101.038 52.8156 101.038 50.1574C93.635 51.2507 86.6891 52.2777 79.7607 53.3011C79.6123 54.4084 79.4988 55.2589 79.3329 56.4885C72.6245 54.8293 66.0804 53.2103 60.2627 51.7694C60.7797 47.8922 61.2216 44.5895 61.6896 41.0791C63.1008 41.3148 64.4317 41.5366 65.9441 41.7899C65.5232 42.8902 65.2211 43.6831 64.9189 44.476C66.1852 41.369 68.6111 42.0606 71.0998 42.2492C77.3576 42.7225 83.631 43.0247 89.9045 43.2238C92.3548 43.3006 94.8209 42.9181 96.7909 42.7801C87.5938 41.9628 77.9688 41.1087 68.7543 40.2914C68.6041 36.8543 68.487 34.1873 68.363 31.365C81.9037 32.2522 95.7622 32.474 109.357 28.8098C109.092 28.5968 108.824 28.5077 108.582 28.5549C95.1562 31.1257 81.6627 30.9947 68.1552 29.463C66.8087 29.3111 65.3468 28.4885 64.3286 27.5506C62.9139 26.2495 61.8695 24.5466 60.1964 22.4159V28.9862C49.8885 26.6302 40.0207 24.3056 30.1146 22.1591C27.8493 21.6684 26.9045 20.5436 27.0966 18.3919C27.1874 17.3825 27.4564 16.3468 27.8581 15.4176C28.8745 13.0721 30.3241 10.8662 31 8.43685C31.5153 6.5873 31.3913 4.41988 30.9878 2.51444C30.8062 1.65342 29.3059 0.673625 28.3017 0.542637C27.7445 0.469284 26.5255 1.96604 26.3823 2.87772C25.9753 5.48176 25.53 8.21155 25.902 10.7754C26.4504 14.5549 24.9414 17.2323 22.3758 19.9096C17.634 18.3762 12.7892 16.8079 7.94266 15.2412C7.87454 15.4334 7.80643 15.6237 7.73832 15.8158C12.2495 17.6933 16.7608 19.5726 21.41 21.5077C20.1455 23.6122 18.9806 25.5526 17.7353 27.6257C11.7431 25.7674 5.88178 23.9493 0.0187573 22.1312C-0.0406239 22.2936 -0.101752 22.4561 -0.161133 22.6167C5.49929 24.9047 11.1597 27.1908 16.8743 29.5015C16.4115 31.2777 15.9766 32.9421 15.5033 34.7567C13.8948 34.0756 12.405 33.4433 10.917 32.8128C12.4504 34.2048 14.6492 34.975 15.6395 36.5189C17.3651 39.212 18.3466 42.3819 19.5884 45.234C13.3795 41.8894 6.8965 38.3947 0.411721 34.9017C2.16696 36.6848 4.07414 38.234 6.18742 39.4146C14.6685 44.1529 23.2246 48.7549 31.7144 53.4758C32.4985 53.9124 33.5552 54.8171 33.5674 55.5209C33.6285 59.1764 29.5434 63.3033 25.9107 63.4483C24.7004 63.4972 23.4813 63.3086 22.2658 63.2282L22.3199 63.2352C27.1176 65.5563 33.2233 63.209 34.9279 55.0773C39.6557 57.0561 44.2787 59.2462 49.0764 60.9421C58.5582 64.2936 68.1395 67.364 77.6719 70.5758C78.5137 70.8605 79.2944 71.3303 80.1031 71.7145C79.9878 71.973 79.8743 72.2332 79.759 72.4917C79.3591 72.3747 78.9643 72.2105 78.5557 72.1512C75.5726 71.7163 72.518 74.0514 72.3818 76.9767C72.2857 79.0411 73.2987 80.3615 75.4574 80.5274C78.3339 80.7492 81.0112 78.0194 80.9693 74.9525C80.9641 74.6015 80.8558 74.2522 80.8453 73.8994C80.8261 73.1536 80.8401 72.4061 80.8401 71.5172C84.6492 72.3066 88.1056 72.993 91.5427 73.7684C92.0387 73.8802 92.6447 74.3238 92.8526 74.7727C94.5571 78.484 96.6669 78.9224 99.9556 76.3148C100.614 75.7944 101.639 75.459 102.476 75.494C104.856 75.5918 107.225 76.0563 109.603 76.1349C113.194 76.2537 116.794 76.1664 120.388 76.1664C120.388 76.0581 120.384 75.9515 120.384 75.8433C114.16 75.2949 107.935 74.7465 101.489 74.1771L101.496 74.1754ZM61.3368 30.9353C64.8945 30.7869 67.3099 34.7235 66.3528 39.5037C64.5871 39.1527 62.9821 38.8348 61.3368 38.5082V30.9353ZM29.8648 23.9441C39.3396 25.9875 48.8004 28.0973 58.2944 30.0464C59.8488 30.366 60.4042 30.9057 60.3291 32.4304C60.2383 34.2589 60.3082 36.098 60.3082 38.344C56.8553 37.6332 53.771 37.0167 50.6971 36.3548C48.9733 35.9827 47.281 35.457 45.5484 35.1392C42.9881 34.6694 40.9778 33.7821 39.2767 31.4488C36.7705 28.0134 32.9369 27.6397 28.7959 28.9443C28.4903 27.2327 28.2021 25.619 27.8598 23.7031C28.7383 23.8061 29.3112 23.8253 29.8648 23.9441ZM30.1582 33.838C33.3404 34.72 36.4771 35.5094 39.5439 36.5137C40.1081 36.6988 40.8241 37.8305 40.7228 38.3877C40.3508 40.4189 39.6627 42.3924 39.0392 44.5738C31.2253 42.1287 30.6385 41.3952 30.1582 33.838ZM30.3835 41.0721C25.9614 39.9962 24.3336 37.3503 26.1011 34.2362C26.3962 33.7175 27.1088 33.0958 27.5996 33.1202C28.1113 33.1464 28.8641 33.8101 29.0282 34.3428C29.5434 36.0229 29.8421 37.7694 30.1984 39.4967C30.3014 39.9962 30.3206 40.5114 30.3835 41.0721ZM30.8865 31.3562C33.8311 30.2629 36.4456 30.6594 38.4332 33.3263C35.9182 32.6696 33.4032 32.0129 30.8865 31.3562ZM42.2929 37.242C48.1071 38.4506 54.033 39.6818 60.13 40.9481V43.863C55.5367 42.6474 52.7458 45.0139 50.5312 48.7427C46.8461 47.466 43.2099 46.2068 39.6854 44.986C40.5604 42.3854 41.3848 39.9368 42.2929 37.242ZM28.7156 3.09254C31.1782 5.04338 30.5302 8.87871 26.8032 13.3515C26.3072 8.11025 26.9324 4.92113 28.7156 3.09254ZM23.7311 22.0002C24.8715 22.5189 26.5499 22.7565 26.8416 23.5232C27.5402 25.3518 27.6258 27.4266 27.8127 29.4159C27.8266 29.5661 26.618 30.1058 26.0871 29.9852C24.2288 29.5661 22.4194 28.9373 20.2905 28.2981C21.4624 26.1534 22.5033 24.248 23.7311 22.0002ZM19.749 30.469C21.4484 31.0139 23.1635 31.5658 24.6393 32.0391V38.737C18.1056 36.3792 17.3843 36.7739 19.749 30.469ZM32.413 51.4673C26.9673 48.1961 20.4965 45.9937 19.0312 38.0646C23.0587 39.9822 26.8416 41.7043 30.5302 43.6115C31.1467 43.9311 31.4873 45.0052 31.7213 45.7999C32.2331 47.5359 32.5963 49.3173 33.019 51.0795C32.8164 51.2088 32.6156 51.338 32.413 51.469V51.4673ZM79.6961 69.3672C73.8453 67.4705 68.0836 65.834 62.4965 63.7347C54.15 60.598 45.9536 57.0666 37.6333 53.853C35.2336 52.9274 33.8276 51.579 33.5464 48.975C33.398 47.6005 32.9037 46.2644 32.516 44.7153C38.3528 46.8565 44.242 48.245 49.2458 51.1529C52.0996 52.8121 54.501 53.2749 57.5906 53.7569C64.9609 54.9061 72.1512 57.208 79.6961 59.117V69.3672ZM100.301 69.7619C97.6817 68.9393 95.5701 69.7619 93.8358 71.8455C93.5477 72.1913 92.7478 72.3572 92.2622 72.2524C88.9055 71.5259 85.5487 70.7697 82.239 69.8545C81.6208 69.6833 80.8383 68.7821 80.7807 68.1586C80.5938 66.1536 80.7108 64.1225 80.7108 61.1586H100.301V69.7637V69.7619ZM99.2762 55.8789C93.7136 56.4308 88.2435 58.614 82.5429 56.995C82.0539 56.8552 81.5771 56.6719 80.4978 56.3068C87.0245 55.3218 92.9259 54.4293 98.8308 53.5491C99.1662 53.4985 99.5155 53.5421 100.584 53.5421C100.024 54.5883 99.7093 55.837 99.2762 55.8807V55.8789Z" fill="#F0D6BF" fill-opacity="0.25" stroke="#F0D6BF" stroke-width="4" mask="url(#path-1-inside-1_71_1259)"/>
<mask id="path-2-inside-2_71_1259" fill="white">
<path d="M22.325 63.0939C22.325 63.0939 22.3145 63.0799 22.3075 63.0747C22.2988 63.0782 22.2883 63.0834 22.2778 63.0869C22.2691 63.0869 22.3232 63.0939 22.3232 63.0939H22.325Z"/>
</mask>
<path d="M22.325 63.0939C22.325 63.0939 22.3145 63.0799 22.3075 63.0747C22.2988 63.0782 22.2883 63.0834 22.2778 63.0869C22.2691 63.0869 22.3232 63.0939 22.3232 63.0939H22.325Z" fill="#F0D6BF" fill-opacity="0.25"/>
<path d="M22.325 63.0939V65.0939H26.3256L23.9248 61.8937L22.325 63.0939ZM22.3075 63.0747L23.5075 61.4747L22.6083 60.8003L21.5647 61.2178L22.3075 63.0747ZM22.2778 63.0869V65.0869H22.6024L22.9103 64.9843L22.2778 63.0869ZM22.3232 63.0939L22.0672 65.0775L22.1947 65.0939H22.3232V63.0939ZM22.325 63.0939C23.9248 61.8937 23.9247 61.8936 23.9246 61.8935C23.9246 61.8934 23.9245 61.8933 23.9245 61.8933C23.9244 61.8931 23.9243 61.893 23.9241 61.8928C23.9239 61.8925 23.9237 61.8922 23.9235 61.8919C23.923 61.8913 23.9225 61.8907 23.9221 61.8901C23.9211 61.8888 23.9202 61.8875 23.9192 61.8862C23.9171 61.8835 23.915 61.8807 23.9127 61.8777C23.9081 61.8717 23.9027 61.8648 23.8968 61.8572C23.8854 61.8427 23.8689 61.822 23.8485 61.7978C23.8297 61.7755 23.7976 61.7382 23.7558 61.6947C23.7247 61.6623 23.6362 61.5712 23.5075 61.4747L21.1075 64.6747C20.9823 64.5808 20.8977 64.4934 20.8705 64.4651C20.8327 64.4257 20.8045 64.3929 20.7892 64.3747C20.7723 64.3547 20.7589 64.3378 20.7497 64.3261C20.7448 64.3199 20.7403 64.3141 20.7363 64.3089C20.7343 64.3063 20.7324 64.3038 20.7305 64.3013C20.7296 64.3001 20.7287 64.2989 20.7278 64.2977C20.7273 64.2971 20.7269 64.2965 20.7265 64.2959C20.7262 64.2956 20.726 64.2953 20.7258 64.295C20.7257 64.2949 20.7256 64.2947 20.7255 64.2946C20.7254 64.2945 20.7253 64.2944 20.7253 64.2944C20.7252 64.2942 20.7251 64.2941 22.325 63.0939ZM21.5647 61.2178C21.5333 61.2303 21.5084 61.2412 21.5004 61.2447C21.4978 61.2458 21.4957 61.2468 21.4943 61.2474C21.4932 61.2479 21.4917 61.2485 21.4917 61.2485C21.4906 61.249 21.493 61.2479 21.4962 61.2465C21.5024 61.2439 21.5199 61.2363 21.5431 61.227C21.5665 61.2176 21.6017 61.2041 21.6454 61.1896L22.9103 64.9843C22.9592 64.968 22.9996 64.9525 23.0282 64.9411C23.0566 64.9297 23.0792 64.92 23.0905 64.9151C23.0962 64.9126 23.101 64.9105 23.1024 64.9099C23.105 64.9087 23.103 64.9096 23.1009 64.9105C23.0977 64.9119 23.0774 64.9208 23.0503 64.9317L21.5647 61.2178ZM22.2778 61.0869C22.2544 61.0869 22.189 61.0871 22.1057 61.0943C22.0658 61.0977 21.9837 61.1059 21.8815 61.1265C21.8324 61.1364 21.5426 61.1905 21.2286 61.3838C21.0642 61.4849 20.7292 61.7231 20.498 62.1729C20.2247 62.7047 20.2186 63.2941 20.4041 63.7889C20.5596 64.204 20.8113 64.4578 20.9328 64.5681C21.0697 64.6923 21.1953 64.7714 21.2663 64.813C21.4966 64.9478 21.707 65.0042 21.7089 65.0048C21.8041 65.033 21.882 65.0478 21.8896 65.0493C21.9148 65.0544 21.9352 65.0579 21.9455 65.0596C21.9812 65.0657 22.013 65.0701 22.0192 65.071C22.0325 65.0729 22.0445 65.0745 22.0519 65.0755C22.056 65.076 22.0594 65.0764 22.062 65.0768C22.0633 65.077 22.0644 65.0771 22.0652 65.0772C22.0657 65.0773 22.0661 65.0773 22.0664 65.0774C22.0666 65.0774 22.0667 65.0774 22.0669 65.0774C22.0669 65.0774 22.067 65.0774 22.067 65.0774C22.0671 65.0774 22.0671 65.0775 22.0671 65.0775C22.0671 65.0775 22.0672 65.0775 22.0672 65.0775C22.0672 65.0775 22.0672 65.0775 22.3232 63.0939C22.5792 61.1104 22.5792 61.1104 22.5793 61.1104C22.5793 61.1104 22.5793 61.1104 22.5793 61.1104C22.5793 61.1104 22.5793 61.1104 22.5794 61.1104C22.5794 61.1104 22.5795 61.1104 22.5795 61.1104C22.5796 61.1104 22.5797 61.1104 22.5797 61.1104C22.5798 61.1104 22.5799 61.1105 22.58 61.1105C22.5801 61.1105 22.58 61.1105 22.5798 61.1104C22.5795 61.1104 22.5788 61.1103 22.5778 61.1102C22.5754 61.1099 22.5745 61.1097 22.5753 61.1098C22.5757 61.1099 22.5786 61.1103 22.5833 61.111C22.5861 61.1114 22.5991 61.1134 22.6169 61.1164C22.6253 61.1178 22.644 61.1211 22.668 61.1258C22.6741 61.127 22.751 61.1417 22.8456 61.1697C22.8741 61.1781 22.9223 61.1931 22.9808 61.2151C23.0263 61.2322 23.1462 61.2785 23.2875 61.3612C23.3585 61.4028 23.4841 61.4818 23.621 61.606C23.7424 61.7163 23.9941 61.9701 24.1496 62.3852C24.3351 62.88 24.329 63.4693 24.0557 64.0012C23.8246 64.451 23.4895 64.6891 23.3252 64.7903C23.0112 64.9835 22.7215 65.0376 22.6725 65.0475C22.5704 65.0681 22.4884 65.0762 22.4486 65.0796C22.3657 65.0867 22.3006 65.0869 22.2778 65.0869V61.0869ZM22.3232 65.0939H22.325V61.0939H22.3232V65.0939Z" fill="#F0D6BF" mask="url(#path-2-inside-2_71_1259)"/>
<path d="M24.4342 60.9712C25.0908 60.524 25.4185 60.0502 25.5348 59.6139C25.6534 59.1688 25.5956 58.6002 25.1642 57.8897L24.4342 60.9712ZM24.4342 60.9712L24.331 61.0378C23.8593 61.3421 23.3736 61.5418 22.8008 61.7774C22.7307 61.8062 22.6594 61.8355 22.5866 61.8657C22.5455 61.8195 22.5047 61.7737 22.4646 61.7288C22.3451 61.5948 22.2315 61.4675 22.1339 61.3546C21.8398 61.0146 21.5971 60.7049 21.413 60.3861L21.4129 60.386C20.9841 59.6435 20.8638 59.0136 20.9465 58.5273C21.0237 58.0726 21.3022 57.5974 21.9942 57.174L24.4342 60.9712ZM23.7696 56.7614C23.2903 56.6578 22.6858 56.7513 21.9945 57.1738L23.7696 56.7614ZM23.7696 56.7614C24.239 56.8628 24.7358 57.1847 25.1641 57.8895L23.7696 56.7614Z" fill="#F0D6BF" fill-opacity="0.25" stroke="#F0D6BF" stroke-width="2"/>
</g>
</g>
<defs>
<filter id="filter0_d_71_1259" x="-4.16113" y="-3.45996" width="138.323" height="88" filterUnits="userSpaceOnUse" color-interpolation-filters="sRGB">
<feFlood flood-opacity="0" result="BackgroundImageFix"/>
<feColorMatrix in="SourceAlpha" type="matrix" values="0 0 0 0 0 0 0 0 0 0 0 0 0 0 0 0 0 0 127 0" result="hardAlpha"/>
<feOffset/>
<feGaussianBlur stdDeviation="2"/>
<feComposite in2="hardAlpha" operator="out"/>
<feColorMatrix type="matrix" values="0 0 0 0 1 0 0 0 0 1 0 0 0 0 1 0 0 0 0.5 0"/>
<feBlend mode="normal" in2="BackgroundImageFix" result="effect1_dropShadow_71_1259"/>
<feBlend mode="normal" in="SourceGraphic" in2="effect1_dropShadow_71_1259" result="shape"/>
</filter>
<clipPath id="clip0_71_1259">
<rect width="130" height="80" fill="white" transform="translate(0 0.540039)"/>
</clipPath>
</defs>
</svg>
