<svg width="240" height="220" viewBox="0 0 240 220" fill="none" xmlns="http://www.w3.org/2000/svg">
<g clip-path="url(#clip0_33_421)">
<g filter="url(#filter0_i_33_421)">
<path d="M120.387 175.536C87.0248 175.536 53.6489 175.564 20.287 175.521C10.2208 175.507 3.7256 171.13 0.955988 162.403C0.126511 159.799 0.0421574 156.885 0.0421574 154.113C-0.0140783 109.62 -1.93964e-05 65.1273 0.0140395 20.6488C0.0280985 7.4882 7.25439 0.140791 20.5682 0.11264C64.8257 0.042263 109.083 0.070414 153.341 0.070414C175.118 0.070414 196.895 0.267471 218.673 3.65234e-05C229.596 -0.126643 240.169 5.78507 240 20.8318C239.508 65.6622 239.873 110.507 239.873 155.337C239.873 168.878 233.181 175.521 219.432 175.536C186.421 175.578 153.397 175.536 120.387 175.536ZM120.134 142.134C120.134 142.134 120.134 142.078 120.134 142.05C154.044 142.05 187.954 141.965 221.85 142.148C227.052 142.177 228.795 140.727 228.753 135.294C228.528 98.5285 228.64 61.7774 228.654 25.0122C228.654 14.9623 225.857 12.119 215.931 12.119C152.16 12.119 88.3744 12.119 24.6031 12.105C14.3682 12.105 11.8095 14.5963 11.8095 24.7588C11.8095 61.1721 11.8095 97.5854 11.8095 133.985C11.8095 139.418 14.5275 142.134 19.9637 142.134C53.3396 142.134 86.7295 142.134 120.105 142.134H120.134Z" fill="#F88D7F"/>
</g>
<path d="M24.603 11.1045C19.4968 11.1045 15.9031 11.7018 13.6655 13.9092C11.4237 16.121 10.8091 19.6848 10.8091 24.7588V133.984C10.8091 136.855 11.5283 139.193 13.1411 140.805C14.7538 142.416 17.0916 143.135 19.9634 143.135H121.133V143.049C154.713 143.047 188.285 142.967 221.844 143.148C224.466 143.163 226.571 142.825 227.96 141.49C229.274 140.229 229.719 138.303 229.751 135.795L229.752 135.286C229.528 98.5258 229.641 61.7809 229.655 25.0127V25.0117C229.655 19.9708 228.972 16.3713 226.727 14.0947C224.477 11.8136 220.914 11.1191 215.931 11.1191C152.16 11.1191 88.3742 11.1186 24.603 11.1045ZM1.04248 154.111C1.01436 131.865 1.00322 109.619 1.00146 87.375L1.01416 20.6494C1.02108 14.2471 2.77951 9.40686 6.01221 6.16211C9.14361 3.01908 13.7912 1.23964 19.9683 1.11914L20.5698 1.1123C64.8261 1.04193 109.082 1.07031 153.34 1.07031C175.105 1.07031 196.899 1.26654 218.684 0.999023C223.977 0.937642 229.096 2.34271 232.853 5.49219C236.58 8.61702 239.082 13.5546 239 20.8203C238.508 65.6578 238.874 110.518 238.874 155.337C238.874 161.956 237.238 166.699 234.105 169.798C230.97 172.899 226.16 174.528 219.431 174.535H219.43C186.421 174.577 153.398 174.535 120.386 174.535C87.0235 174.535 53.6494 174.564 20.2886 174.521C15.3971 174.515 11.4668 173.448 8.4458 171.401C5.43396 169.361 3.23735 166.287 1.90869 162.101V162.1L1.771 161.639C1.12077 159.314 1.04248 156.715 1.04248 154.112V154.111Z" stroke="#F0D6BF" stroke-width="2"/>
<g filter="url(#filter1_i_33_421)">
<path d="M120.415 219.986C104.444 219.986 88.459 219.958 72.4881 220C68.903 220 66.26 219.127 66.0631 214.876C65.9226 211.92 66.9629 210.203 70.1262 209.992C73.4441 209.767 76.762 209.077 80.0658 209.091C84.4663 209.119 86.3502 206.797 87.1656 202.884C88.0513 198.605 89.3307 194.382 90.0055 190.061C90.5679 186.458 92.4799 185.641 95.7837 185.67C111.937 185.796 128.091 185.81 144.231 185.67C147.9 185.641 149.643 186.824 150.206 190.54C150.853 194.861 152.16 199.07 153.032 203.363C153.763 206.938 155.633 208.908 159.443 209.063C162.76 209.204 166.064 209.767 169.396 209.978C172.475 210.161 175.273 210.879 175.217 214.553C175.16 218.451 172.531 219.972 168.862 219.972C162.367 219.972 155.872 219.972 149.376 219.972C139.718 219.972 130.059 219.972 120.415 219.972V219.986Z" fill="#F88D7F"/>
</g>
<path d="M95.7754 186.67C111.933 186.797 128.093 186.811 144.238 186.67C145.996 186.656 147.07 186.941 147.767 187.487C148.402 187.986 148.89 188.834 149.165 190.372L149.217 190.689C149.547 192.896 150.045 195.064 150.562 197.197C151.083 199.343 151.621 201.439 152.052 203.562V203.562C152.442 205.469 153.161 207.079 154.403 208.229C155.657 209.391 157.327 209.977 159.4 210.062V210.062C161.021 210.131 162.646 210.303 164.304 210.488C165.952 210.672 167.638 210.868 169.333 210.976L169.337 210.977C170.861 211.067 172.11 211.287 172.959 211.809C173.361 212.056 173.666 212.366 173.875 212.771C174.087 213.182 174.229 213.746 174.217 214.537V214.538C174.192 216.244 173.62 217.286 172.783 217.933C171.904 218.612 170.582 218.972 168.862 218.972H119.415V218.984C103.78 218.983 88.126 218.958 72.4873 218.999C70.7325 218.999 69.4311 218.776 68.5566 218.198C67.7627 217.673 67.1507 216.736 67.0625 214.83V214.829L67.0508 214.334C67.0558 213.232 67.2752 212.497 67.6465 212.017C68.0468 211.499 68.7758 211.085 70.1924 210.99H70.1943C71.8871 210.875 73.5876 210.641 75.2207 210.445C76.8717 210.247 78.4753 210.084 80.0615 210.091V210.09C82.4451 210.105 84.2908 209.479 85.6484 208.19C86.9817 206.925 87.7174 205.138 88.1445 203.088V203.087C88.5829 200.969 89.1179 198.87 89.6367 196.724C90.1527 194.588 90.6491 192.419 90.9932 190.216C91.2502 188.569 91.78 187.771 92.4277 187.332C93.0382 186.919 93.9121 186.711 95.1982 186.675L95.7754 186.67Z" stroke="#F0D6BF" stroke-width="2"/>
<g filter="url(#filter2_i_33_421)">
<path d="M174.837 78.9777C166.528 71.4896 158.824 64.6207 151.19 57.6674C146.803 53.67 146.705 51.3616 151.372 48.1665C152.778 47.1953 156.082 47.0264 157.263 47.9976C168.046 56.9777 178.548 66.3098 189.149 75.5152C191.834 77.8517 192.017 80.0756 189.149 82.4825C178.267 91.6316 167.4 100.795 156.588 110.014C153.186 112.914 151.246 110.451 149.137 108.269C146.859 105.904 146.944 103.737 149.446 101.513C157.727 94.2074 165.951 86.8459 174.823 78.9496L174.837 78.9777Z" fill="#F88D7F"/>
</g>
<path d="M154.438 48.353C154.948 48.3343 155.433 48.3702 155.835 48.4556C156.148 48.5219 156.368 48.6092 156.511 48.6909L156.628 48.77C167.399 57.7399 177.882 67.0553 188.492 76.269V76.27C189.757 77.3706 190.217 78.266 190.231 78.9927C190.245 79.6993 189.842 80.5951 188.506 81.7163L188.505 81.7173C180.343 88.5794 172.189 95.4503 164.06 102.347L155.939 109.253C155.173 109.906 154.564 110.194 154.084 110.292C153.623 110.387 153.208 110.323 152.786 110.134C152.344 109.936 151.89 109.598 151.392 109.136C151.139 108.903 150.893 108.655 150.642 108.394L149.856 107.574C148.814 106.491 148.466 105.612 148.498 104.882C148.53 104.149 148.959 103.284 150.11 102.26L150.109 102.259C158.391 94.9529 166.62 87.5898 175.487 79.6968L174.967 79.1118L175.731 78.5308L175.717 78.5024L175.134 77.3345L174.817 77.6157C167.801 71.2954 161.217 65.4126 154.729 59.5317L151.863 56.9282C150.792 55.9523 150.031 55.1212 149.543 54.3901C149.058 53.6632 148.882 53.0952 148.886 52.6235C148.892 51.7002 149.609 50.5856 151.938 48.9917L151.94 48.9888C152.42 48.6573 153.379 48.392 154.438 48.353Z" stroke="#F0D6BF" stroke-width="2"/>
<g filter="url(#filter3_i_33_421)">
<path d="M64.9384 78.1893C74.2594 86.5783 81.9778 93.4472 89.5837 100.429C93.6608 104.173 93.6889 106.242 89.3306 109.676C88.1778 110.591 85.1411 110.788 84.1148 109.93C73.1488 100.879 62.4218 91.5329 51.5964 82.2994C48.6722 79.808 49.3048 77.4996 51.8636 75.3039C62.5202 66.1548 73.191 57.0198 83.8617 47.8989C87.2218 45.0275 89.5134 47.0262 91.8612 49.5598C94.5324 52.4312 93.2671 54.5988 90.9193 56.6961C83.8757 63.0441 76.8463 69.4062 69.7325 75.6698C68.5656 76.6973 66.9066 77.1759 64.9243 78.1753L64.9384 78.1893Z" fill="#F88D7F"/>
</g>
<path d="M86.4365 47.562C86.955 47.4354 87.4309 47.476 87.9062 47.645C88.9282 48.0086 89.9343 48.9517 91.1279 50.2397L91.1289 50.2407C92.3175 51.5184 92.4745 52.4498 92.2998 53.187C92.0995 54.0315 91.4031 54.9232 90.2529 55.9507L90.25 55.9536C83.2041 62.3038 76.1796 68.6607 69.0713 74.9194C68.6011 75.3334 68.0038 75.6609 67.2148 76.0249C66.4664 76.3702 65.48 76.7759 64.4746 77.2827L63.2402 77.9048L64.2168 78.8823L64.2305 78.896L64.2695 78.9331C73.596 87.3269 81.3062 94.1886 88.9072 101.166C89.9019 102.079 90.5992 102.846 91.041 103.519C91.4776 104.185 91.6289 104.705 91.6201 105.149C91.602 106.053 90.8987 107.168 88.7119 108.891L88.709 108.893C88.3725 109.16 87.5739 109.417 86.6211 109.469C86.1708 109.494 85.7436 109.469 85.3936 109.4C85.1172 109.346 84.9382 109.274 84.835 109.215L84.7568 109.163L84.751 109.159L82.6992 107.459C73.8199 100.083 65.0875 92.5315 56.3037 85.0083L52.2451 81.5386L52.0068 81.3286C50.876 80.292 50.6046 79.4517 50.6689 78.7866C50.744 78.0119 51.3013 77.1043 52.5146 76.063C63.1706 66.9145 73.8414 57.7793 84.5117 48.6587C85.2683 48.0122 85.9046 47.6919 86.4365 47.562Z" stroke="#F0D6BF" stroke-width="2"/>
<g filter="url(#filter4_i_33_421)">
<path d="M110.447 115.475C103.263 115.475 100.465 111.886 102.546 106.763C111.094 85.6915 119.852 64.7049 128.344 43.5917C130.13 39.1579 132.773 39.552 136.287 40.8329C140.154 42.2404 140.913 44.8022 139.479 48.307C130.762 69.5047 122.046 90.7024 113.217 111.858C112.542 113.477 111.023 114.743 110.447 115.475Z" fill="#F88D7F"/>
</g>
<path d="M131.885 41.0449C132.764 40.8487 133.854 41.0573 135.302 41.5459L135.945 41.7725C137.726 42.4208 138.589 43.2592 138.94 44.1494C139.299 45.0615 139.225 46.2874 138.554 47.9268C129.837 69.1249 121.121 90.32 112.293 111.473C112.018 112.133 111.553 112.758 111.043 113.339C110.791 113.627 110.54 113.89 110.302 114.142C110.201 114.249 110.096 114.359 109.997 114.468C106.79 114.395 104.79 113.548 103.777 112.384C102.833 111.299 102.553 109.703 103.307 107.572L103.472 107.139C110.945 88.7188 118.594 70.3267 126.077 51.876L129.272 43.9648C130.099 41.9125 131.008 41.241 131.885 41.0449Z" stroke="#F0D6BF" stroke-width="2"/>
</g>
<defs>
<filter id="filter0_i_33_421" x="0.00146484" y="-0.00195312" width="240" height="175.556" filterUnits="userSpaceOnUse" color-interpolation-filters="sRGB">
<feFlood flood-opacity="0" result="BackgroundImageFix"/>
<feBlend mode="normal" in="SourceGraphic" in2="BackgroundImageFix" result="shape"/>
<feColorMatrix in="SourceAlpha" type="matrix" values="0 0 0 0 0 0 0 0 0 0 0 0 0 0 0 0 0 0 127 0" result="hardAlpha"/>
<feOffset/>
<feGaussianBlur stdDeviation="5"/>
<feComposite in2="hardAlpha" operator="arithmetic" k2="-1" k3="1"/>
<feColorMatrix type="matrix" values="0 0 0 0 0 0 0 0 0 0 0 0 0 0 0 0 0 0 0.75 0"/>
<feBlend mode="normal" in2="shape" result="effect1_innerShadow_33_421"/>
</filter>
<filter id="filter1_i_33_421" x="66.0508" y="185.669" width="109.167" height="34.3311" filterUnits="userSpaceOnUse" color-interpolation-filters="sRGB">
<feFlood flood-opacity="0" result="BackgroundImageFix"/>
<feBlend mode="normal" in="SourceGraphic" in2="BackgroundImageFix" result="shape"/>
<feColorMatrix in="SourceAlpha" type="matrix" values="0 0 0 0 0 0 0 0 0 0 0 0 0 0 0 0 0 0 127 0" result="hardAlpha"/>
<feOffset/>
<feGaussianBlur stdDeviation="5"/>
<feComposite in2="hardAlpha" operator="arithmetic" k2="-1" k3="1"/>
<feColorMatrix type="matrix" values="0 0 0 0 0 0 0 0 0 0 0 0 0 0 0 0 0 0 0.75 0"/>
<feBlend mode="normal" in2="shape" result="effect1_innerShadow_33_421"/>
</filter>
<filter id="filter2_i_33_421" x="147.496" y="47.3481" width="43.7358" height="63.9878" filterUnits="userSpaceOnUse" color-interpolation-filters="sRGB">
<feFlood flood-opacity="0" result="BackgroundImageFix"/>
<feBlend mode="normal" in="SourceGraphic" in2="BackgroundImageFix" result="shape"/>
<feColorMatrix in="SourceAlpha" type="matrix" values="0 0 0 0 0 0 0 0 0 0 0 0 0 0 0 0 0 0 127 0" result="hardAlpha"/>
<feOffset/>
<feGaussianBlur stdDeviation="5"/>
<feComposite in2="hardAlpha" operator="arithmetic" k2="-1" k3="1"/>
<feColorMatrix type="matrix" values="0 0 0 0 0 0 0 0 0 0 0 0 0 0 0 0 0 0 0.75 0"/>
<feBlend mode="normal" in2="shape" result="effect1_innerShadow_33_421"/>
</filter>
<filter id="filter3_i_33_421" x="49.6602" y="46.4878" width="43.6997" height="63.9907" filterUnits="userSpaceOnUse" color-interpolation-filters="sRGB">
<feFlood flood-opacity="0" result="BackgroundImageFix"/>
<feBlend mode="normal" in="SourceGraphic" in2="BackgroundImageFix" result="shape"/>
<feColorMatrix in="SourceAlpha" type="matrix" values="0 0 0 0 0 0 0 0 0 0 0 0 0 0 0 0 0 0 127 0" result="hardAlpha"/>
<feOffset/>
<feGaussianBlur stdDeviation="5"/>
<feComposite in2="hardAlpha" operator="arithmetic" k2="-1" k3="1"/>
<feColorMatrix type="matrix" values="0 0 0 0 0 0 0 0 0 0 0 0 0 0 0 0 0 0 0.75 0"/>
<feBlend mode="normal" in2="shape" result="effect1_innerShadow_33_421"/>
</filter>
<filter id="filter4_i_33_421" x="101.875" y="39.9727" width="38.2773" height="75.5024" filterUnits="userSpaceOnUse" color-interpolation-filters="sRGB">
<feFlood flood-opacity="0" result="BackgroundImageFix"/>
<feBlend mode="normal" in="SourceGraphic" in2="BackgroundImageFix" result="shape"/>
<feColorMatrix in="SourceAlpha" type="matrix" values="0 0 0 0 0 0 0 0 0 0 0 0 0 0 0 0 0 0 127 0" result="hardAlpha"/>
<feOffset/>
<feGaussianBlur stdDeviation="5"/>
<feComposite in2="hardAlpha" operator="arithmetic" k2="-1" k3="1"/>
<feColorMatrix type="matrix" values="0 0 0 0 0 0 0 0 0 0 0 0 0 0 0 0 0 0 0.75 0"/>
<feBlend mode="normal" in2="shape" result="effect1_innerShadow_33_421"/>
</filter>
<clipPath id="clip0_33_421">
<rect width="240" height="220" fill="white"/>
</clipPath>
</defs>
</svg>
