<svg width="267" height="120" viewBox="0 0 267 120" fill="none" xmlns="http://www.w3.org/2000/svg">
<g clip-path="url(#clip0_77_316)">
<path d="M55.6523 24.8838H46.3551L34.9868 53.3115L23.6983 24.8838H14.397L34.9868 76.5724L55.6523 24.8838Z" fill="white"/>
<path d="M76.494 24.8838H67.8564V76.5724H76.494V24.8838Z" fill="white"/>
<path d="M107.792 63.2877C118.346 63.2877 126.979 54.6484 126.979 44.092C126.979 33.5357 118.346 24.8838 107.792 24.8838C97.2391 24.8838 88.6016 33.5273 88.6016 44.092C88.6016 54.6568 97.2391 63.2877 107.792 63.2877ZM107.792 33.4516C113.695 33.4516 118.417 38.177 118.417 44.0878C118.417 49.9987 113.695 54.7156 107.792 54.7156C101.89 54.7156 97.1635 49.9945 97.1635 44.0878C97.1635 38.1812 101.886 33.4516 107.792 33.4516Z" fill="white"/>
<path d="M124.618 68.0254H90.5215V76.5722H124.618V68.0254Z" fill="white"/>
<path d="M166.857 67.9457H147.741V24.8838H139.108V76.5724H166.857V67.9457Z" fill="white"/>
<path d="M214.035 67.9457H188.202V55.0183H209.679V46.4463H188.202V33.5231H214.035V24.8838H179.573V76.5724H214.035V67.9457Z" fill="white"/>
<path d="M233.1 76.5724H241.662V33.5231H250.296V24.8838H224.463V33.5231H233.1V76.5724Z" fill="white"/>
<path d="M107.747 65.4651C119.506 65.4651 129.076 55.8925 129.076 44.1254C129.076 32.3583 119.506 22.7773 107.747 22.7773C95.9875 22.7773 86.4131 32.3583 86.4131 44.1254C86.4131 55.8925 95.9833 65.4651 107.747 65.4651ZM107.747 23.9587C118.875 23.9587 127.891 32.9889 127.891 44.1254C127.891 55.2619 118.875 64.2838 107.747 64.2838C96.6177 64.2838 87.5978 55.2493 87.5978 44.1254C87.5978 33.0016 96.6177 23.9587 107.747 23.9587Z" fill="white"/>
<path d="M0.222168 0V104.584C0.222168 105.399 0.88595 106.064 1.70097 106.064H63.5545C64.3695 106.064 65.0333 105.399 65.0333 104.584C65.0333 103.768 64.3737 103.104 63.5545 103.104H3.17558V2.95964H263.269V103.104H224.463C223.644 103.104 222.984 103.772 222.984 104.584C222.984 105.395 223.644 106.064 224.463 106.064H264.743C265.558 106.064 266.222 105.399 266.222 104.584V0H0.222168Z" fill="white"/>
<path d="M260.857 101.094V4.38477H4.23828V101.099C4.23828 101.427 4.50295 101.691 4.83064 101.691H72.6708C72.759 101.675 72.8347 101.658 72.9229 101.637C73.5741 101.33 74.3723 100.867 74.931 100.531L74.8638 100.666L74.784 100.745C74.2799 101.17 73.6203 101.75 73.0069 102.393C72.6582 102.751 72.3305 103.083 72.0112 103.411C71.818 103.604 71.6289 103.798 71.4399 103.995C70.5702 104.975 69.8014 105.879 69.0956 106.749C68.2848 107.754 67.6168 108.653 67.0581 109.498C66.4657 110.377 65.9826 111.209 65.6171 111.966C65.239 112.719 65.0583 113.353 65.0583 113.875V114.001C65.1886 114.724 65.6381 114.879 65.9952 114.879C66.0792 114.879 66.1716 114.867 66.2977 114.846C66.6044 114.728 66.8732 114.598 67.1043 114.442C67.348 114.291 67.6126 114.072 67.9109 113.774C68.4487 113.236 69.0368 112.571 69.6628 111.785C70.3056 110.978 70.9315 110.087 71.5743 109.057C71.902 108.485 72.1709 108.027 72.4314 107.598C72.7422 107.089 73.0363 106.614 73.343 106.143L73.7043 105.513C74.4101 105.677 75.2209 105.504 76.1242 104.966C77.019 104.453 77.8592 103.772 78.6238 102.948L78.7877 102.784H78.8339L78.8843 102.772C79.9304 102.377 81.1025 101.914 82.2158 101.469C83.2955 101.036 84.2156 100.539 85.0096 99.993L85.4759 99.7239C85.2911 100.043 85.1272 100.376 84.9886 100.699C84.7701 101.212 84.6147 101.662 84.5139 102.07C84.4214 102.309 84.4929 102.528 84.6945 102.646C84.7827 102.709 84.8668 102.742 84.955 102.742C85.0432 102.742 85.1776 102.709 85.2911 102.532C85.875 102.019 86.585 101.511 87.4085 101.015C88.3285 100.476 89.1267 100.056 89.8409 99.7281C90.6097 99.3623 91.2735 99.1101 91.8113 98.9756C92.0003 98.9293 92.1558 98.9125 92.2776 98.9125C92.4456 98.9125 92.496 98.9546 92.5128 98.9882C92.4414 99.1774 92.2986 99.4212 92.1053 99.6903C91.8533 100.031 91.618 100.338 91.3827 100.619C91.1181 100.935 90.8996 101.258 90.7358 101.586C90.5635 101.939 90.5383 102.242 90.6601 102.49C90.7862 102.793 91.0887 102.94 91.5508 102.94C91.9541 102.94 92.4288 102.847 93.0044 102.663C93.5673 102.482 94.1639 102.259 94.7815 101.994C95.4158 101.717 96.0334 101.422 96.6132 101.124C96.8736 100.989 97.1341 100.838 97.3946 100.695C97.3694 100.788 97.3274 100.876 97.3148 100.968C97.2391 101.494 97.4282 101.952 97.8819 102.322C98.1844 102.599 98.6549 102.751 99.3229 102.793H99.4321C100.05 102.793 100.777 102.524 101.65 101.952C102.133 102.061 102.738 102.045 103.44 101.918C104.133 101.809 104.86 101.624 105.595 101.372C106.255 101.145 106.935 100.876 107.616 100.556C107.818 100.46 107.973 100.376 108.141 100.287C108.087 100.418 108.032 100.552 108.002 100.678C107.952 100.918 107.923 101.153 107.923 101.393C107.923 101.817 108.049 102.158 108.301 102.402C108.549 102.663 108.885 102.822 109.271 102.873C109.616 102.99 110.032 103.045 110.511 103.045C110.99 103.045 111.527 102.99 112.132 102.877C113.33 102.671 114.569 102.364 115.817 101.969C116.959 101.599 118.068 101.187 119.123 100.741C119.106 100.817 119.064 100.888 119.056 100.964C118.98 101.49 119.173 101.948 119.623 102.318C119.925 102.595 120.396 102.747 121.064 102.789H121.173C121.795 102.789 122.517 102.52 123.391 101.948C123.879 102.057 124.479 102.04 125.185 101.914C125.878 101.805 126.605 101.62 127.34 101.368C127.529 101.305 127.727 101.208 127.92 101.132C127.639 101.637 127.63 102.141 127.908 102.578C128.256 103.352 129.008 103.537 130.151 103.087C131.012 102.734 132.104 101.96 133.398 100.775C132.747 101.733 132.083 102.709 131.407 103.688C130.428 105.118 129.294 106.589 128.013 108.086L127.929 108.254L126.609 109.065C125.038 110.083 123.543 111.071 122.16 112.012C120.82 112.916 119.585 113.82 118.48 114.699C117.459 115.518 116.581 116.305 115.867 117.032C115.153 117.759 114.792 118.415 114.792 118.983V119.117C114.909 119.55 115.136 119.823 115.464 119.937C115.632 119.983 115.8 120.008 115.968 120.008C116.123 120.008 116.279 119.992 116.434 119.95C116.758 119.849 117.115 119.668 117.484 119.407C117.85 119.163 118.274 118.89 118.762 118.587C119.715 117.94 120.757 117.095 121.854 116.069C123.043 114.947 124.219 113.786 125.345 112.613L127.008 110.759L128.664 108.99L131.873 107.022C133.247 106.139 134.356 105.441 135.356 104.819C136.499 104.104 137.591 103.423 138.633 102.789C139.646 102.154 140.603 101.544 141.469 100.981C141.801 100.766 142.086 100.573 142.372 100.384C142.38 100.384 142.397 100.384 142.406 100.384H142.452L142.486 100.354C142.796 100.148 143.233 99.8794 143.779 99.5305C144.284 99.211 144.968 98.7738 145.859 98.1768C145.93 98.3996 145.989 98.5972 146.031 98.7654C146.086 98.9798 146.208 99.232 146.418 99.5515C145.935 100.073 145.548 100.611 145.237 101.178C144.901 101.801 144.893 102.351 145.204 102.822C145.456 103.138 145.888 103.302 146.485 103.302C146.695 103.302 146.93 103.285 147.187 103.247C148.132 103.108 149.136 102.831 150.178 102.431C150.997 102.129 151.82 101.771 152.657 101.368C152.602 101.511 152.53 101.654 152.501 101.801C152.383 102.356 152.564 102.789 153.039 103.079C153.173 103.159 153.35 103.201 153.556 103.201C153.724 103.201 153.921 103.175 154.144 103.117C154.656 102.978 155.169 102.789 155.673 102.562C156.32 102.267 156.837 101.994 157.307 101.691C157.694 101.439 158.009 101.229 158.282 101.044C158.244 101.25 158.248 101.46 158.303 101.679C158.404 102.078 158.677 102.339 159.109 102.452C159.509 102.578 160.021 102.524 160.685 102.305C161.248 102.112 161.849 101.86 162.525 101.527C162.941 101.3 163.369 101.048 163.798 100.796C163.815 100.796 163.823 100.804 163.84 100.804H163.899L163.945 100.758C163.987 100.716 164.079 100.653 164.147 100.598C164.176 100.582 164.205 100.569 164.231 100.548C164.542 100.346 164.785 100.195 164.991 100.069C164.966 100.144 164.945 100.22 164.941 100.304L164.76 100.67L164.68 100.75C164.176 101.174 163.516 101.754 162.903 102.398C162.508 102.81 162.13 103.192 161.769 103.558L161.34 103.999C160.471 104.979 159.702 105.883 158.992 106.753C158.181 107.762 157.513 108.657 156.954 109.502C156.366 110.381 155.883 111.214 155.513 111.97C155.135 112.731 154.955 113.362 154.955 113.879V114.009C155.085 114.728 155.539 114.884 155.891 114.884C155.975 114.884 156.064 114.871 156.19 114.85C156.505 114.732 156.769 114.598 157.001 114.446C157.244 114.295 157.509 114.076 157.803 113.778C158.336 113.244 158.925 112.576 159.559 111.789C160.21 110.97 160.853 110.049 161.471 109.061C161.748 108.573 162.033 108.09 162.328 107.602C162.622 107.123 162.924 106.64 163.239 106.148L163.596 105.517C164.302 105.681 165.121 105.509 166.02 104.971C166.915 104.453 167.755 103.768 168.516 102.953L168.684 102.789L168.781 102.776C169.822 102.385 170.995 101.918 172.112 101.473C173.179 101.044 174.078 100.556 174.855 100.027L175.376 99.7239C175.191 100.043 175.028 100.371 174.885 100.699C174.666 101.216 174.511 101.67 174.414 102.061C174.322 102.309 174.389 102.528 174.599 102.646C174.687 102.709 174.771 102.742 174.86 102.742C174.952 102.742 175.082 102.709 175.191 102.532C175.78 102.019 176.49 101.506 177.313 101.015C178.233 100.476 179.031 100.056 179.746 99.7281C180.514 99.3623 181.182 99.1101 181.72 98.9756C181.909 98.9293 182.065 98.9125 182.182 98.9125C182.35 98.9125 182.401 98.9546 182.422 98.9882C182.35 99.1774 182.212 99.4212 182.018 99.6903C181.783 100.01 181.544 100.321 181.296 100.619C181.035 100.926 180.817 101.25 180.649 101.586C180.472 101.939 180.447 102.242 180.573 102.49C180.699 102.793 180.997 102.94 181.46 102.94C181.863 102.94 182.342 102.847 182.909 102.663C183.48 102.478 184.081 102.251 184.686 101.994C185.123 101.801 185.539 101.595 185.955 101.389C186.064 101.611 186.203 101.826 186.404 102.019C186.719 102.301 187.093 102.536 187.513 102.696C187.934 102.86 188.392 102.936 188.921 102.936C189.673 102.936 190.442 102.839 191.215 102.641C191.996 102.457 192.773 102.213 193.525 101.91C194.218 101.637 194.924 101.317 195.672 100.918C196.344 100.552 196.937 100.191 197.441 99.8332C197.47 99.808 197.479 99.7827 197.504 99.7575C197.647 99.6818 197.802 99.5936 197.995 99.4759C198.331 99.2699 198.575 99.0933 198.785 98.9209L199.02 98.7444C199.092 98.6939 199.151 98.6477 199.201 98.6056C199.474 98.8579 199.819 99.0554 200.26 99.211C200.705 99.3581 201.092 99.3876 201.44 99.3203C201.713 100.502 202.352 101.422 203.343 102.053C204.373 102.709 205.57 103.133 206.914 103.302C207.385 103.365 207.868 103.394 208.355 103.394C209.246 103.394 210.187 103.293 211.153 103.091C212.519 102.801 213.741 102.314 214.808 101.658C214.863 101.675 214.913 101.691 214.972 101.691H260.286C260.613 101.691 260.878 101.427 260.878 101.099L260.857 101.094ZM125.454 111.037C125.341 111.163 125.227 111.289 125.118 111.42C124.942 111.617 124.765 111.815 124.605 112.004C123.463 113.139 122.299 114.257 121.152 115.304C120.165 116.2 119.157 117.045 118.169 117.822C117.287 118.487 116.627 118.844 116.119 118.936C115.951 119.008 115.863 119.029 115.812 119.033C115.808 119.012 115.804 118.999 115.804 118.978V118.798C115.972 118.436 116.3 117.999 116.804 117.465C117.325 116.906 118.089 116.229 119.077 115.443C119.804 114.871 120.648 114.253 121.723 113.496C122.702 112.819 123.765 112.113 124.895 111.386L125.542 110.94C125.513 110.974 125.483 111.003 125.454 111.037ZM73.5153 103.579L73.4438 103.642C73.1287 103.856 72.8977 104.092 72.7716 104.327L72.7548 104.71L72.8431 104.924L72.57 105.567L70.6963 108.481C70.1249 109.414 69.52 110.284 68.8394 111.155C68.1882 111.962 67.6504 112.58 67.1841 113.042C66.4699 113.749 66.2137 113.824 66.1422 113.824H66.0288L65.9994 113.77L66.0708 113.622L66.0834 113.58C66.1506 113.143 66.3649 112.58 66.7136 111.907C67.0707 111.226 67.5328 110.486 68.0832 109.717C68.6041 108.977 69.2217 108.166 69.9527 107.241C70.6207 106.404 71.3475 105.576 72.1961 104.693C72.4103 104.386 72.6372 104.155 72.801 103.983C72.9313 103.856 73.0573 103.73 73.1834 103.596L73.4186 103.352L73.8555 102.957L73.5195 103.575L73.5153 103.579ZM76.6661 103.453C76.0695 103.911 75.4898 104.26 74.952 104.491C74.6706 104.617 74.4227 104.676 74.2084 104.676H74.1244L74.2757 104.285L74.5277 104.109C74.6201 104.079 74.7168 104.05 74.8176 104.02C75.0361 103.953 75.2671 103.877 75.515 103.819C75.9225 103.701 76.351 103.529 76.6829 103.394L76.7711 103.381L76.6619 103.457L76.6661 103.453ZM79.6531 99.7743C79.4977 100.27 79.1196 100.914 78.523 101.683L78.2415 101.868L77.019 102.284C76.8888 102.322 76.7543 102.372 76.6241 102.41C76.4392 102.473 76.2502 102.532 76.0527 102.587C75.7251 102.705 75.4226 102.805 75.1747 102.894L75.0025 102.919C75.0739 102.73 75.1411 102.553 75.2041 102.398C75.2923 102.166 75.368 101.956 75.4268 101.767L75.7293 101.263L75.8217 101.17C76.0233 100.977 76.2124 100.821 76.3972 100.703C76.5989 100.573 76.7879 100.413 76.9476 100.254C78.4684 99.1606 79.0902 98.9293 79.3422 98.9293C79.3969 98.9293 79.4305 98.9419 79.4473 98.963L79.4767 99.005L79.5271 99.0218C79.6069 99.0512 79.859 99.1395 79.6657 99.7785L79.6531 99.7743ZM100.739 101.384C100.205 101.633 99.7094 101.754 99.2767 101.754C98.844 101.754 98.5625 101.633 98.4827 101.384C98.3609 101.023 98.4869 100.598 98.8608 100.132C99.3397 99.808 99.743 99.5263 100.121 99.2278C100.356 99.0512 100.587 98.8705 100.802 98.6981C100.55 99.1647 100.403 99.6272 100.352 100.115C100.306 100.611 100.436 101.04 100.743 101.384H100.739ZM102.23 99.9635C101.986 100.279 101.743 100.548 101.503 100.766C101.348 100.619 101.297 100.413 101.348 100.123C101.419 99.7365 101.562 99.3539 101.768 99.0092C102.003 98.614 102.264 98.2861 102.549 98.0297C102.797 97.7858 103.016 97.6723 103.201 97.6723H103.243C103.285 97.6849 103.293 97.8026 103.268 97.9708C103.213 98.2314 103.091 98.5552 102.919 98.8873C102.738 99.2362 102.512 99.5852 102.23 99.9635ZM122.48 101.384C121.946 101.633 121.45 101.754 121.018 101.754C120.585 101.754 120.303 101.633 120.224 101.384C120.102 101.023 120.232 100.598 120.602 100.132C121.081 99.808 121.48 99.5263 121.862 99.2278C122.106 99.0428 122.328 98.8663 122.543 98.6981C122.291 99.1647 122.144 99.6272 122.093 100.115C122.047 100.611 122.177 101.04 122.484 101.384H122.48ZM123.971 99.9635C123.732 100.27 123.488 100.544 123.244 100.766C123.089 100.619 123.038 100.413 123.089 100.123C123.156 99.7491 123.299 99.3623 123.509 99.0092C123.744 98.614 124.005 98.2861 124.29 98.0297C124.538 97.7858 124.757 97.6723 124.942 97.6723H124.988C125.03 97.6849 125.038 97.8026 125.009 97.9708C124.954 98.2399 124.832 98.5552 124.652 98.8873C124.479 99.2278 124.253 99.5852 123.967 99.9635H123.971ZM157.988 100.06C157.421 100.464 156.879 100.813 156.337 101.12C155.849 101.393 155.274 101.708 154.711 101.944C154.253 102.15 153.871 102.234 153.581 102.171C153.518 102.124 153.417 102.002 153.581 101.683C153.732 101.363 153.98 101.027 154.333 100.682C154.476 100.539 154.635 100.405 154.795 100.275C155.005 100.157 155.194 100.052 155.345 99.9593C155.425 99.9425 155.518 99.8836 155.576 99.7365C156.034 99.4758 156.463 99.3413 156.853 99.3413C157.328 99.3413 157.53 99.4254 157.618 99.4927C157.774 99.6188 157.937 99.7239 158.122 99.8332C158.156 99.8542 158.194 99.8794 158.236 99.892C158.156 99.9467 158.076 100.006 157.988 100.06ZM163.395 103.579L163.327 103.642C163.004 103.856 162.769 104.092 162.651 104.332L162.638 104.706L162.727 104.92L162.449 105.563L160.576 108.477C160 109.414 159.391 110.293 158.715 111.15C158.055 111.966 157.513 112.588 157.059 113.038C156.328 113.77 156.076 113.82 156.017 113.82H155.904L155.875 113.765L155.946 113.627L155.959 113.58C156.022 113.143 156.236 112.58 156.593 111.907C156.95 111.226 157.412 110.486 157.958 109.717C158.484 108.973 159.097 108.166 159.828 107.241C160.487 106.408 161.218 105.584 162.063 104.693C162.244 104.449 162.437 104.226 162.672 103.983C162.802 103.852 162.937 103.714 163.067 103.583L163.29 103.352L163.727 102.965L163.39 103.575L163.395 103.579ZM166.546 103.453C165.949 103.911 165.373 104.26 164.831 104.491C164.55 104.617 164.298 104.676 164.084 104.676H164.004L164.155 104.285L164.411 104.109L164.68 104.025C164.903 103.957 165.147 103.882 165.399 103.819C165.798 103.701 166.214 103.537 166.567 103.394L166.655 103.381L166.546 103.457V103.453ZM169.541 99.7743C169.385 100.27 169.003 100.914 168.407 101.683L168.129 101.868L166.907 102.284C166.777 102.322 166.634 102.372 166.495 102.414C166.319 102.473 166.13 102.532 165.936 102.587C165.609 102.705 165.306 102.805 165.058 102.894L164.886 102.919C164.957 102.73 165.025 102.553 165.088 102.398C165.176 102.166 165.252 101.956 165.31 101.767L165.6 101.275L165.705 101.17C165.915 100.964 166.1 100.813 166.277 100.703C166.474 100.577 166.659 100.426 166.827 100.254C168.352 99.1606 168.97 98.9293 169.217 98.9293C169.297 98.9293 169.314 98.9588 169.322 98.963L169.352 99.0134L169.402 99.0218C169.491 99.0554 169.73 99.1311 169.545 99.7785L169.541 99.7743ZM259.677 100.506H214.955C214.846 100.506 214.754 100.544 214.665 100.59C214.632 100.603 214.602 100.598 214.565 100.619C213.325 101.397 211.968 101.931 210.532 102.196C209.086 102.44 207.771 102.469 206.599 102.276C205.381 102.057 204.41 101.633 203.625 100.989C202.848 100.371 202.436 99.5557 202.407 98.5636C202.407 98.4921 202.377 98.2525 202.012 98.2525C201.902 98.2525 201.768 98.2735 201.592 98.3155C201.142 98.4459 200.739 98.429 200.415 98.3029C200.146 98.1852 199.957 98.0675 199.852 97.954C200.029 97.7564 200.13 97.6135 200.167 97.4831C200.209 97.3192 200.205 97.2015 200.159 97.1006C200.033 96.8021 199.684 96.8021 199.575 96.8021C199.529 96.8021 199.487 96.8021 199.432 96.8021C199.172 96.8315 198.844 97.0081 198.739 97.6975C198.495 97.8993 198.163 98.1306 197.672 98.4669L197.537 98.5636C197.323 98.7149 197.138 98.8494 196.97 98.9714C196.92 98.9966 196.869 99.026 196.823 99.0639C195.882 99.6861 194.769 100.291 193.513 100.842C192.236 101.418 190.937 101.788 189.656 101.965C188.946 102.04 188.328 101.986 187.808 101.767C187.345 101.553 187.035 101.271 186.858 100.905C186.887 100.888 186.913 100.876 186.942 100.859C187.093 100.809 187.287 100.733 187.543 100.628C187.976 100.443 188.4 100.237 188.828 99.9887C189.244 99.7617 189.622 99.4843 189.963 99.1605C190.286 98.8242 190.425 98.4795 190.387 98.1264C190.345 97.7522 190.101 97.4915 189.706 97.3991C189.354 97.2982 188.98 97.2982 188.543 97.3738C188.043 97.4831 187.53 97.7396 187.026 98.1348C186.522 98.5299 186.156 99.005 185.946 99.5431C185.846 99.7785 185.783 100.006 185.749 100.224C185.69 100.249 185.64 100.275 185.581 100.3C185.304 100.422 185.035 100.552 184.766 100.67C184.522 100.788 184.283 100.893 184.048 101.006L183.732 101.145C183.375 101.309 183.073 101.443 182.8 101.54C182.128 101.822 181.825 101.893 181.661 101.897C181.661 101.834 181.716 101.675 181.96 101.326C182.233 100.943 182.535 100.548 182.892 100.106C183.287 99.6146 183.464 99.2026 183.417 98.841C183.3 98.2272 182.892 97.8951 182.249 97.8951C181.829 97.8489 181.317 97.9498 180.699 98.1894C180.077 98.4122 179.435 98.6981 178.788 99.026C178.086 99.3834 177.469 99.7197 176.906 100.052C176.611 100.224 176.364 100.38 176.154 100.518L177.254 98.5552C178.023 97.9876 178.678 97.542 179.199 97.2225C179.514 97.0165 179.825 96.8105 180.132 96.5919C183.178 94.7337 185.228 93.1782 186.224 91.9632C186.959 91.0762 187.287 90.4077 187.224 89.9201C187.194 89.7015 187.089 89.5165 186.904 89.3862C186.589 89.1507 186.169 89.0877 185.678 89.26C185.22 89.3946 184.737 89.6132 184.237 89.8907C183.808 90.1681 183.338 90.4918 182.821 90.845L182.619 90.9837C182.044 91.3873 181.426 91.9002 180.787 92.5098C179.977 93.2833 179.174 94.1493 178.405 95.0826C177.666 95.9781 176.994 96.8988 176.41 97.8279L176.204 97.9582C175.868 98.181 175.557 98.387 175.267 98.5888C174.881 98.8368 174.523 99.0554 174.145 99.2656C174.12 99.2825 174.108 99.3161 174.082 99.3329C173.574 99.6356 173.007 99.9383 172.343 100.245C171.536 100.615 170.734 100.972 169.932 101.321L169.759 101.355L169.978 101.027C170.377 100.409 170.6 99.8626 170.65 99.3455C170.713 98.8158 170.461 98.3534 169.923 98.0086C169.465 97.7816 168.877 97.8531 168.176 98.2146C167.558 98.5384 166.861 98.9882 166.125 99.5305C166.146 99.4128 166.151 99.2951 166.151 99.1774V98.5552C166.151 98.4122 166.096 98.1642 165.726 98.1179H165.684C165.52 98.1179 165.298 98.181 165.134 98.5047C165.084 98.6477 164.966 98.7948 164.81 98.9461C164.798 98.9503 164.789 98.9461 164.773 98.9546C164.672 99.0302 164.424 99.1984 163.79 99.5767C163.273 99.8878 162.718 100.199 162.134 100.502C161.576 100.804 161.017 101.065 160.429 101.305C159.933 101.511 159.555 101.586 159.349 101.49C159.185 101.427 159.173 101.2 159.303 100.821C159.441 100.384 159.731 100.01 160.16 99.7113C160.391 99.5263 160.429 99.2741 160.273 99.0008C160.172 98.8284 160.03 98.7948 159.929 98.7948C159.765 98.7948 159.576 98.8873 159.357 99.0597L159.252 99.1437C159.109 99.2404 158.958 99.3581 158.799 99.4716C158.79 99.4002 158.765 99.3455 158.744 99.3245C158.622 99.0807 158.387 98.8705 158.03 98.6771C157.685 98.4963 157.286 98.4038 156.845 98.4038C156.198 98.4038 155.547 98.5972 154.892 98.9672C154.581 99.1521 154.295 99.3497 154.035 99.5557C153.85 99.6482 153.661 99.7449 153.43 99.85C152.858 100.102 152.236 100.384 151.581 100.682C150.951 100.964 150.3 101.229 149.585 101.485C148.976 101.704 148.376 101.906 147.754 102.082C147.191 102.238 146.75 102.305 146.414 102.305C146.136 102.305 145.985 102.234 145.964 102.099C145.964 101.712 146.132 101.33 146.477 100.939C146.821 100.544 147.149 100.203 147.443 99.9383C147.527 99.9173 147.569 99.8752 147.59 99.8374C147.657 99.7281 147.636 99.5725 147.497 99.2993C146.989 98.5972 146.716 97.9876 146.695 97.4831L147.88 96.5835C148.552 96.1126 149.023 95.7469 149.296 95.5241C149.501 95.3517 149.758 95.1415 150.06 94.8935L150.543 94.5025C151.026 94.0905 151.295 93.7163 151.371 93.3506C151.421 93.1193 151.405 92.947 151.316 92.8167C151.245 92.7116 151.132 92.6485 150.984 92.6317C150.653 92.5854 150.228 92.6695 149.64 92.8923C149.107 93.0983 148.56 93.3926 148.023 93.7626C147.506 94.1325 147.023 94.5739 146.586 95.0952C146.162 95.6207 145.884 96.1757 145.783 96.7348L145.695 96.9997L145.099 97.4033C144.813 97.6009 144.557 97.7732 144.33 97.9288C144.04 98.1264 143.775 98.3029 143.54 98.4627L143.338 98.593C143.229 98.5972 143.12 98.6393 143.023 98.7444C142.893 98.841 142.742 98.9461 142.603 99.047C142.591 99.0512 142.578 99.0639 142.57 99.0681C142.33 99.211 142.145 99.3455 141.973 99.4843C141.965 99.4927 141.965 99.5011 141.956 99.5095C141.616 99.7407 141.259 99.9719 140.872 100.212C140.019 100.758 139.057 101.347 138.045 101.969C137.625 102.217 137.2 102.465 136.768 102.726C136.121 103.112 135.457 103.512 134.768 103.907C133.537 104.643 132.399 105.336 131.281 106.026L130.491 106.551C131.84 104.819 132.886 103.335 133.596 102.133C134.411 100.758 135.058 99.6608 135.545 98.8284C135.612 98.7149 135.734 98.4164 135.339 98.1516C135.222 98.0843 135.113 98.0507 135.016 98.0507C134.919 98.0507 134.772 98.0843 134.688 98.2357C134.155 98.7696 133.621 99.2783 133.054 99.7869C132.436 100.354 131.827 100.851 131.247 101.254C130.626 101.704 130.101 102.023 129.63 102.238C129.214 102.431 128.924 102.469 128.752 102.293C128.634 102.187 128.5 102.002 128.71 101.611C128.886 101.263 129.206 100.893 129.685 100.485C129.857 100.338 130.071 100.186 130.281 100.039C130.491 99.9215 130.68 99.8038 130.84 99.6903C130.853 99.6777 130.861 99.6608 130.874 99.6482C131.088 99.5137 131.289 99.3834 131.533 99.2488C132.327 98.8284 133.155 98.4627 134.029 98.1642C134.289 98.0339 134.424 97.8068 134.424 97.5126L134.407 97.4411C134.31 97.2519 134.087 97.151 133.756 97.151L133.701 97.1636C132.978 97.4537 132.231 97.8026 131.479 98.1852C130.966 98.4417 130.483 98.7402 130.021 99.047C129.769 99.2026 129.466 99.3708 129.063 99.5599C128.454 99.8416 127.832 100.098 127.227 100.304C126.668 100.51 126.08 100.687 125.37 100.88C124.967 100.977 124.626 101.027 124.349 101.036C124.454 100.935 124.572 100.796 124.715 100.619C124.992 100.275 125.252 99.8836 125.483 99.4506C125.71 99.0302 125.874 98.593 125.962 98.1642C126.059 97.706 125.988 97.315 125.744 96.9913C125.597 96.8483 125.5 96.7853 125.425 96.7727C125.341 96.7432 125.257 96.739 125.168 96.739C125.11 96.7348 125.063 96.739 125.009 96.739C124.618 96.739 124.206 96.9072 123.778 97.2351C123.534 97.4201 123.307 97.6303 123.106 97.8657C123.101 97.8363 123.089 97.8069 123.08 97.7858C123.064 97.6471 122.959 97.5126 122.702 97.5126C122.53 97.5126 122.391 97.542 122.312 97.5798C121.921 97.727 121.471 97.9708 120.971 98.324C120.602 98.593 120.278 98.8957 119.98 99.2152C119.846 99.2825 119.703 99.3539 119.543 99.4338C118.812 99.7701 118.01 100.09 117.161 100.388C116.094 100.754 115.199 101.044 114.359 101.296C113.342 101.603 112.473 101.801 111.704 101.897C110.889 101.994 110.233 102.015 109.717 101.923C109.25 101.851 109.011 101.649 108.986 101.313C108.986 101.052 109.091 100.691 109.284 100.254C109.473 99.8122 109.687 99.4632 109.914 99.1942C111.225 98.5341 112.502 97.7564 113.708 96.8736C114.93 95.9823 116.128 95.0616 117.258 94.1199C117.959 94.1199 118.711 94.1367 119.539 94.1788C120.392 94.2124 121.148 94.267 121.849 94.3217C121.984 94.3721 122.123 94.3848 122.249 94.3848C122.597 94.3848 122.799 94.3007 122.862 94.1157C122.912 93.8803 122.812 93.6659 122.589 93.5313L122.211 93.4136L118.405 93.1193C119.098 92.5014 119.69 91.9296 120.177 91.4167C120.719 90.8323 121.022 90.3573 121.102 89.9159C121.102 89.7771 121.047 89.6342 120.946 89.5039C120.833 89.3357 120.665 89.2474 120.434 89.2474C120.098 89.2474 119.665 89.3946 119.064 89.7057C118.505 90.0126 117.917 90.3741 117.312 90.7903C116.758 91.1519 116.191 91.5597 115.531 92.0683C114.981 92.4845 114.552 92.8251 114.237 93.0941C113.082 93.0983 111.863 93.1236 110.41 93.1782C109.179 93.2244 108.099 93.3085 107.217 93.4178C107.078 93.4178 106.977 93.4431 106.902 93.4725C106.612 93.5902 106.549 93.8088 106.549 93.9686C106.549 94.2755 106.755 94.431 107.078 94.3806H107.129C107.33 94.3469 107.469 94.3301 107.545 94.3259C108.49 94.225 109.385 94.1619 110.284 94.1577C111.174 94.1367 112.115 94.1241 113.09 94.1241C112.17 95.0238 111.426 95.7889 110.821 96.4531C110.145 97.2057 109.599 97.8783 109.191 98.4501L107.242 99.5809L107.213 99.602C107.213 99.602 107.204 99.6146 107.2 99.6188C106.612 99.8921 106.045 100.119 105.473 100.312C104.902 100.518 104.314 100.703 103.616 100.888C103.213 100.985 102.873 101.036 102.6 101.044C102.705 100.935 102.822 100.804 102.961 100.628C103.238 100.283 103.495 99.892 103.73 99.459C103.957 99.0386 104.121 98.6014 104.209 98.1726C104.305 97.7144 104.234 97.3234 103.99 96.9997C103.848 96.8567 103.747 96.7937 103.671 96.7811C103.587 96.7516 103.503 96.7474 103.415 96.7474C103.36 96.7432 103.31 96.7474 103.259 96.7474C102.869 96.7474 102.457 96.9156 102.024 97.2435C101.781 97.4285 101.558 97.6387 101.352 97.8741C101.348 97.8447 101.339 97.8153 101.327 97.7942C101.314 97.6555 101.209 97.521 100.949 97.521C100.781 97.521 100.638 97.5504 100.558 97.5882C100.163 97.7354 99.7262 97.9792 99.2221 98.3324C98.991 98.4963 98.781 98.6771 98.5793 98.8621C98.218 99.0933 97.7769 99.3329 97.2601 99.5683C96.7434 99.8122 96.2183 100.052 95.6847 100.296C95.378 100.43 95.084 100.569 94.7983 100.699C94.5756 100.804 94.3572 100.901 94.1471 100.998L93.8572 101.124C93.4917 101.292 93.1766 101.435 92.8994 101.536C92.1852 101.834 91.8911 101.902 91.7692 101.902H91.765C91.765 101.83 91.8155 101.679 92.0633 101.326C92.3112 100.981 92.6137 100.582 92.996 100.106C93.3867 99.6188 93.5631 99.211 93.5169 98.841C93.4035 98.2272 92.9918 97.8951 92.349 97.8951C91.9331 97.8615 91.4164 97.9498 90.7988 98.1894C90.1896 98.408 89.5468 98.6897 88.8873 99.026C88.1605 99.396 87.5471 99.7323 87.0051 100.052C86.7111 100.224 86.4632 100.38 86.2531 100.518L87.3496 98.5552C88.1353 97.9792 88.7864 97.5336 89.2948 97.2225C89.6099 97.0165 89.9207 96.8105 90.2274 96.5919C93.2733 94.7337 95.3234 93.1782 96.3191 91.9632C97.0543 91.0762 97.382 90.4077 97.319 89.9201C97.2896 89.7015 97.1845 89.5165 96.9997 89.3778C96.6804 89.1465 96.2645 89.0877 95.7729 89.26C95.3066 89.3946 94.8277 89.6132 94.3319 89.8907C93.895 90.1765 93.4119 90.5044 92.8994 90.8576L92.7103 90.9837C92.1347 91.3957 91.5172 91.9086 90.8786 92.5098C90.051 93.3001 89.2528 94.1577 88.4966 95.0826C87.7698 95.9529 87.0976 96.882 86.501 97.8279L86.2952 97.9582C85.9633 98.181 85.6482 98.387 85.3583 98.5888C85.0096 98.8158 84.6357 99.047 84.2408 99.2656C84.2114 99.2825 84.203 99.3119 84.1778 99.3329C83.6694 99.6314 83.1065 99.9383 82.4385 100.245C81.6613 100.603 80.8883 100.943 80.027 101.321L79.859 101.355L80.0774 101.027C80.4766 100.409 80.695 99.8626 80.7496 99.3455C80.8084 98.8158 80.5606 98.3534 80.0186 98.0086C79.5607 97.7816 78.9683 97.8531 78.271 98.2146C77.6576 98.5384 76.9602 98.9882 76.2208 99.5305C76.2376 99.4128 76.246 99.2951 76.246 99.1774V98.5552C76.246 98.4122 76.1956 98.1642 75.8259 98.1179H75.7839C75.62 98.1179 75.3932 98.181 75.2335 98.5047C75.1453 98.7528 74.8848 99.0218 74.4815 99.2909C74.0656 99.5767 73.7505 99.7785 73.5363 99.8836C73.4144 99.9425 73.3472 100.01 73.301 100.081C73.0321 100.233 72.759 100.376 72.507 100.497H5.4188V5.5619H259.677V100.51V100.506ZM187.072 99.623C187.261 99.3413 187.488 99.0681 187.791 98.8032C188.219 98.4375 188.66 98.2567 189.106 98.2567C189.186 98.2567 189.27 98.2609 189.349 98.2735C189.307 98.4038 189.198 98.5468 189.03 98.6939C188.984 98.7317 188.917 98.7654 188.87 98.8032C188.841 98.799 188.807 98.7822 188.786 98.7822C188.702 98.7822 188.61 98.8074 188.509 98.8579C188.131 99.1017 187.686 99.3371 187.169 99.5809C187.14 99.5978 187.106 99.6104 187.072 99.623ZM178.502 96.512C179.052 95.7595 179.792 94.9061 180.703 93.9559C181.838 92.7788 183.186 91.711 184.711 90.7819C185.413 90.3237 185.774 90.1513 185.951 90.0882C186.081 90.0462 186.186 90.0336 186.253 90.0336C186.283 90.0336 186.291 90.0378 186.291 90.0294C186.421 90.2522 186.127 90.6516 185.854 90.9459C185.367 91.4587 184.753 92.0221 184.018 92.6191C183.27 93.2413 182.468 93.8424 181.56 94.4604C180.779 94.9986 180.086 95.4736 179.485 95.8856L178.506 96.512H178.502ZM115.838 94.1325C115.149 94.6412 114.464 95.1247 113.754 95.6039C113.09 96.0622 112.355 96.5667 111.548 97.1258C112.296 96.306 112.851 95.7301 113.262 95.3391C113.703 94.9229 114.065 94.595 114.35 94.3343L114.573 94.1325H115.838ZM115.67 93.1025C116.569 92.4131 117.333 91.8792 118.001 91.484C118.648 91.0888 119.22 90.7777 119.682 90.5591C119.43 90.8534 119.119 91.1855 118.749 91.5428C118.232 92.0431 117.678 92.5602 117.06 93.1025H115.67ZM88.6184 96.512C89.1729 95.7553 89.9165 94.8934 90.824 93.9559C91.9583 92.7788 93.3027 91.711 94.8277 90.7819C95.5293 90.3237 95.8906 90.1513 96.0712 90.0882C96.2057 90.0462 96.3065 90.0336 96.3695 90.0336C96.3989 90.0336 96.4115 90.0378 96.4115 90.0294C96.5418 90.2522 96.2435 90.6516 95.9704 90.9459C95.5041 91.4419 94.8865 92.0053 94.1387 92.6191C93.3909 93.2413 92.5885 93.8424 91.681 94.4604L89.3746 96.0496L88.6226 96.512H88.6184Z" fill="white"/>
</g>
<defs>
<clipPath id="clip0_77_316">
<rect width="266" height="120" fill="white" transform="translate(0.222168)"/>
</clipPath>
</defs>
</svg>
