<svg width="80" height="80" viewBox="0 0 80 80" fill="none" xmlns="http://www.w3.org/2000/svg">
<g clip-path="url(#clip0_10_429)">
<path d="M43.936 61.6276C44.5039 62.0968 44.897 62.5139 45.1138 62.9421C45.3093 63.3284 45.3888 63.7771 45.2114 64.404C44.9692 65.2593 44.4064 65.7581 43.811 65.9313C43.256 66.0928 42.5902 65.9961 41.9897 65.4968L41.8706 65.3923C41.3093 64.8637 40.7278 64.3277 40.1157 63.819C40.1173 63.8153 40.1189 63.8112 40.1206 63.8073L40.1196 63.8063C40.8866 62.0478 41.0202 60.3004 40.4888 58.7565L43.936 61.6276ZM11.3354 14.0241C11.4493 14.0687 11.6189 14.1534 11.8823 14.3093C13.7216 15.3966 15.5253 16.4313 17.2583 17.5837V17.5827C20.4071 19.687 23.7621 20.1623 27.3794 19.2858C29.1531 18.8572 30.8925 18.668 32.5269 19.072L32.853 19.1608C33.8135 19.4476 34.6982 19.8515 35.7476 20.322C34.5964 21.3171 33.5627 22.211 32.5405 23.1149C31.4726 24.0539 30.2427 25.0476 29.187 26.1638L29.186 26.1647C27.9766 27.4471 27.2894 28.9162 27.2104 30.4665C27.1316 32.0149 27.6651 33.5358 28.6997 34.9147V34.9157C30.6861 37.5581 34.1535 38.6621 37.1226 37.2722L37.4077 37.1306C39.1231 36.2241 40.7489 35.0367 42.2739 34.0436L42.2749 34.0446C43.5232 33.2343 44.7729 32.4178 46.0073 31.5768C47.3513 32.8572 48.6995 34.1301 50.0503 35.3991L54.144 39.2321C56.5169 41.456 58.9062 43.6776 61.2759 45.8923L61.2769 45.8932C61.6145 46.2079 61.9248 46.492 62.2183 46.7936L62.2192 46.7946C62.7879 47.3781 63.0394 47.964 63.0767 48.4645C63.1128 48.9508 62.9553 49.4463 62.5347 49.904C61.716 50.7898 60.4219 50.9245 59.3784 50.1667L59.1733 50.0026C58.654 49.5504 58.1373 49.0952 57.6216 48.6374L56.0737 47.2575C54.285 45.6588 52.4814 44.0289 50.6802 42.4245H50.6812C50.5379 42.2957 50.1685 41.935 49.7388 41.7546C49.4907 41.6504 49.1613 41.5752 48.7905 41.6511C48.4176 41.7274 48.1167 41.9334 47.8853 42.1862C47.663 42.4282 47.4971 42.7233 47.436 43.0651C47.3754 43.405 47.4316 43.7162 47.5317 43.9724C47.7169 44.4459 48.0791 44.8019 48.3306 45.0202C49.6189 46.1383 50.9058 47.2563 52.1929 48.3747C53.4799 49.493 54.7673 50.6116 56.0562 51.7302C56.9799 52.5359 57.5235 52.9692 57.6548 53.6833L57.6763 53.8298C57.7784 54.8656 57.3617 55.5958 56.5229 56.0192C55.6762 56.4438 54.7722 56.3366 53.9819 55.6413H53.9829C51.2423 53.2083 48.5016 50.7691 45.7671 48.3298C45.7651 48.3278 45.7617 48.3245 45.7573 48.32C45.748 48.3104 45.7366 48.2987 45.7202 48.2809C45.6934 48.252 45.6387 48.1919 45.5825 48.1364C45.5252 48.0799 45.4362 47.9972 45.3218 47.9216C45.2075 47.8461 45.036 47.7562 44.8149 47.7204H44.8159C44.6643 47.6954 44.4027 47.6547 44.1489 47.6501C44.0243 47.6479 43.8492 47.6522 43.6675 47.695C43.5147 47.731 43.1813 47.8347 42.9448 48.1608H42.9438C42.7109 48.4796 42.6215 48.8655 42.5972 49.1579C42.574 49.4369 42.5906 49.8699 42.8208 50.2507V50.2516C43.1828 50.8512 43.7605 51.3077 44.0923 51.5944L44.0981 51.5993C46.2821 53.4579 48.4718 55.3044 50.6665 57.1491H50.6675C51.5212 57.8655 51.847 58.5941 51.6411 59.4684L51.6401 59.4724C51.4321 60.3722 50.8543 60.911 50.1909 61.1052C49.5195 61.3017 48.661 61.1709 47.8774 60.5056C45.7533 58.6994 43.6803 56.838 41.5679 54.9841V54.9831L41.4155 54.8298C41.339 54.7518 41.2042 54.6171 41.0239 54.5026C40.9785 54.4734 40.947 54.4453 40.812 54.3405C40.713 54.2637 40.5317 54.1253 40.3081 54.028C40.0619 53.9209 39.7191 53.8429 39.3315 53.9509C38.9611 54.0542 38.6858 54.29 38.4858 54.5329L38.479 54.5407C38.2255 54.8556 38.0434 55.2319 38.0073 55.6472C37.4585 55.2859 36.8407 54.9847 36.1636 54.7477C35.9257 53.116 35.4114 51.7673 34.4517 50.7331C33.5289 49.7389 32.2883 49.1345 30.7671 48.7751L30.4585 48.7067L30.4507 48.7048C30.4638 48.7074 30.4563 48.7067 30.4312 48.696C29.9944 47.0872 29.2332 45.7857 28.103 44.8747C27.0539 44.0291 25.7644 43.581 24.3032 43.4714C24.1413 43.1427 23.9899 42.8197 23.8149 42.4665C23.5657 41.9632 23.2853 41.4389 22.9214 40.9509L22.9194 40.9489L22.6997 40.6716C20.3731 37.9015 16.3555 37.9744 13.7505 40.5778C13.5978 40.7299 13.4838 40.8404 13.396 40.9235C13.2918 40.8389 13.1574 40.7257 12.9702 40.5671L12.9683 40.5661L7.60889 36.0612L2.24268 31.5671C1.94196 31.3145 1.67163 31.0865 1.42236 30.8464C1.03382 30.4717 1.00549 30.3301 1.00244 30.3093C1.00139 30.302 0.977963 30.1652 1.26221 29.7106L1.26416 29.7077C2.88535 27.0915 4.54395 24.4924 6.20654 21.8942L6.20752 21.8932C6.99432 20.6615 7.78704 19.4353 8.58252 18.2087L10.9751 14.5222C11.1408 14.2668 11.2534 14.1159 11.3354 14.0241ZM36.1831 54.8766L36.1821 54.8718L36.1812 54.8659C36.1817 54.8694 36.1826 54.873 36.1831 54.8766Z" fill="#CC9D8F" fill-opacity="0.5" stroke="#F0D6BF" stroke-width="2"/>
<path d="M69.0425 14.4865C69.055 14.4925 69.1054 14.522 69.1978 14.6281C69.328 14.7777 69.4882 15.0157 69.7075 15.3976C72.6182 20.4749 75.558 25.5469 78.4722 30.6134V30.6154C78.7241 31.0521 78.8697 31.335 78.9448 31.5402C78.9795 31.6348 78.9894 31.6898 78.9927 31.7159C78.9782 31.7384 78.9437 31.7866 78.8647 31.8624C78.7035 32.0171 78.4483 32.2091 78.0356 32.4943C73.3324 35.734 68.6328 38.9763 63.9507 42.256L63.9487 42.257C63.906 42.287 63.8703 42.3085 63.8423 42.3253L63.7417 42.2374C58.5204 37.2542 53.2668 32.3001 48.0444 27.3341H48.0435C47.6358 26.9469 47.1308 26.6179 46.5044 26.5607C45.9515 26.5102 45.4539 26.685 45.019 26.9484L44.8403 27.0636C42.0068 28.9866 39.1559 30.8964 36.2935 32.7745H36.2925C35.2612 33.4524 34.257 33.5264 33.4868 33.2404C32.7691 32.9737 32.137 32.3515 31.8315 31.3468L31.7749 31.1407C31.5658 30.2822 31.8326 29.5782 32.4995 29.005L32.5015 29.0031C34.7507 27.064 37.063 25.186 39.3833 23.296C40.7212 22.2071 42.079 21.1409 43.4468 20.0851C44.7144 19.1088 46.1031 18.5438 47.7339 18.4288C49.5811 18.8374 51.2827 19.1137 52.9771 19.632L52.979 19.6329C55.519 20.4032 57.899 20.1409 60.2085 18.9181H60.2095C61.5036 18.2316 62.8039 17.5542 64.1079 16.881L68.0269 14.8683C68.417 14.6686 68.6759 14.5622 68.8579 14.5138C68.9736 14.483 69.0268 14.4846 69.0425 14.4865Z" fill="#CC9D8F" fill-opacity="0.5" stroke="#F0D6BF" stroke-width="2"/>
<path d="M24.2798 47.783C24.6026 47.7897 24.9827 47.9184 25.3735 48.2458L25.5415 48.3992C25.908 48.7607 26.1763 49.308 26.2446 49.8523C26.3126 50.3941 26.1737 50.801 25.9194 51.0457L25.9175 51.0476C25.2747 51.67 24.6619 52.3221 24.0688 52.947C23.4697 53.5783 22.8867 54.1857 22.2778 54.7546C22.1432 54.8803 21.9492 54.9976 21.6538 55.1365C21.4944 55.2114 21.2269 55.325 20.9712 55.4431C20.0789 55.2229 19.5504 54.798 19.2202 54.1365L19.1499 53.9851L19.1489 53.9841L19.0874 53.8289C18.9602 53.4744 18.9471 53.1692 19.0044 52.9011C19.0712 52.5886 19.2499 52.2488 19.5991 51.8943C20.1912 51.2974 20.7793 50.6983 21.3638 50.1013C21.9497 49.5029 22.5331 48.9074 23.1206 48.3152C23.5147 47.9179 23.9184 47.7754 24.2798 47.783Z" fill="#CC9D8F" fill-opacity="0.5" stroke="#F0D6BF" stroke-width="2"/>
<path d="M29.6455 52.9523C29.89 52.9443 30.1892 53.0088 30.5342 53.1691L30.6846 53.2433C31.1153 53.4712 31.3843 53.7377 31.5605 54.0636C31.7249 54.3675 31.8405 54.7853 31.8672 55.3849C31.8616 55.3986 31.8553 55.4115 31.8506 55.423C31.8147 55.5107 31.7813 55.592 31.7432 55.6759C31.6639 55.85 31.5885 55.9778 31.5166 56.0597C30.3569 57.3701 29.1583 58.6411 27.9297 59.9044L27.9287 59.9054C27.5533 60.2923 27.1357 60.4551 26.7383 60.462C26.3352 60.469 25.8736 60.3157 25.4277 59.9279C24.5635 59.1758 24.4853 58.0641 25.0117 57.4376L25.0127 57.4366C26.2224 55.9915 27.5326 54.6089 28.8965 53.2892L28.8984 53.2872C29.1463 53.0465 29.3915 52.9605 29.6455 52.9523Z" fill="#CC9D8F" fill-opacity="0.5" stroke="#F0D6BF" stroke-width="2"/>
<path d="M16.9639 43.4729C17.5696 42.8811 18.3445 42.7982 19.042 43.1877H19.043C19.3772 43.3743 19.7431 43.7668 19.999 44.261C20.262 44.7689 20.3155 45.2017 20.2646 45.4319C20.2316 45.5754 20.1384 45.7562 20.0176 45.8879L20.0127 45.8928C18.9394 47.0799 17.8452 48.2442 16.7363 49.4055V49.4065C16.3662 49.7943 16.0439 49.9651 15.7646 50.0276C15.4883 50.0894 15.15 50.0685 14.7031 49.887L14.7021 49.886C13.9953 49.5994 13.4583 48.9384 13.2607 47.9924C13.3689 47.742 13.4737 47.4823 13.5439 47.3215C13.6713 47.0303 13.7785 46.8378 13.8936 46.7034L13.8965 46.6995C14.8407 45.5849 15.8852 44.5415 16.9639 43.4729Z" fill="#CC9D8F" fill-opacity="0.5" stroke="#F0D6BF" stroke-width="2"/>
<path d="M34.3486 58.8842C34.5779 58.8241 34.8552 58.8337 35.2578 59.0014H35.2588C35.8848 59.262 36.539 60.1083 36.6133 61.0922C36.6008 61.1234 36.5872 61.1532 36.5762 61.1811C36.5307 61.2958 36.488 61.4043 36.4395 61.5161C36.3405 61.7437 36.2399 61.9317 36.1289 62.0707L36.1279 62.0717C35.3807 63.0104 34.5491 63.9036 33.6807 64.7729V64.7739C32.9919 65.4644 31.7597 65.4695 30.96 64.6723C30.53 64.2435 30.384 63.8431 30.3828 63.4995C30.3816 63.148 30.5317 62.7021 30.9844 62.1928C31.7916 61.2971 32.5606 60.422 33.3662 59.5668C33.7814 59.1274 34.1019 58.9489 34.3486 58.8842Z" fill="#CC9D8F" fill-opacity="0.5" stroke="#F0D6BF" stroke-width="2"/>
</g>
<defs>
<clipPath id="clip0_10_429">
<rect width="80" height="54" fill="white" transform="translate(0 13)"/>
</clipPath>
</defs>
</svg>
