<svg width="80" height="79" viewBox="0 0 80 79" fill="none" xmlns="http://www.w3.org/2000/svg">
<g clip-path="url(#clip0_10_447)">
<path d="M44.4912 0.999878C45.3004 0.999914 45.5572 1.13793 45.666 1.23718C45.7744 1.33607 45.9191 1.5612 46.0381 2.18445L46.0869 2.47742C46.2107 3.31543 46.3554 4.15063 46.4951 4.9696C46.6357 5.79354 46.772 6.60383 46.8848 7.41199C46.9563 7.92408 47.1354 8.38828 47.4736 8.77722C47.8014 9.154 48.2137 9.38463 48.6172 9.54773L48.6201 9.54871C50.7502 10.4032 52.869 11.2665 54.9502 12.1884L54.9551 12.1903C55.3727 12.3726 55.8304 12.5002 56.3262 12.4677C56.8343 12.4342 57.2807 12.24 57.6826 11.953L57.6855 11.9501C59.3539 10.7471 61.0349 9.55166 62.7217 8.37683L62.7236 8.37585C63.3731 7.92148 63.5721 7.90842 63.6211 7.91199C63.6518 7.91425 63.7919 7.93564 64.1865 8.30359L64.3721 8.48328C66.7382 10.8712 69.0906 13.2726 71.4297 15.6874L71.4316 15.6893C71.799 16.0664 71.8336 16.2378 71.8379 16.2889C71.842 16.3388 71.8367 16.5104 71.5381 16.9374C70.7134 18.1153 69.8828 19.2847 69.0391 20.4423L68.1904 21.5956C67.8529 22.0511 67.6406 22.5471 67.5957 23.0966C67.5518 23.6342 67.6751 24.1381 67.8643 24.6024V24.6014C68.6685 26.5987 69.4495 28.579 70.1152 30.5858V30.5868C70.3269 31.2275 70.6685 31.7426 71.1699 32.1112C71.6542 32.4672 72.2059 32.6255 72.7285 32.7089H72.7305C74.4911 32.9851 76.2457 33.2603 77.999 33.5555H78C78.484 33.6367 78.6857 33.7819 78.7812 33.8944C78.8651 33.9932 78.9626 34.1787 78.9873 34.5604L78.9932 34.7372C79.0067 37.8858 79.0067 41.028 78.9932 44.1766V44.1805C78.9932 44.7833 78.8793 44.9953 78.8008 45.0868C78.7171 45.1843 78.5064 45.3394 77.875 45.452L77.873 45.453C76.1324 45.7673 74.3889 46.0469 72.6357 46.2733H72.6348C72.0385 46.351 71.4606 46.5272 70.9668 46.9159C70.4691 47.3078 70.1551 47.8382 69.9443 48.4462L69.9424 48.4501C69.3528 50.1752 68.6918 51.8858 67.9678 53.5634L67.6533 54.2811C67.4482 54.7433 67.3116 55.2407 67.3555 55.7733C67.3948 56.2492 67.5706 56.6669 67.8242 57.0428L67.9385 57.202C69.0935 58.7436 70.1286 60.188 71.2988 61.7567V61.7577C71.7733 62.3938 71.8037 62.6251 71.7988 62.7059C71.7945 62.7774 71.7466 62.994 71.1973 63.5438C70.0575 64.6847 68.9156 65.8239 67.7734 66.9637C66.6313 68.1035 65.4878 69.2444 64.3467 70.3866C63.7844 70.9493 63.5822 70.9937 63.5293 70.9979C63.4844 71.0014 63.3259 70.9937 62.8633 70.6815L62.6465 70.5282C61.0643 69.3665 59.5443 68.2856 57.9795 67.1298H57.9785C57.4977 66.7738 56.9698 66.5486 56.3877 66.4969C55.8123 66.446 55.2614 66.5709 54.7422 66.7909C52.7579 67.6287 50.5686 68.4449 48.5371 69.3514C48.1401 69.5285 47.7911 69.8264 47.5312 70.1307C47.2747 70.4312 47.022 70.8357 46.9248 71.287L46.9238 71.2909C46.5563 73.0297 46.3083 74.7936 46.0908 76.5243C45.9774 77.4198 45.8204 77.6798 45.7197 77.7753C45.6387 77.8519 45.4128 77.9898 44.5615 77.993H44.5605C41.4704 78.0065 38.3802 78.0065 35.2832 77.993H35.2783C34.6151 77.993 34.4617 77.8814 34.4238 77.8475C34.3786 77.8071 34.2715 77.6742 34.1699 77.1805L34.127 76.9462C33.8427 75.1951 33.5583 73.4463 33.2812 71.6913C33.2002 71.1777 33.0315 70.6618 32.6875 70.2108C32.3372 69.7517 31.8618 69.4339 31.291 69.2294H31.29C29.2693 68.4988 27.2725 67.7406 25.3291 66.8798H25.3301C24.7686 66.6292 24.1849 66.4831 23.5723 66.537C22.9533 66.5914 22.4063 66.8413 21.9053 67.2108L21.9033 67.2118C20.4381 68.2984 18.9922 69.2933 17.4814 70.3895C16.8137 70.8696 16.5561 70.916 16.4463 70.91C16.3552 70.905 16.124 70.8486 15.5625 70.2899L15.5605 70.288L12.1357 66.8788C10.9971 65.7391 9.86058 64.5967 8.72363 63.452H8.72461C8.31481 63.0385 8.28467 62.8494 8.28223 62.787C8.27895 62.7025 8.31186 62.4849 8.67773 61.9862H8.67871C9.88687 60.3366 11.0985 58.567 12.2705 56.9423L12.2734 56.9384C12.5426 56.5613 12.7188 56.142 12.7432 55.6649C12.7666 55.2057 12.6439 54.7882 12.4873 54.4218L12.4854 54.4188L11.8457 52.9178C11.3186 51.6653 10.8092 50.4083 10.332 49.1434L10.0498 48.3837C9.82804 47.7769 9.50079 47.2554 8.99316 46.8759C8.49352 46.5024 7.9146 46.338 7.32324 46.2655H7.32031C5.54509 46.0538 3.77651 45.7485 1.99219 45.4257H1.98828C1.4187 45.3245 1.0372 44.8956 1.0332 44.2421V44.2391C1.00617 41.0578 0.999452 37.8792 1.0332 34.7089V34.7079C1.03814 34.2287 1.16516 33.9749 1.31055 33.8192C1.46855 33.6501 1.76604 33.4716 2.33594 33.3729H2.33887C4.09185 33.0643 5.83847 32.7771 7.58789 32.537L7.58691 32.536C8.10867 32.465 8.60719 32.2965 9.03125 31.9471C9.45317 31.5995 9.71478 31.1453 9.88965 30.6581V30.6571C10.2705 29.5935 10.68 28.5391 11.0938 27.4657C11.5057 26.3969 11.9208 25.3112 12.3027 24.2089L12.3047 24.204C12.4405 23.8049 12.4548 23.3676 12.4092 22.993C12.3694 22.666 12.2736 22.301 12.0947 21.9764L12.0127 21.8407C11.4743 21.0116 10.9066 20.1939 10.334 19.3876L8.62695 16.9999C8.26608 16.4909 8.2498 16.301 8.25293 16.244C8.25542 16.2005 8.28072 16.0242 8.70508 15.5868L8.70605 15.5858C11.0917 13.118 13.4901 10.6643 15.9082 8.23132C15.9557 8.18416 16.0433 8.12081 16.25 8.01257C16.3195 7.9762 16.4166 7.92854 16.5264 7.87292C16.6422 7.93409 16.7502 7.99405 16.8467 8.04578C17.0944 8.17861 17.2951 8.2943 17.4697 8.41882H17.4707C19.0196 9.54456 20.5488 10.6979 22.0947 11.8583V11.8573C22.5481 12.1997 23.0533 12.4311 23.6318 12.4735C24.1998 12.5151 24.7355 12.3676 25.2393 12.1356L25.2432 12.1337C26.2462 11.6659 27.2745 11.2369 28.3252 10.8007C29.3695 10.3671 30.4377 9.92568 31.4873 9.44128L31.4863 9.44031C31.8743 9.26167 32.22 8.96973 32.4805 8.66589C32.7366 8.36703 32.9913 7.96353 33.0889 7.51062C33.4642 5.76789 33.6928 3.99354 33.9277 2.27722L33.9287 2.26941C34.0221 1.54451 34.1758 1.31278 34.2744 1.22253C34.3545 1.14939 34.5422 1.03832 35.0723 1.00769L35.3213 0.999878C38.3773 0.99317 41.4308 0.999878 44.4912 0.999878ZM41.0645 17.6971C28.4692 17.1158 18.3714 27.3893 18.3916 39.1903L18.3857 39.4335C18.1008 50.3898 27.2401 60.7295 39.3125 61.0614C51.5535 61.4001 61.0103 51.6685 61.5859 40.7782C62.3091 27.1378 51.5793 18.1843 41.0645 17.6971Z" fill="#CC9D8F" fill-opacity="0.5" stroke="#F0D6BF" stroke-width="2"/>
</g>
<defs>
<clipPath id="clip0_10_447">
<rect width="80" height="79" fill="white"/>
</clipPath>
</defs>
</svg>
