<svg width="50" height="50" viewBox="0 0 50 50" fill="none" xmlns="http://www.w3.org/2000/svg">
<path d="M17.626 21.9449L22.7375 27.0552L32.9593 16.8334" stroke="#F88D7F" stroke-width="2" stroke-linecap="round" stroke-linejoin="round"/>
<path d="M25.2927 47.5L27.5412 46.5285C32.2556 44.5054 36.3267 41.2309 39.3134 37.0598C42.3001 32.8886 44.0886 27.9797 44.4851 22.8649L45.5842 8.75819C45.6021 8.17398 45.4189 7.60134 45.0652 7.13602C44.7116 6.6707 44.2088 6.34091 43.6412 6.20181L25.2927 1.5L6.9442 6.1C6.37673 6.23906 5.87417 6.56866 5.52052 7.03373C5.16686 7.4988 4.98353 8.07115 5.00116 8.65515L6.10026 22.7618C6.49658 27.8769 8.28496 32.786 11.2717 36.9574C14.2584 41.1288 18.3296 44.4035 23.0442 46.4267L25.2927 47.5Z" stroke="#F88D7F" stroke-width="2" stroke-linecap="round" stroke-linejoin="round"/>
</svg>
