<?xml version="1.0" encoding="utf-8"?>
<!-- Generator: Adobe Illustrator 28.3.0, SVG Export Plug-In . SVG Version: 6.00 Build 0)  -->
<svg version="1.1" id="Ebene_1" xmlns="http://www.w3.org/2000/svg" xmlns:xlink="http://www.w3.org/1999/xlink" x="0px" y="0px"
	 viewBox="0 0 50 50" style="enable-background:new 0 0 50 50;" xml:space="preserve">
<style type="text/css">
	.st0{fill:#F88D7F;}
</style>
<g>
	<path class="st0" d="M6.7,25c0-6.3,0-12.7,0-19c0-3.4,1.6-5,5-5C17.8,1,23.9,1,30,1c0.8,0,1.5,0.2,2.1,0.8c3.4,3.5,6.9,7,10.4,10.4
		c0.6,0.6,0.8,1.2,0.8,2c0,10,0,20,0,30.1c0,3-1.7,4.7-4.7,4.7c-9.1,0-18.1,0-27.2,0c-3,0-4.7-1.7-4.7-4.7C6.7,37.9,6.7,31.4,6.7,25
		z M29.2,3.8c-0.5,0-0.8,0-1.2,0c-5.5,0-10.9,0-16.4,0c-1.7,0-2.1,0.4-2.1,2.1c0,12.7,0,25.5,0,38.2c0,1.7,0.4,2.1,2.1,2.1
		c8.9,0,17.7,0,26.6,0c1.8,0,2.2-0.3,2.2-2.2c0-9.3,0-18.5,0-27.8c0-0.3,0-0.7,0-1c-0.1-0.1-0.2-0.1-0.3-0.1c-2,0-4,0-6,0
		c-3.4,0-5-1.6-5-5C29.2,8.1,29.2,6,29.2,3.8z M38.1,12.3c-2-2-4-4-6-6c0,1.6,0,3.2,0,4.9c0,0.8,0.6,1.2,1.3,1.2
		C35,12.3,36.6,12.3,38.1,12.3z"/>
	<path class="st0" d="M24.9,23.7c-2.7,0-5.3,0-8,0c-1.1,0-1.7-0.5-1.8-1.4c0-0.9,0.6-1.5,1.8-1.5c5.4,0,10.7,0,16.1,0
		c1.1,0,1.7,0.5,1.8,1.4c0,0.9-0.6,1.4-1.8,1.5C30.3,23.7,27.6,23.7,24.9,23.7z"/>
	<path class="st0" d="M25.1,26.5c2.7,0,5.3,0,8,0c1.1,0,1.7,0.5,1.8,1.4c0,0.9-0.6,1.5-1.8,1.5c-5.4,0-10.7,0-16.1,0
		c-1.1,0-1.7-0.5-1.8-1.4c0-0.9,0.6-1.4,1.8-1.5C19.7,26.5,22.4,26.5,25.1,26.5z"/>
	<path class="st0" d="M25,34.9c-2.7,0-5.4,0-8.1,0c-1.1,0-1.8-0.5-1.8-1.5c0-0.9,0.7-1.4,1.8-1.4c5.4,0,10.7,0,16.1,0
		c1.1,0,1.8,0.5,1.8,1.5c0,0.9-0.7,1.4-1.8,1.4C30.4,34.9,27.7,34.9,25,34.9z"/>
	<path class="st0" d="M22.2,40.6c-1.8,0-3.6,0-5.3,0c-1,0-1.6-0.5-1.7-1.4c0-0.9,0.6-1.4,1.7-1.4c3.6,0,7.1,0,10.7,0
		c1,0,1.6,0.5,1.7,1.4c0,0.9-0.6,1.4-1.7,1.4C25.7,40.6,24,40.6,22.2,40.6z"/>
</g>
</svg>
