<svg width="44" height="45" viewBox="0 0 44 45" fill="none" xmlns="http://www.w3.org/2000/svg">
<path d="M43.7602 22.27C43.7602 34.302 34.0322 44.03 22.0002 44.03C9.96824 44.03 0.240234 34.302 0.240233 22.27C0.240233 10.238 9.96823 0.510028 22.0002 0.510028C34.0322 0.510027 43.7602 10.238 43.7602 22.27ZM2.80023 22.27C2.80023 32.894 11.3762 41.47 22.0002 41.47C32.6242 41.47 41.2002 32.894 41.2002 22.27C41.2002 11.646 32.6242 3.07003 22.0002 3.07003C11.3762 3.07003 2.80023 11.646 2.80023 22.27Z" fill="#F88D7F"/>
<path d="M24.1758 11.646L13.5518 22.27L24.1758 32.894L22.3838 34.686L9.96777 22.27L22.3838 9.85403L24.1758 11.646Z" fill="#F0D6BF"/>
<path d="M11.7598 23.55L11.7598 20.99L33.5198 20.99L33.5198 23.55L11.7598 23.55Z" fill="#F0D6BF"/>
</svg>
