<svg width="80" height="81" viewBox="0 0 80 81" fill="none" xmlns="http://www.w3.org/2000/svg">
<g filter="url(#filter0_d_71_1240)">
<path d="M36.1502 39.4614C36.15 36.9991 36.1491 34.537 36.1481 32.075C36.1455 25.2874 36.143 18.5007 36.1556 11.7143L36.1502 39.4614ZM36.1502 39.4614H36.1518L36.152 40.4612C36.1526 43.4214 36.1515 46.3811 36.1504 49.3404C36.1478 56.1452 36.1453 62.948 36.1627 69.7508L36.1627 69.7509C36.1661 71.118 36.4226 71.9139 36.7992 72.393C37.1558 72.8468 37.7489 73.1779 38.8253 73.315L38.8257 73.315C40.6768 73.5515 41.7573 73.2564 42.3851 72.7012C43.0142 72.145 43.4486 71.0983 43.4494 69.2009V69.2007C43.4619 50.0345 43.4637 30.8702 43.453 11.704V11.704C43.4521 10.0256 43.1276 9.09415 42.6446 8.56637C42.1795 8.0582 41.3773 7.72071 39.8966 7.705L36.1502 39.4614ZM36.9581 8.48688C36.4805 8.98741 36.1591 9.91225 36.1556 11.7143L36.9581 8.48688ZM36.9581 8.48688C37.4196 8.00317 38.249 7.68805 39.8963 7.705L36.9581 8.48688Z" fill="#CC9D8F" fill-opacity="0.5" stroke="#F0D6BF" stroke-width="2"/>
<path d="M14.5691 69.1408C14.5589 61.5793 14.5606 54.018 14.5624 46.3363C14.563 43.6858 14.5636 41.0209 14.5638 38.3367H21.7787C21.8264 38.7905 21.8665 39.2056 21.8665 39.6483L21.8665 39.6496C21.879 49.5138 21.8844 59.3792 21.8701 69.2426V69.2426C21.8675 71.1119 21.559 72.0574 21.0941 72.5636C20.6545 73.0423 19.8577 73.3563 18.2108 73.3461C16.6102 73.336 15.8113 73.0057 15.3615 72.5029C14.8845 71.9698 14.5717 70.9969 14.5691 69.1408ZM14.5691 69.1408L13.5691 69.1422L14.5691 69.1408ZM22.8665 39.6483C22.879 49.5129 22.8844 59.3794 22.8701 69.244C22.8647 73.0759 21.6586 74.3675 18.2045 74.3461L22.8665 39.6483Z" fill="#CC9D8F" fill-opacity="0.5" stroke="#F0D6BF" stroke-width="2"/>
<path d="M57.9512 11.7531L57.9512 11.753C57.9537 9.99371 58.2848 9.05317 58.7796 8.53238C59.2594 8.02748 60.1049 7.69851 61.7148 7.71026L61.715 7.71027C63.2522 7.72117 64.0346 8.0421 64.4758 8.52235C64.9371 9.02445 65.2487 9.93736 65.2521 11.675V11.6752C65.2662 18.1655 65.2638 24.6553 65.2613 31.2675C65.2604 33.5366 65.2595 35.8202 65.2593 38.1232H58.0492C58.0011 37.7196 57.9629 37.3714 57.9619 36.9933C57.9458 28.58 57.9387 20.1655 57.9512 11.7531Z" fill="#CC9D8F" fill-opacity="0.5" stroke="#F0D6BF" stroke-width="2"/>
<path d="M25.2448 31.516C25.2372 31.678 25.2294 31.8431 25.2216 32.0116L22.3181 34.4026C19.5343 34.4631 16.7615 34.4895 14 34.3975C12.9529 34.362 12.2511 34.067 11.8093 33.638C11.3743 33.2156 11.0646 32.5403 11.0449 31.4787L11.0449 31.4781C11.0406 31.2495 11.0361 31.0276 11.0318 30.8123C10.9994 29.1904 10.9744 27.9386 11.0469 26.9381C11.1295 25.7969 11.3308 25.1876 11.6258 24.8181C11.8961 24.4794 12.3747 24.185 13.4304 24.0161C14.4981 23.8454 15.9983 23.8274 18.1368 23.9144L19.1774 23.9567V23.8911C20.9801 23.8059 22.2567 23.8534 23.1679 24.0437C24.1134 24.2412 24.556 24.5678 24.8181 24.967C25.1154 25.42 25.295 26.135 25.3443 27.3461C25.3889 28.4424 25.3253 29.7974 25.2448 31.516ZM25.2216 32.0118C25.1818 32.8679 24.866 33.4126 24.4254 33.7666C23.9591 34.1411 23.2509 34.3816 22.3182 34.4025L25.2216 32.0118Z" fill="#CC9D8F" fill-opacity="0.5" stroke="#F0D6BF" stroke-width="2"/>
<path d="M61.6959 52.5272L61.7142 52.5271C63.0653 52.5236 64.4179 52.5236 65.769 52.5236H65.7723C66.8512 52.5236 67.5226 52.2339 67.9536 51.816C68.3962 51.3868 68.7185 50.6931 68.8335 49.631L61.6959 52.5272ZM61.6959 52.5272L61.6776 52.5279M61.6959 52.5272L61.6776 52.5279M61.6776 52.5279C61.6549 52.5288 61.6294 52.5289 61.5812 52.5289H61.5758C61.5339 52.5289 61.4718 52.5289 61.4064 52.5315L61.4064 52.5314M61.6776 52.5279L61.4064 52.5314M61.4064 52.5314L61.3977 52.5319M61.4064 52.5314L61.3977 52.5319M61.3977 52.5319C59.1858 52.638 57.6851 52.5918 56.6574 52.3841C55.6587 52.1823 55.2409 51.8569 55.0084 51.4932C54.7355 51.0664 54.5862 50.3919 54.5469 49.2112C54.5232 48.499 54.5388 47.7048 54.557 46.7716C54.5691 46.1536 54.5824 45.4746 54.5863 44.718L54.5863 44.7176M61.3977 52.5319L54.5863 44.7176M54.5863 44.7176C54.5906 43.7921 54.8678 43.1794 55.26 42.7875C55.6581 42.3896 56.2845 42.1098 57.1872 42.0675L57.1879 42.0675M54.5863 44.7176L57.1879 42.0675M57.1879 42.0675C59.2807 41.9679 61.3655 41.9909 63.4839 42.0143C64.3361 42.0237 65.1937 42.0331 66.0595 42.0347H66.0613M57.1879 42.0675L66.0613 42.0347M66.0613 42.0347C66.2605 42.0347 66.4511 42.0562 66.6182 42.0986L66.6207 42.0993M66.0613 42.0347L66.6207 42.0993M66.6207 42.0993C67.1528 42.2328 67.5499 42.4458 67.8559 42.7292M66.6207 42.0993L67.8559 42.7292M67.8559 42.7292C68.1628 43.0133 68.4239 43.4107 68.6204 43.98M67.8559 42.7292L68.6204 43.98M68.6204 43.98C69.026 45.1553 69.1214 46.9573 68.8335 49.6306L68.6204 43.98Z" fill="#CC9D8F" fill-opacity="0.5" stroke="#F0D6BF" stroke-width="2"/>
<path d="M57.9566 56.5066C57.9563 57.549 57.9557 58.5839 57.9551 59.6131C57.9533 62.837 57.9515 66.0055 57.9603 69.1748L57.9566 56.5066ZM57.9566 56.5066H65.2594V56.5125V56.5255V56.5385V56.5516V56.5646V56.5777V56.5907V56.6038V56.6168V56.6298V56.6429V56.6559V56.6689V56.682V56.695V56.7081V56.7211V56.7341V56.7472V56.7602V56.7732V56.7863V56.7993V56.8123V56.8254V56.8384V56.8514V56.8645V56.8775V56.8905V56.9035V56.9166V56.9296V56.9426V56.9557V56.9687V56.9817V56.9947V57.0078V57.0208V57.0338V57.0468V57.0599V57.0729V57.0859V57.0989V57.112V57.125V57.138V57.151V57.164V57.1771V57.1901V57.2031V57.2161V57.2291V57.2422V57.2552V57.2682V57.2812V57.2942V57.3072V57.3203V57.3333V57.3463V57.3593V57.3723V57.3853V57.3983V57.4114V57.4244V57.4374V57.4504V57.4634V57.4764V57.4894V57.5024V57.5154V57.5285V57.5415V57.5545V57.5675V57.5805V57.5935V57.6065V57.6195V57.6325V57.6455V57.6585V57.6715V57.6845V57.6975V57.7105V57.7235V57.7365V57.7495V57.7626V57.7756V57.7886V57.8016V57.8146V57.8276V57.8406V57.8536V57.8666V57.8796V57.8926V57.9056V57.9185V57.9315V57.9445V57.9575V57.9705V57.9835V57.9965V58.0095V58.0225V58.0355V58.0485V58.0615V58.0745V58.0875V58.1005V58.1135V58.1265V58.1395V58.1524V58.1654V58.1784V58.1914V58.2044V58.2174V58.2304V58.2434V58.2564V58.2693V58.2823V58.2953V58.3083V58.3213V58.3343V58.3473V58.3603V58.3732V58.3862V58.3992V58.4122V58.4252V58.4382V58.4511V58.4641V58.4771V58.4901V58.5031V58.5161V58.529V58.542V58.555V58.568V58.581V58.5939V58.6069V58.6199V58.6329V58.6459V58.6588V58.6718V58.6848V58.6978V58.7108V58.7237V58.7367V58.7497V58.7627V58.7756V58.7886V58.8016V58.8146V58.8275V58.8405V58.8535V58.8665V58.8794V58.8924V58.9054V58.9183V58.9313V58.9443V58.9573V58.9702V58.9832V58.9962V59.0092V59.0221V59.0351V59.0481V59.061V59.074V59.087V59.0999V59.1129V59.1259V59.1388V59.1518V59.1648V59.1777V59.1907V59.2037V59.2166V59.2296V59.2426V59.2555V59.2685V59.2815V59.2944V59.3074V59.3204V59.3333V59.3463V59.3593V59.3722V59.3852V59.3982V59.4111V59.4241V59.437V59.45V59.463V59.4759V59.4889V59.5018V59.5148V59.5278V59.5407V59.5537V59.5667V59.5796V59.5926V59.6055V59.6185V59.6314V59.6444V59.6574V59.6703V59.6833V59.6962V59.7092V59.7222V59.7351V59.7481V59.761V59.774V59.7869V59.7999V59.8129V59.8258V59.8388V59.8517V59.8647V59.8776V59.8906V59.9035V59.9165V59.9294V59.9424V59.9554V59.9683V59.9813V59.9942V60.0072V60.0201V60.0331V60.046V60.059V60.0719V60.0849V60.0978V60.1108V60.1237V60.1367V60.1496V60.1626V60.1755V60.1885V60.2014V60.2144V60.2273V60.2403V60.2532V60.2662V60.2791V60.2921V60.305V60.318V60.3309V60.3439V60.3568V60.3698V60.3827V60.3957V60.4086V60.4216V60.4345V60.4475V60.4604V60.4734V60.4863V60.4993V60.5122V60.5252V60.5381V60.551V60.564V60.5769V60.5899V60.6028V60.6158V60.6287V60.6417V60.6546V60.6676V60.6805V60.6934V60.7064V60.7193V60.7323V60.7452V60.7582V60.7711V60.7841V60.797V60.8099V60.8229V60.8358V60.8488V60.8617V60.8747V60.8876V60.9005V60.9135V60.9264V60.9394V60.9523V60.9653V60.9782V60.9911V61.0041V61.017V61.03V61.0429V61.0559V61.0688V61.0817V61.0947V61.1076V61.1206V61.1335V61.1464V61.1594V61.1723V61.1853V61.1982V61.2111V61.2241V61.237V61.25V61.2629V61.2759V61.2888V61.3017V61.3147V61.3276V61.3406V61.3535V61.3664V61.3794V61.3923V61.4052V61.4182V61.4311V61.4441V61.457V61.4699V61.4829V61.4958V61.5088V61.5217V61.5346V61.5476V61.5605V61.5735V61.5864V61.5993V61.6123V61.6252V61.6382V61.6511V61.664V61.677V61.6899V61.7028V61.7158V61.7287V61.7417V61.7546V61.7675V61.7805V61.7934V61.8063V61.8193V61.8322V61.8452V61.8581V61.871V61.884V61.8969V61.9099V61.9228V61.9357V61.9487V61.9616V61.9745V61.9875V62.0004V62.0134V62.0263V62.0392V62.0522V62.0651V62.078V62.091V62.1039V62.1169V62.1298V62.1427V62.1557C65.2594 62.8751 65.2606 63.5931 65.2618 64.3102C65.2644 65.9455 65.267 67.5763 65.2559 69.2088L65.2559 69.2091C65.2437 71.065 64.9321 72.0237 64.4605 72.5441C64.0164 73.034 63.2224 73.356 61.605 73.3552C60.008 73.3543 59.2092 73.0254 58.7589 72.5244C58.2809 71.9926 57.9664 71.0212 57.9603 69.1753L57.9566 56.5066Z" fill="#CC9D8F" fill-opacity="0.5" stroke="#F0D6BF" stroke-width="2"/>
<path d="M14.7744 9.72335L14.7745 9.72244C14.8296 9.00875 15.1907 8.50249 15.8625 8.15517C16.5808 7.78385 17.6617 7.6027 19.019 7.71753L19.0192 7.71755C20.0329 7.8031 20.7031 8.10363 21.1222 8.51774C21.5307 8.92128 21.8179 9.5483 21.8396 10.5374C21.89 12.8362 21.8791 15.1282 21.8676 17.5467C21.864 18.306 21.8603 19.0777 21.8584 19.866H14.6928C14.6862 19.065 14.673 18.2702 14.6598 17.48C14.6162 14.8629 14.5734 12.2966 14.7744 9.72335Z" fill="#CC9D8F" fill-opacity="0.5" stroke="#F0D6BF" stroke-width="2"/>
</g>
<defs>
<filter id="filter0_d_71_1240" x="6" y="2.68335" width="68" height="75.7136" filterUnits="userSpaceOnUse" color-interpolation-filters="sRGB">
<feFlood flood-opacity="0" result="BackgroundImageFix"/>
<feColorMatrix in="SourceAlpha" type="matrix" values="0 0 0 0 0 0 0 0 0 0 0 0 0 0 0 0 0 0 127 0" result="hardAlpha"/>
<feOffset/>
<feGaussianBlur stdDeviation="2"/>
<feComposite in2="hardAlpha" operator="out"/>
<feColorMatrix type="matrix" values="0 0 0 0 1 0 0 0 0 1 0 0 0 0 1 0 0 0 0.5 0"/>
<feBlend mode="normal" in2="BackgroundImageFix" result="effect1_dropShadow_71_1240"/>
<feBlend mode="normal" in="SourceGraphic" in2="effect1_dropShadow_71_1240" result="shape"/>
</filter>
</defs>
</svg>
