<svg width="50" height="50" viewBox="0 0 50 50" fill="none" xmlns="http://www.w3.org/2000/svg">
<path d="M10.253 41.6017C10.253 42.8847 10.2623 43.9587 10.253 45.0327C10.2342 46.2777 9.62514 47 8.61314 47C7.61052 47 7.02019 46.2872 7.01082 45.0136C7.00145 42.8182 6.99208 40.6322 7.01082 38.4368C7.02956 36.7736 7.8073 35.9847 9.42836 35.9752C11.5929 35.9657 13.7481 35.9657 15.9126 35.9752C17.0652 35.9752 17.7586 36.593 17.7773 37.5719C17.7961 38.5984 17.0933 39.2161 15.8658 39.2351C14.91 39.2446 13.9636 39.2351 12.7829 39.2351C13.1109 39.5488 13.2796 39.7484 13.4763 39.8909C24.8332 48.169 41.3343 41.155 43.4707 27.1554C43.9674 23.8955 43.7612 20.7116 42.6836 17.5943C42.3744 16.6914 42.3744 15.8836 43.2177 15.2943C44.1829 14.6195 45.2979 15.1422 45.7477 16.4823C47.2657 20.9968 47.4156 25.5777 46.1319 30.1587C41.8216 45.4698 23.868 51.695 11.1994 42.2955C10.9464 42.1054 10.6934 41.9248 10.2436 41.6112L10.253 41.6017Z" fill="#F88D7F"/>
<path d="M38.7575 7.14822C38.7575 6.03385 38.7575 5.02999 38.7575 4.02613C38.7668 2.7644 39.4132 2 40.4061 2C41.3709 2 41.9892 2.73678 41.9892 3.95245C41.9986 6.07989 42.0079 8.20733 41.9892 10.3256C41.9704 11.882 41.2117 12.6556 39.6473 12.6832C37.6615 12.7201 35.6756 12.7109 33.6897 12.6832C32.5094 12.6648 31.8444 12.0662 31.8444 11.1084C31.8444 10.123 32.5563 9.52432 33.774 9.48748C34.4859 9.46906 35.1885 9.45985 35.9004 9.45064C35.9285 9.45064 35.9566 9.42301 36.0878 9.33092C35.7693 9.09146 35.4976 8.85201 35.1885 8.65861C28.7438 4.68002 22.0274 4.21033 15.3391 7.78369C8.65081 11.3663 5.2973 17.1315 5.33476 24.6374C5.34413 26.5899 5.89681 28.5423 6.3277 30.4764C6.60872 31.7473 6.39327 32.5946 5.42844 32.9077C4.44487 33.2209 3.66738 32.7327 3.22711 31.5079C-1.34415 18.6603 7.35811 4.47741 21.0063 2.54337C27.2263 1.65924 32.8841 3.02228 37.9612 6.68773C38.1017 6.78904 38.2422 6.89035 38.3921 6.99165C38.4483 7.02849 38.5139 7.04691 38.7481 7.14822H38.7575Z" fill="#F88D7F"/>
</svg>
