<svg width="47" height="49" viewBox="0 0 47 49" fill="none" xmlns="http://www.w3.org/2000/svg">
<g clip-path="url(#clip0_501_344)">
<path d="M26.5001 41.56C28.4301 42.51 29.6701 44 29.9601 46.19C30.1201 47.35 29.9001 47.58 28.7001 47.58C19.7201 47.58 10.7501 47.58 1.77007 47.58C0.640072 47.58 0.380072 47.29 0.540072 46.14C0.850072 44.01 2.02007 42.49 3.92007 41.6C3.84007 40.99 3.70007 40.43 3.71007 39.88C3.74007 38.54 4.73007 37.52 6.06007 37.51C12.1601 37.49 18.2601 37.49 24.3601 37.51C25.8101 37.51 26.8601 38.75 26.7601 40.23C26.7301 40.66 26.6001 41.09 26.5001 41.56Z" stroke="#F88D7F" stroke-width="2" stroke-miterlimit="10"/>
<path d="M44.9699 37.12C39.2699 31.82 33.5799 26.52 27.8799 21.22C27.3399 20.72 25.7099 19.1 24.7699 18.19C25.8099 17.16 26.7699 16.21 27.5199 15.46C28.5199 16.3 29.6799 16.23 30.6899 15.27C31.3099 14.68 31.9099 14.07 32.4999 13.46C33.5999 12.33 33.6299 11.15 32.5399 10.05C29.6099 7.08999 26.6699 4.12999 23.6799 1.21999C23.2499 0.809993 22.5299 0.539993 21.9199 0.509993C20.5799 0.439993 17.7399 3.43999 17.5599 4.87999C17.8499 5.39999 18.0599 6.00999 18.4399 6.43999C15.8599 9.01999 10.8799 13.92 8.39991 16.41C8.37991 16.39 8.34991 16.36 8.32991 16.34C7.38991 15.41 6.15991 15.45 5.17991 16.34C4.52991 16.94 3.91991 17.58 3.29991 18.21C2.18991 19.34 2.16991 20.59 3.26991 21.71C6.17991 24.65 9.10991 27.58 12.0599 30.48C12.4799 30.89 13.0999 31.11 13.5299 31.36C14.0699 31.21 14.4999 31.23 14.7099 31.02C15.7999 29.95 16.9199 28.88 17.8599 27.68C18.3799 27.01 18.1299 26.14 17.5099 25.52C17.4799 25.49 17.4599 25.47 17.4299 25.44C18.1799 24.69 19.1599 23.72 20.2299 22.67C20.8599 23.33 21.8699 24.39 22.0199 24.56C24.2299 26.95 26.4499 29.34 28.6699 31.73C32.1599 35.49 35.6399 39.24 39.1199 43C40.1799 44.15 41.4599 44.74 43.0199 44.44C44.7199 44.11 45.8599 43.06 46.3199 41.4C46.7899 39.72 46.2199 38.3 44.9499 37.13L44.9699 37.12Z" stroke="#F88D7F" stroke-width="2" stroke-miterlimit="10"/>
</g>
<defs>
<clipPath id="clip0_501_344">
<rect width="47" height="48.08" fill="white"/>
</clipPath>
</defs>
</svg>
