<svg width="50" height="50" viewBox="0 0 50 50" fill="none" xmlns="http://www.w3.org/2000/svg">
<path d="M44.9967 24.4975V24.4875C44.9967 18.5694 42.4202 13.2547 38.3289 9.59981L38.3089 9.58315C38.2583 9.52871 38.2019 9.48008 38.1406 9.43815L38.1372 9.43649C34.5033 6.24624 29.8305 4.49107 24.995 4.50003C19.9421 4.50003 15.3291 6.37662 11.8128 9.47315L11.8344 9.45482C11.7922 9.48712 11.7531 9.5234 11.7178 9.56315C9.60392 11.4351 7.91189 13.7365 6.75377 16.3117C5.59565 18.887 4.99786 21.6788 5.00001 24.5025C5.00001 30.4189 7.57312 35.7337 11.6611 39.3902L11.6811 39.4068C11.7343 39.4667 11.7935 39.5208 11.8578 39.5685L11.8611 39.5702C15.4939 42.7561 20.1632 44.5087 24.995 44.5C29.8494 44.5074 34.5387 42.7385 38.1789 39.5268L38.1572 39.5452C40.3078 37.6754 42.0317 35.3654 43.2122 32.7716C44.3928 30.1778 45.0025 27.3607 45 24.5108V24.4992L44.9967 24.4975ZM37.5606 37.5053C36.5696 36.7044 35.5043 36.0002 34.3792 35.402L34.2709 35.3487C35.2925 32.4038 35.9074 29.009 35.9657 25.4775V25.4508H43.0668C42.828 30.0198 40.8615 34.3271 37.5656 37.5003L37.5606 37.5053ZM25.9516 34.997C28.0897 35.112 30.0879 35.582 31.9311 36.347L31.8111 36.3037C30.3346 39.6702 28.2564 41.9834 25.9516 42.4917V34.997ZM25.9516 33.0905V25.4508H34.0642C33.9997 28.6144 33.4512 31.7495 32.4377 34.7471L32.5027 34.5287C30.434 33.6771 28.2332 33.191 25.9982 33.0921L25.9533 33.0905H25.9516ZM25.9516 23.5442V15.9045C28.2467 15.8001 30.5063 15.2977 32.6294 14.4196L32.4977 14.4679C33.4226 17.1662 33.9909 20.276 34.0642 23.5092V23.5442H25.9516ZM25.9516 13.998V6.50661C28.2564 7.01493 30.3346 9.31816 31.8111 12.6947C30.0879 13.4113 28.0897 13.8796 25.9999 13.9963L25.9516 13.998ZM30.7079 7.33158C32.6722 7.98535 34.5089 8.97313 36.1374 10.2515L36.0991 10.2215C35.3608 10.8014 34.5325 11.3481 33.6593 11.8231L33.566 11.8697C32.8621 10.2034 31.8917 8.66273 30.6929 7.30825L30.7079 7.32658V7.33158ZM24.0417 6.51161V13.998C21.9861 13.8932 19.9636 13.4366 18.0622 12.648L18.1822 12.6913C19.6654 9.32482 21.7403 7.01326 24.0451 6.50495L24.0417 6.51161ZM16.429 11.8647C15.5259 11.3783 14.6652 10.8169 13.8559 10.1865L13.8959 10.2165C15.4769 8.97559 17.2563 8.01093 19.1588 7.36324L19.2855 7.32491C18.1192 8.64357 17.1691 10.1387 16.4707 11.7547L16.429 11.8647ZM24.0451 15.9029V23.5425H15.9324C16.0058 20.2744 16.574 17.1645 17.564 14.2479L17.499 14.4663C19.5677 15.3138 21.7668 15.7991 24.0001 15.9012L24.0451 15.9029ZM24.0451 25.4491V33.0888C21.7499 33.1932 19.4904 33.6957 17.3673 34.5737L17.499 34.5254C16.574 31.8288 16.0058 28.7173 15.9324 25.4841V25.4491H24.0451ZM24.0451 34.9954V42.4867C21.7403 41.9784 19.6621 39.6752 18.1856 36.2987C19.9088 35.582 21.9069 35.1154 23.9967 34.9987L24.0451 34.9954ZM19.2955 41.6618C17.3329 41.007 15.4967 40.0217 13.8659 38.7485L13.9059 38.7785C14.6442 38.1986 15.4725 37.6519 16.3457 37.1769L16.439 37.1303C17.1376 38.797 18.1079 40.3361 19.3105 41.6851L19.2955 41.6684V41.6618ZM33.5676 37.1286C34.5342 37.6536 35.3625 38.1986 36.1407 38.8069L36.1007 38.7769C34.5198 40.0177 32.7404 40.9824 30.8378 41.6301L30.7112 41.6684C31.8774 40.3503 32.8274 38.8557 33.526 37.2403L33.5676 37.132V37.1286ZM43.0668 23.5442H35.9657C35.9136 20.096 35.3186 16.6776 34.2026 13.4146L34.2709 13.6446C35.448 13.0246 36.5626 12.2924 37.5989 11.4581L37.5589 11.4881C40.8492 14.6484 42.8167 18.9403 43.0635 23.4959L43.0668 23.5442ZM12.436 11.4897C13.396 12.2697 14.4742 12.9847 15.6174 13.593L15.7258 13.6463C14.7042 16.5912 14.0892 19.986 14.0309 23.5175V23.5442H6.92818C7.16698 18.9752 9.13352 14.6679 12.4294 11.4947L12.436 11.4897ZM6.92984 25.4508H14.0309C14.083 28.899 14.6781 32.3174 15.7941 35.5804L15.7258 35.3504C14.4742 36.0153 13.3976 36.7303 12.3977 37.5369L12.4377 37.5069C9.14742 34.3466 7.17996 30.0547 6.93318 25.4991L6.93151 25.4525L6.92984 25.4508Z" fill="#F88D7F"/>
</svg>
