<svg width="50" height="50" viewBox="0 0 50 50" fill="none" xmlns="http://www.w3.org/2000/svg">
<g clip-path="url(#clip0_495_418)">
<path d="M39.7045 10.2931L30.8818 26.4681H48.5272L39.7045 10.2931ZM10.2956 10.2931L1.47289 26.4681H19.1183L10.2956 10.2931ZM29.1587 5.88179C28.9442 6.49448 28.5958 7.04206 28.1133 7.52456C27.6308 8.00705 27.0832 8.35551 26.4705 8.56995V38.2316H40.4397C40.6542 38.2316 40.8303 38.3006 40.9682 38.4384C41.106 38.5763 41.175 38.7524 41.175 38.9669V40.4373C41.175 40.6517 41.106 40.8279 40.9682 40.9657C40.8303 41.1036 40.6542 41.1725 40.4397 41.1725H9.56035C9.34591 41.1725 9.16976 41.1036 9.03191 40.9657C8.89405 40.8279 8.82513 40.6517 8.82513 40.4373V38.9669C8.82513 38.7524 8.89405 38.5763 9.03191 38.4384C9.16976 38.3006 9.34591 38.2316 9.56035 38.2316H23.5296V8.56995C22.9169 8.35551 22.3693 8.00705 21.8868 7.52456C21.4043 7.04206 21.0559 6.49448 20.8414 5.88179H9.56035C9.34591 5.88179 9.16976 5.81286 9.03191 5.67501C8.89405 5.53715 8.82513 5.36101 8.82513 5.14657V3.67612C8.82513 3.46168 8.89405 3.28553 9.03191 3.14768C9.16976 3.00982 9.34591 2.94089 9.56035 2.94089H20.8414C21.1631 2.06782 21.6992 1.3594 22.4497 0.815639C23.2003 0.27188 24.0504 0 25 0C25.9497 0 26.7998 0.27188 27.5504 0.815639C28.3009 1.3594 28.837 2.06782 29.1587 2.94089H40.4397C40.6542 2.94089 40.8303 3.00982 40.9682 3.14768C41.106 3.28553 41.175 3.46168 41.175 3.67612V5.14657C41.175 5.36101 41.106 5.53715 40.9682 5.67501C40.8303 5.81286 40.6542 5.88179 40.4397 5.88179H29.1587ZM25 6.2494C25.5055 6.2494 25.9382 6.06943 26.2982 5.70947C26.6581 5.34952 26.8381 4.91681 26.8381 4.41134C26.8381 3.90588 26.6581 3.47317 26.2982 3.11321C25.9382 2.75326 25.5055 2.57328 25 2.57328C24.4946 2.57328 24.0619 2.75326 23.7019 3.11321C23.342 3.47317 23.162 3.90588 23.162 4.41134C23.162 4.91681 23.342 5.34952 23.7019 5.70947C24.0619 6.06943 24.4946 6.2494 25 6.2494ZM49.9977 26.4681C49.9977 27.5862 49.6415 28.5895 48.9293 29.4779C48.217 30.3663 47.3172 31.0632 46.2296 31.5687C45.1421 32.0741 44.0354 32.4532 42.9096 32.706C41.7838 32.9587 40.7155 33.0851 39.7045 33.0851C38.6936 33.0851 37.6252 32.9587 36.4994 32.706C35.3736 32.4532 34.2669 32.0741 33.1794 31.5687C32.0919 31.0632 31.192 30.3663 30.4798 29.4779C29.7675 28.5895 29.4114 27.5862 29.4114 26.4681C29.4114 26.2996 29.6794 25.6792 30.2155 24.607C30.7516 23.5348 31.4562 22.1984 32.3293 20.5978C33.2024 18.9971 34.0219 17.4999 34.7877 16.106C35.5536 14.7121 36.3347 13.303 37.1312 11.8785C37.9277 10.454 38.3566 9.6881 38.4179 9.58088C38.6936 9.07542 39.1225 8.82268 39.7045 8.82268C40.2866 8.82268 40.7155 9.07542 40.9912 9.58088C41.0524 9.6881 41.4813 10.454 42.2778 11.8785C43.0743 13.303 43.8555 14.7121 44.6213 16.106C45.3872 17.4999 46.2067 18.9971 47.0797 20.5978C47.9528 22.1984 48.6574 23.5348 49.1935 24.607C49.7296 25.6792 49.9977 26.2996 49.9977 26.4681ZM20.5887 26.4681C20.5887 27.5862 20.2326 28.5895 19.5203 29.4779C18.8081 30.3663 17.9082 31.0632 16.8207 31.5687C15.7332 32.0741 14.6265 32.4532 13.5007 32.706C12.3749 32.9587 11.3065 33.0851 10.2956 33.0851C9.28464 33.0851 8.21627 32.9587 7.09046 32.706C5.96465 32.4532 4.85798 32.0741 3.77046 31.5687C2.68294 31.0632 1.78306 30.3663 1.07081 29.4779C0.358565 28.5895 0.00244141 27.5862 0.00244141 26.4681C0.00244141 26.2996 0.270492 25.6792 0.806592 24.607C1.34269 23.5348 2.04728 22.1984 2.92036 20.5978C3.79344 18.9971 4.61291 17.4999 5.37876 16.106C6.14462 14.7121 6.9258 13.303 7.72229 11.8785C8.51878 10.454 8.94766 9.6881 9.00893 9.58088C9.28464 9.07542 9.71352 8.82268 10.2956 8.82268C10.8776 8.82268 11.3065 9.07542 11.5822 9.58088C11.6435 9.6881 12.0724 10.454 12.8689 11.8785C13.6653 13.303 14.4465 14.7121 15.2124 16.106C15.9782 17.4999 16.7977 18.9971 17.6708 20.5978C18.5439 22.1984 19.2485 23.5348 19.7846 24.607C20.3207 25.6792 20.5887 26.2996 20.5887 26.4681Z" fill="#F88D7F"/>
</g>
<defs>
<clipPath id="clip0_495_418">
<rect width="50" height="50" fill="white"/>
</clipPath>
</defs>
</svg>
