<svg width="44" height="45" viewBox="0 0 44 45" fill="none" xmlns="http://www.w3.org/2000/svg">
<path d="M0.239764 22.27C0.239765 10.238 9.96777 0.510008 21.9998 0.510009C34.0318 0.510009 43.7598 10.238 43.7598 22.27C43.7598 34.302 34.0318 44.03 21.9998 44.03C9.96776 44.03 0.239764 34.302 0.239764 22.27ZM41.1998 22.27C41.1998 11.646 32.6238 3.07001 21.9998 3.07001C11.3758 3.07001 2.79977 11.646 2.79977 22.27C2.79977 32.894 11.3758 41.47 21.9998 41.47C32.6238 41.47 41.1998 32.894 41.1998 22.27Z" fill="#F88D7F"/>
<path d="M19.8242 32.894L30.4482 22.27L19.8242 11.646L21.6162 9.854L34.0322 22.27L21.6162 34.686L19.8242 32.894Z" fill="#F0D6BF"/>
<path d="M32.2402 20.99L32.2402 23.55L10.4802 23.55L10.4802 20.99L32.2402 20.99Z" fill="#F0D6BF"/>
</svg>
