<svg width="50" height="50" viewBox="0 0 50 50" fill="none" xmlns="http://www.w3.org/2000/svg">
<path d="M40.4897 8.46875H9.51058C8.12924 8.46875 6.80448 9.01748 5.82773 9.99424C4.85098 10.971 4.30225 12.2957 4.30225 13.6771V36.3229C4.30225 37.7042 4.85098 39.029 5.82773 40.0058C6.80448 40.9825 8.12924 41.5312 9.51058 41.5312H40.4897C41.8711 41.5312 43.1958 40.9825 44.1726 40.0058C45.1493 39.029 45.6981 37.7042 45.6981 36.3229V13.6771C45.6981 12.2957 45.1493 10.971 44.1726 9.99424C43.1958 9.01748 41.8711 8.46875 40.4897 8.46875ZM9.51058 10.5521H40.4897C41.2782 10.5503 42.0377 10.8486 42.6142 11.3864C43.1907 11.9242 43.541 12.6613 43.5939 13.4479C38.4481 16.1979 33.2814 18.9271 28.1147 21.6771C27.4169 22.1171 26.6772 22.487 25.9064 22.7812C25.3021 22.9009 24.6791 22.8904 24.0792 22.7502C23.4792 22.6101 22.9161 22.3437 22.4272 21.9688C19.4689 20.4062 16.5106 18.8229 13.5731 17.2604C11.1981 16.0104 8.78141 14.7396 6.40641 13.4688C6.45424 12.6784 6.80228 11.9362 7.37932 11.394C7.95636 10.8518 8.71878 10.5506 9.51058 10.5521ZM43.6147 36.3229C43.6147 37.1517 43.2855 37.9466 42.6995 38.5326C42.1134 39.1187 41.3185 39.4479 40.4897 39.4479H9.51058C8.68178 39.4479 7.88692 39.1187 7.30087 38.5326C6.71482 37.9466 6.38558 37.1517 6.38558 36.3229V15.8333C11.3022 18.4167 16.1981 21.0417 21.1147 23.6458C21.9929 24.1849 22.9387 24.6052 23.9272 24.8958C25.3739 25.1314 26.8567 24.8275 28.0939 24.0417C31.1147 22.4583 34.1147 20.8542 37.1356 19.2708C39.3022 18.1042 41.4481 16.9792 43.6147 15.8333V36.3229Z" fill="#F88D7F"/>
</svg>
