<svg width="50" height="50" viewBox="0 0 50 50" fill="none" xmlns="http://www.w3.org/2000/svg">
<path fill-rule="evenodd" clip-rule="evenodd" d="M25 25C29.6042 25 33.3333 21.2708 33.3333 16.6667C33.3333 12.0625 29.6042 8.33333 25 8.33333C20.3958 8.33333 16.6667 12.0625 16.6667 16.6667C16.6667 21.2708 20.3958 25 25 25ZM35.4167 16.6667C35.4167 22.4219 30.7552 27.0833 25 27.0833C19.2448 27.0833 14.5833 22.4219 14.5833 16.6667C14.5833 10.9115 19.2448 6.25 25 6.25C30.7552 6.25 35.4167 10.9115 35.4167 16.6667ZM9.60729 35.6375C8.5625 36.4813 8.33333 37.1135 8.33333 37.5V41.6667H41.6667V37.5C41.6667 37.1146 41.4375 36.4802 40.3917 35.6375C39.3708 34.8135 37.8479 34.0281 36.0021 33.349C32.3125 31.9917 27.8677 31.25 25 31.25C22.1323 31.25 17.6875 31.9917 13.9979 33.349C12.1521 34.0281 10.6292 34.8135 9.60729 35.6375ZM25 29.1667C18.7427 29.1667 6.25 32.3281 6.25 37.5V43.75H43.75V37.5C43.75 32.3281 31.2583 29.1667 25 29.1667Z" fill="#F88D7F"/>
</svg>
