<svg width="74" height="81" viewBox="0 0 74 81" fill="none" xmlns="http://www.w3.org/2000/svg">
<g clip-path="url(#clip0_71_1253)">
<g filter="url(#filter0_d_71_1253)">
<path d="M0 13.2753C5.48184 9.51877 10.9581 5.75253 16.4552 2.01829C17.0263 1.62998 17.7096 1.38919 18.368 1.15119C21.7208 -0.0638585 23.5518 0.435802 25.2719 3.54372C27.4827 7.53683 29.4231 11.6789 31.4274 15.6511C32.3061 15.9531 33.1419 16.2412 33.9791 16.5293C33.5993 17.1877 33.2182 17.846 32.6942 18.7562C33.0269 19.4869 33.4898 20.5016 33.8142 21.2128C34.8842 21.5065 35.6853 21.7264 36.4879 21.9463C36.1538 22.6102 35.8184 23.2741 35.2557 24.3917C35.4927 24.947 35.9542 26.0285 36.2896 26.8134C37.3971 27.096 38.2412 27.3103 39.0853 27.526C38.6792 28.2289 38.2745 28.9332 37.6923 29.9436C37.9682 30.5922 38.4048 31.6152 38.7152 32.3431C39.8712 32.634 40.7735 32.8595 41.6758 33.0863C41.2295 33.7641 40.7846 34.4434 40.0985 35.4858C40.3591 36.0899 40.822 37.163 41.0923 37.7879C42.4021 38.1762 43.3363 38.4518 44.2705 38.7287C43.7605 39.3829 43.249 40.0384 42.5019 40.9974C43.9393 44.3962 45.5526 48.1931 47.1494 51.9955C48.7835 55.887 50.3872 59.7897 52.0366 63.6742C52.39 64.5079 52.7851 65.3569 53.3284 66.0723C54.4012 67.4836 55.8441 68.0849 57.6044 67.5226C59.4464 66.9338 60.1339 65.4502 59.944 63.7201C59.6294 60.8572 59.2399 57.9803 58.5691 55.1855C57.1844 49.4165 55.2315 43.8534 51.4101 38.6452C58.9738 37.9786 66.2506 37.3369 74 36.6549C73.0145 37.4093 72.3603 37.8756 71.7435 38.3877C67.7087 41.7378 66.5777 46.1429 67.3733 51.127C67.8487 54.1083 68.7552 57.0227 69.1724 60.0082C69.6256 63.2525 70.381 66.6485 69.8723 69.794C68.5348 78.0558 59.2829 82.6279 50.8196 79.6077C46.1708 77.9486 42.9302 74.7516 41.2781 70.1169C34.5751 51.3038 27.9248 32.4712 21.312 13.626C19.7416 9.15133 18.1019 7.82354 13.4946 8.8006C10.595 9.41578 7.86447 10.8382 5.06325 11.9127C3.41939 12.5418 1.78524 13.1973 0.146922 13.8404C0.0984098 13.6525 0.0485119 13.4646 0 13.2767L0 13.2753Z" fill="#CC9D8F" fill-opacity="0.5" shape-rendering="crispEdges"/>
<path d="M31.4274 15.6511C30.8255 14.4582 30.2294 13.25 29.6299 12.0352C28.2333 9.20457 26.8188 6.33769 25.2719 3.54372C23.5518 0.435802 21.7208 -0.0638584 18.368 1.15119C18.3469 1.15882 18.3258 1.16645 18.3046 1.17409C17.6659 1.40478 17.008 1.64242 16.4552 2.01829C12.2029 4.90696 7.96298 7.81478 3.72332 10.7224C2.99987 11.2186 2.27643 11.7147 1.55294 12.2108C2.60026 11.7969 3.65262 11.3818 4.70576 10.9788L31.4274 15.6511ZM31.4274 15.6511C31.9698 15.8375 32.4958 16.0186 33.0159 16.1977L31.4274 15.6511ZM2.02535 13.0994C3.03646 12.6998 4.04801 12.3012 5.06325 11.9127C5.90554 11.5896 6.74144 11.2351 7.57746 10.8805L2.02535 13.0994ZM2.02535 13.0994C2.78041 12.5817 3.53533 12.0639 4.29018 11.5462C4.45711 11.4318 4.62403 11.3173 4.79096 11.2028L2.02535 13.0994ZM32.5064 17.0799C32.0463 16.9215 31.5808 16.7613 31.1023 16.5968L30.7178 16.4646L30.5346 16.1016C29.9241 14.8916 29.3232 13.6737 28.7212 12.4537C27.3294 9.63278 25.932 6.80057 24.397 4.02808L24.397 4.02796C23.5877 2.56571 22.8611 1.92175 22.1179 1.67566C21.3519 1.42204 20.3225 1.50653 18.7087 2.09136L18.7079 2.09163C18.0177 2.34114 17.4641 2.54158 17.0175 2.84522L17.0171 2.84548C13.233 5.41611 9.45902 8.00167 5.68486 10.5898C6.17656 10.3886 6.66326 10.182 7.15651 9.97265C7.71239 9.73671 8.2766 9.49724 8.86565 9.25794C10.2797 8.6835 11.7512 8.14823 13.2871 7.82237L13.2872 7.82235C15.6658 7.31792 17.5633 7.33904 19.0875 8.33071C20.5725 9.29694 21.4641 11.0397 22.2555 13.2949L22.2555 13.2949C28.868 32.1388 35.5177 50.9698 42.22 69.7811C43.7695 74.1278 46.7842 77.1058 51.1557 78.6659C59.1583 81.5217 67.668 77.152 68.8852 69.6344C69.2718 67.2437 68.8795 64.7116 68.4662 62.044C68.3694 61.419 68.2714 60.7864 68.182 60.1466C67.9802 58.7023 67.6588 57.2666 67.32 55.7896C67.2984 55.6957 67.2768 55.6016 67.2551 55.5073C66.9391 54.1316 66.6142 52.7172 66.3857 51.2845M32.5064 17.0799L67.3733 51.127M32.5064 17.0799C32.303 17.4323 32.082 17.8154 31.8275 18.2574L31.5712 18.7028L31.7841 19.1706C32.046 19.7459 32.3887 20.4971 32.6808 21.1376C32.7598 21.311 32.8352 21.4762 32.9043 21.6277L33.0984 22.0533L33.5495 22.1771L33.8096 22.2485C34.2613 22.3725 34.6655 22.4834 35.045 22.5875C34.8539 22.9665 34.6351 23.4005 34.3625 23.942L34.1535 24.3569L34.3359 24.7842L34.3509 24.8193C34.5919 25.384 35.0415 26.4374 35.3701 27.2064L35.5641 27.6604L36.0424 27.7824C36.5404 27.9094 36.9843 28.0225 37.3988 28.128C37.4531 28.1419 37.5069 28.1556 37.5602 28.1691C37.497 28.279 37.4319 28.3919 37.3647 28.5088C37.2007 28.7935 37.0234 29.1014 36.8258 29.4444L36.577 29.8763L36.7721 30.335C36.9948 30.8586 37.3221 31.6259 37.6032 32.2849C37.6706 32.4429 37.7354 32.5947 37.7954 32.7354L37.9901 33.1918L38.4712 33.3129C39.0558 33.46 39.5775 33.5909 40.0669 33.7136C39.8323 34.0707 39.5712 34.4681 39.2632 34.9361L38.9667 35.3866L39.1803 35.8819C39.4408 36.4858 39.904 37.5594 40.1745 38.1848L40.36 38.6138L40.8081 38.7466C41.5004 38.9519 42.0638 39.1185 42.5795 39.2711L32.5064 17.0799ZM66.3857 51.2845L67.3733 51.127M66.3857 51.2845C66.3857 51.2845 66.3858 51.2846 66.3858 51.2846L67.3733 51.127M66.3857 51.2845C65.5721 46.1871 66.6726 41.5281 70.7206 37.9475M67.3733 51.127C66.5777 46.1429 67.7087 41.7378 71.7435 38.3877C71.9835 38.1884 72.2292 37.9961 72.4978 37.791C72.1086 37.8253 71.7203 37.8595 71.3331 37.8936C71.1287 37.9116 70.9245 37.9295 70.7206 37.9475M70.7206 37.9475C70.8458 37.8368 70.9738 37.7271 71.1046 37.6184C71.4205 37.3561 71.7524 37.1003 72.1229 36.8202M70.7206 37.9475L72.1229 36.8202M72.1229 36.8202C72.7458 36.7653 73.3713 36.7103 74 36.6549L72.1229 36.8202ZM52.0805 39.59C51.8636 39.2738 51.6402 38.9589 51.4101 38.6452L52.5694 38.543C52.7924 38.8574 53.0088 39.173 53.2191 39.4897L52.0805 39.59ZM51.1161 64.065L52.0366 63.6742L51.1159 64.0645C51.116 64.0647 51.1161 64.0649 51.1161 64.065ZM43.2403 38.4237C43.5955 38.5288 43.933 38.6287 44.2705 38.7287C44.1535 38.8789 44.0364 39.029 43.9163 39.183C43.8167 39.3107 43.7151 39.441 43.6099 39.576L43.2403 38.4237Z" stroke="#F0D6BF" stroke-width="2" shape-rendering="crispEdges"/>
</g>
</g>
<defs>
<filter id="filter0_d_71_1253" x="-4" y="-3.45947" width="82" height="88.0015" filterUnits="userSpaceOnUse" color-interpolation-filters="sRGB">
<feFlood flood-opacity="0" result="BackgroundImageFix"/>
<feColorMatrix in="SourceAlpha" type="matrix" values="0 0 0 0 0 0 0 0 0 0 0 0 0 0 0 0 0 0 127 0" result="hardAlpha"/>
<feOffset/>
<feGaussianBlur stdDeviation="2"/>
<feComposite in2="hardAlpha" operator="out"/>
<feColorMatrix type="matrix" values="0 0 0 0 1 0 0 0 0 1 0 0 0 0 1 0 0 0 0.5 0"/>
<feBlend mode="normal" in2="BackgroundImageFix" result="effect1_dropShadow_71_1253"/>
<feBlend mode="normal" in="SourceGraphic" in2="effect1_dropShadow_71_1253" result="shape"/>
</filter>
<clipPath id="clip0_71_1253">
<rect width="74" height="80" fill="white" transform="translate(0 0.540039)"/>
</clipPath>
</defs>
</svg>
