<svg width="50" height="50" viewBox="0 0 50 50" fill="none" xmlns="http://www.w3.org/2000/svg">
<path d="M42.577 22.9167H7.42285C6.59405 22.9167 5.79919 22.5874 5.21314 22.0014C4.62709 21.4153 4.29785 20.6205 4.29785 19.7917V11.5938C4.29785 10.7649 4.62709 9.97009 5.21314 9.38404C5.79919 8.79799 6.59405 8.46875 7.42285 8.46875H42.577C43.4058 8.46875 44.2007 8.79799 44.7867 9.38404C45.3728 9.97009 45.702 10.7649 45.702 11.5938V19.7812C45.7034 20.1925 45.6236 20.6 45.4671 20.9803C45.3107 21.3607 45.0807 21.7064 44.7904 21.9977C44.5001 22.289 44.1551 22.5201 43.7753 22.6778C43.3955 22.8355 42.9883 22.9167 42.577 22.9167ZM7.42285 10.5521C7.14658 10.5521 6.88163 10.6618 6.68628 10.8572C6.49093 11.0525 6.38118 11.3175 6.38118 11.5938V19.7812C6.38118 20.0575 6.49093 20.3225 6.68628 20.5178C6.88163 20.7132 7.14658 20.8229 7.42285 20.8229H42.577C42.8533 20.8229 43.1182 20.7132 43.3136 20.5178C43.5089 20.3225 43.6187 20.0575 43.6187 19.7812V11.5938C43.6187 11.3175 43.5089 11.0525 43.3136 10.8572C43.1182 10.6618 42.8533 10.5521 42.577 10.5521H7.42285ZM42.577 41.5312H7.42285C6.59405 41.5312 5.79919 41.202 5.21314 40.616C4.62709 40.0299 4.29785 39.235 4.29785 38.4062V30.2188C4.29785 29.3899 4.62709 28.5951 5.21314 28.009C5.79919 27.423 6.59405 27.0938 7.42285 27.0938H42.577C43.4058 27.0938 44.2007 27.423 44.7867 28.009C45.3728 28.5951 45.702 29.3899 45.702 30.2188V38.4062C45.702 39.235 45.3728 40.0299 44.7867 40.616C44.2007 41.202 43.4058 41.5312 42.577 41.5312ZM7.42285 29.1771C7.14658 29.1771 6.88163 29.2868 6.68628 29.4822C6.49093 29.6775 6.38118 29.9425 6.38118 30.2188V38.4062C6.38118 38.6825 6.49093 38.9475 6.68628 39.1428C6.88163 39.3382 7.14658 39.4479 7.42285 39.4479H42.577C42.8533 39.4479 43.1182 39.3382 43.3136 39.1428C43.5089 38.9475 43.6187 38.6825 43.6187 38.4062V30.2188C43.6187 29.9425 43.5089 29.6775 43.3136 29.4822C43.1182 29.2868 42.8533 29.1771 42.577 29.1771H7.42285Z" fill="#F88D7F"/>
<path d="M11.5895 16.7291C12.1648 16.7291 12.6312 16.2628 12.6312 15.6875C12.6312 15.1122 12.1648 14.6458 11.5895 14.6458C11.0142 14.6458 10.5479 15.1122 10.5479 15.6875C10.5479 16.2628 11.0142 16.7291 11.5895 16.7291Z" fill="#F88D7F"/>
<path d="M15.7565 16.7291C16.3318 16.7291 16.7982 16.2628 16.7982 15.6875C16.7982 15.1122 16.3318 14.6458 15.7565 14.6458C15.1812 14.6458 14.7148 15.1122 14.7148 15.6875C14.7148 16.2628 15.1812 16.7291 15.7565 16.7291Z" fill="#F88D7F"/>
<path d="M28.0251 16.7291C27.7488 16.7291 27.4838 16.6194 27.2885 16.424C27.0931 16.2287 26.9834 15.9637 26.9834 15.6875C26.9834 15.4112 27.0931 15.1463 27.2885 14.9509C27.4838 14.7556 27.7488 14.6458 28.0251 14.6458H38.4417C38.718 14.6458 38.983 14.7556 39.1783 14.9509C39.3737 15.1463 39.4834 15.4112 39.4834 15.6875C39.4834 15.9637 39.3737 16.2287 39.1783 16.424C38.983 16.6194 38.718 16.7291 38.4417 16.7291H28.0251Z" fill="#F88D7F"/>
<path d="M11.5895 35.3541C12.1648 35.3541 12.6312 34.8878 12.6312 34.3125C12.6312 33.7372 12.1648 33.2708 11.5895 33.2708C11.0142 33.2708 10.5479 33.7372 10.5479 34.3125C10.5479 34.8878 11.0142 35.3541 11.5895 35.3541Z" fill="#F88D7F"/>
<path d="M15.7565 35.3541C16.3318 35.3541 16.7982 34.8878 16.7982 34.3125C16.7982 33.7372 16.3318 33.2708 15.7565 33.2708C15.1812 33.2708 14.7148 33.7372 14.7148 34.3125C14.7148 34.8878 15.1812 35.3541 15.7565 35.3541Z" fill="#F88D7F"/>
<path d="M28.0251 35.3541C27.7488 35.3541 27.4838 35.2444 27.2885 35.049C27.0931 34.8537 26.9834 34.5887 26.9834 34.3125C26.9834 34.0362 27.0931 33.7713 27.2885 33.5759C27.4838 33.3806 27.7488 33.2708 28.0251 33.2708H38.4417C38.718 33.2708 38.983 33.3806 39.1783 33.5759C39.3737 33.7713 39.4834 34.0362 39.4834 34.3125C39.4834 34.5887 39.3737 34.8537 39.1783 35.049C38.983 35.2444 38.718 35.3541 38.4417 35.3541H28.0251Z" fill="#F88D7F"/>
</svg>
