<svg width="50" height="50" viewBox="0 0 50 50" fill="none" xmlns="http://www.w3.org/2000/svg">
<path d="M20.5006 31C20.0846 31 19.7305 30.8601 19.4383 30.5804C19.1461 30.3007 19 29.9621 19 29.5644V21.7689C19 21.3719 19.1461 21.0332 19.4383 20.7529C19.7305 20.4732 20.0846 20.3333 20.5006 20.3333H21.7857V18.5556C21.7857 17.5653 22.1463 16.7253 22.8675 16.0356C23.5881 15.3452 24.4656 15 25.5 15C26.5344 15 27.4122 15.3452 28.1334 16.0356C28.8546 16.7259 29.2149 17.5659 29.2143 18.5556V20.3333H30.5004C30.9151 20.3333 31.2689 20.4732 31.5617 20.7529C31.8539 21.0326 32 21.3716 32 21.7698V29.5644C32 29.9615 31.8539 30.3001 31.5617 30.5804C31.2695 30.8601 30.9157 31 30.5004 31H20.5006ZM20.5006 30.1111H30.5004C30.6669 30.1111 30.8037 30.0599 30.9108 29.9573C31.0179 29.8548 31.0714 29.7239 31.0714 29.5644V21.7689C31.0714 21.6095 31.0179 21.4785 30.9108 21.376C30.8037 21.2735 30.6669 21.2222 30.5004 21.2222H20.4996C20.3331 21.2222 20.1963 21.2735 20.0892 21.376C19.9821 21.4785 19.9286 21.6098 19.9286 21.7698V29.5644C19.9286 29.7239 19.9821 29.8548 20.0892 29.9573C20.1963 30.0599 20.3334 30.1111 20.5006 30.1111ZM22.7143 20.3333H28.2857V18.5556C28.2857 17.8148 28.0149 17.1852 27.4732 16.6667C26.9315 16.1481 26.2738 15.8889 25.5 15.8889C24.7262 15.8889 24.0685 16.1481 23.5268 16.6667C22.9851 17.1852 22.7143 17.8148 22.7143 18.5556V20.3333Z" fill="#F88D7F"/>
<path d="M19.9286 30.1111V21.2222M20.5006 31C20.0846 31 19.7305 30.8601 19.4383 30.5804C19.1461 30.3007 19 29.9621 19 29.5644V21.7689C19 21.3719 19.1461 21.0332 19.4383 20.7529C19.7305 20.4732 20.0846 20.3333 20.5006 20.3333H21.7857V18.5556C21.7857 17.5653 22.1463 16.7253 22.8675 16.0356C23.5881 15.3452 24.4656 15 25.5 15C26.5344 15 27.4122 15.3452 28.1334 16.0356C28.8546 16.7259 29.2149 17.5659 29.2143 18.5556V20.3333H30.5004C30.9151 20.3333 31.2689 20.4732 31.5617 20.7529C31.8539 21.0326 32 21.3716 32 21.7698V29.5644C32 29.9615 31.8539 30.3001 31.5617 30.5804C31.2695 30.8601 30.9157 31 30.5004 31H20.5006ZM20.5006 30.1111H30.5004C30.6669 30.1111 30.8037 30.0599 30.9108 29.9573C31.0179 29.8548 31.0714 29.7239 31.0714 29.5644V21.7689C31.0714 21.6095 31.0179 21.4785 30.9108 21.376C30.8037 21.2735 30.6669 21.2222 30.5004 21.2222H20.4996C20.3331 21.2222 20.1963 21.2735 20.0892 21.376C19.9821 21.4785 19.9286 21.6098 19.9286 21.7698V29.5644C19.9286 29.7239 19.9821 29.8548 20.0892 29.9573C20.1963 30.0599 20.3334 30.1111 20.5006 30.1111ZM22.7143 20.3333H28.2857V18.5556C28.2857 17.8148 28.0149 17.1852 27.4732 16.6667C26.9315 16.1481 26.2738 15.8889 25.5 15.8889C24.7262 15.8889 24.0685 16.1481 23.5268 16.6667C22.9851 17.1852 22.7143 17.8148 22.7143 18.5556V20.3333Z" stroke="#F88D7F"/>
<path d="M25.2927 47.5L27.5412 46.5285C32.2556 44.5054 36.3267 41.2309 39.3134 37.0598C42.3001 32.8886 44.0886 27.9797 44.4851 22.8649L45.5842 8.75819C45.6021 8.17398 45.4189 7.60134 45.0652 7.13602C44.7116 6.6707 44.2088 6.34091 43.6412 6.20181L25.2927 1.5L6.9442 6.1C6.37673 6.23906 5.87417 6.56866 5.52052 7.03373C5.16686 7.4988 4.98353 8.07115 5.00116 8.65515L6.10026 22.7618C6.49658 27.8769 8.28496 32.786 11.2717 36.9574C14.2584 41.1288 18.3296 44.4035 23.0442 46.4267L25.2927 47.5Z" stroke="#F88D7F" stroke-width="2" stroke-linecap="round" stroke-linejoin="round"/>
</svg>
