<svg width="360" height="119" viewBox="0 0 360 119" fill="none" xmlns="http://www.w3.org/2000/svg">
<path d="M151.609 24.18C150.895 24.18 150.284 24.068 149.775 23.844C149.271 23.6154 148.884 23.2724 148.613 22.815C148.342 22.3577 148.207 21.7884 148.207 21.107C148.207 21.0137 148.207 20.9344 148.207 20.869C148.207 20.8037 148.207 20.7244 148.207 20.631H149.404C149.404 20.7197 149.404 20.7944 149.404 20.855C149.404 20.9157 149.404 20.9927 149.404 21.086C149.404 21.8 149.591 22.3157 149.964 22.633C150.337 22.9457 150.881 23.102 151.595 23.102C152.332 23.102 152.89 22.976 153.268 22.724C153.646 22.472 153.835 22.0637 153.835 21.499C153.835 21.1024 153.725 20.7734 153.506 20.512C153.291 20.246 152.993 20.022 152.61 19.84C152.227 19.6534 151.782 19.483 151.273 19.329C150.699 19.1517 150.186 18.9277 149.733 18.657C149.285 18.3864 148.93 18.0527 148.669 17.656C148.412 17.2547 148.284 16.767 148.284 16.193C148.284 15.633 148.419 15.1594 148.69 14.772C148.965 14.3847 149.348 14.0907 149.838 13.89C150.328 13.6894 150.897 13.589 151.546 13.589C152.232 13.589 152.827 13.6964 153.331 13.911C153.84 14.121 154.232 14.443 154.507 14.877C154.787 15.3064 154.927 15.8477 154.927 16.501C154.927 16.6037 154.927 16.6924 154.927 16.767C154.927 16.837 154.927 16.9234 154.927 17.026H153.73C153.73 16.9374 153.73 16.858 153.73 16.788C153.73 16.718 153.73 16.6387 153.73 16.55C153.73 15.8687 153.546 15.3857 153.177 15.101C152.808 14.8117 152.272 14.667 151.567 14.667C150.89 14.667 150.368 14.786 149.999 15.024C149.63 15.262 149.446 15.6517 149.446 16.193C149.446 16.599 149.558 16.935 149.782 17.201C150.011 17.4624 150.321 17.6864 150.713 17.873C151.105 18.055 151.553 18.23 152.057 18.398C152.668 18.5987 153.193 18.8274 153.632 19.084C154.075 19.336 154.414 19.651 154.647 20.029C154.885 20.407 155.004 20.883 155.004 21.457C155.004 22.031 154.866 22.521 154.591 22.927C154.32 23.333 153.931 23.6434 153.422 23.858C152.918 24.0727 152.314 24.18 151.609 24.18ZM160.589 24.173C159.842 24.173 159.182 24.0074 158.608 23.676C158.038 23.34 157.59 22.8827 157.264 22.304C156.942 21.7207 156.781 21.058 156.781 20.316C156.781 19.574 156.942 18.916 157.264 18.342C157.59 17.768 158.038 17.3177 158.608 16.991C159.182 16.6644 159.842 16.501 160.589 16.501C161.335 16.501 161.993 16.6644 162.563 16.991C163.137 17.3177 163.585 17.768 163.907 18.342C164.233 18.916 164.397 19.574 164.397 20.316C164.397 21.058 164.233 21.7207 163.907 22.304C163.585 22.8827 163.137 23.34 162.563 23.676C161.993 24.0074 161.335 24.173 160.589 24.173ZM160.589 23.081C161.102 23.081 161.555 22.9667 161.947 22.738C162.339 22.5094 162.644 22.1874 162.864 21.772C163.088 21.3567 163.2 20.8714 163.2 20.316C163.2 19.7607 163.088 19.28 162.864 18.874C162.644 18.4634 162.339 18.1484 161.947 17.929C161.555 17.705 161.102 17.593 160.589 17.593C160.08 17.593 159.627 17.705 159.231 17.929C158.839 18.1484 158.531 18.4634 158.307 18.874C158.087 19.28 157.978 19.7607 157.978 20.316C157.978 20.8714 158.087 21.3567 158.307 21.772C158.531 22.1874 158.839 22.5094 159.231 22.738C159.627 22.9667 160.08 23.081 160.589 23.081ZM171.855 24.04V20.477C171.855 20.2624 171.855 20.0874 171.855 19.952C171.855 19.812 171.855 19.679 171.855 19.553C171.855 19.1657 171.79 18.8274 171.659 18.538C171.529 18.2487 171.323 18.0247 171.043 17.866C170.763 17.7074 170.397 17.628 169.944 17.628C169.548 17.628 169.179 17.7307 168.838 17.936C168.502 18.1367 168.232 18.4097 168.026 18.755C167.826 19.0957 167.725 19.4784 167.725 19.903L167.046 19.644C167.046 19.0607 167.189 18.531 167.473 18.055C167.763 17.579 168.145 17.201 168.621 16.921C169.102 16.6364 169.625 16.494 170.189 16.494C170.763 16.494 171.265 16.6037 171.694 16.823C172.124 17.0424 172.455 17.3574 172.688 17.768C172.926 18.174 173.045 18.664 173.045 19.238C173.045 19.4434 173.045 19.6674 173.045 19.91C173.045 20.1527 173.045 20.379 173.045 20.589V24.04H171.855ZM166.535 24.04V16.606H167.725V24.04H166.535ZM180.147 23.585C180.549 23.6177 180.901 23.6924 181.204 23.809C181.512 23.921 181.753 24.0867 181.925 24.306C182.098 24.53 182.184 24.8217 182.184 25.181C182.184 25.5777 182.049 25.9277 181.778 26.231C181.508 26.539 181.097 26.7794 180.546 26.952C179.996 27.1247 179.303 27.211 178.467 27.211C177.287 27.211 176.395 27.0384 175.793 26.693C175.191 26.3524 174.89 25.8857 174.89 25.293C174.89 25.1064 174.911 24.9407 174.953 24.796C175 24.656 175.051 24.5417 175.107 24.453L176.241 24.621C176.204 24.6724 176.167 24.7494 176.129 24.852C176.097 24.9594 176.08 25.083 176.08 25.223C176.08 25.5964 176.293 25.8577 176.717 26.007C177.142 26.161 177.744 26.238 178.523 26.238C179.107 26.238 179.585 26.1984 179.958 26.119C180.332 26.0397 180.609 25.9254 180.791 25.776C180.973 25.6267 181.064 25.4517 181.064 25.251C181.064 24.9477 180.936 24.7587 180.679 24.684C180.427 24.614 180.115 24.565 179.741 24.537L176.913 24.327C176.442 24.2897 176.057 24.145 175.758 23.893C175.464 23.6364 175.317 23.326 175.317 22.962C175.317 22.738 175.371 22.5257 175.478 22.325C175.59 22.1244 175.719 21.9564 175.863 21.821C176.013 21.681 176.146 21.597 176.262 21.569L177.2 21.996C177.084 22.0147 176.939 22.0964 176.766 22.241C176.598 22.381 176.514 22.5467 176.514 22.738C176.514 22.9107 176.582 23.053 176.717 23.165C176.853 23.2724 177.121 23.3424 177.522 23.375L180.147 23.585ZM181.176 16.606H182.296L181.834 19.532C181.75 20.078 181.575 20.5727 181.309 21.016C181.043 21.4547 180.679 21.8047 180.217 22.066C179.76 22.3227 179.193 22.451 178.516 22.451C177.812 22.451 177.21 22.3227 176.71 22.066C176.211 21.8094 175.828 21.4594 175.562 21.016C175.296 20.568 175.163 20.064 175.163 19.504C175.163 18.9347 175.301 18.4237 175.576 17.971C175.856 17.5137 176.244 17.1544 176.738 16.893C177.233 16.627 177.8 16.494 178.439 16.494C179.013 16.494 179.515 16.5944 179.944 16.795C180.374 16.991 180.712 17.2384 180.959 17.537C181.211 17.8357 181.351 18.1367 181.379 18.44L180.931 18.468L181.176 16.606ZM178.509 21.387C178.962 21.387 179.349 21.3124 179.671 21.163C179.998 21.0137 180.248 20.7967 180.42 20.512C180.598 20.2274 180.686 19.882 180.686 19.476C180.686 19.084 180.598 18.7457 180.42 18.461C180.248 18.1717 179.998 17.95 179.671 17.796C179.349 17.6374 178.964 17.558 178.516 17.558C178.087 17.558 177.707 17.6397 177.375 17.803C177.049 17.9617 176.792 18.1857 176.605 18.475C176.423 18.7644 176.332 19.105 176.332 19.497C176.332 19.8937 176.419 20.2344 176.591 20.519C176.769 20.799 177.018 21.0137 177.34 21.163C177.667 21.3124 178.057 21.387 178.509 21.387ZM187.152 24.152C186.924 24.152 186.7 24.1264 186.48 24.075C186.261 24.0237 186.063 23.9327 185.885 23.802C185.713 23.6667 185.575 23.4777 185.472 23.235C185.37 22.9877 185.318 22.6704 185.318 22.283C185.318 22.185 185.318 22.0847 185.318 21.982C185.318 21.8747 185.318 21.7627 185.318 21.646V17.656H183.505V16.606H184.667C184.826 16.606 184.95 16.6014 185.038 16.592C185.127 16.578 185.19 16.5477 185.227 16.501C185.269 16.4497 185.295 16.3727 185.304 16.27C185.314 16.1627 185.318 16.0157 185.318 15.829V14.142H186.515V16.606H188.839V17.656H186.515V21.261C186.515 21.3637 186.515 21.464 186.515 21.562C186.515 21.66 186.515 21.751 186.515 21.835C186.515 22.2317 186.562 22.542 186.655 22.766C186.753 22.99 186.97 23.102 187.306 23.102C187.442 23.102 187.57 23.0904 187.691 23.067C187.813 23.0437 187.904 23.0204 187.964 22.997V24.033C187.885 24.061 187.773 24.0867 187.628 24.11C187.488 24.138 187.33 24.152 187.152 24.152ZM190.715 24.04V16.606H191.891V24.04H190.715ZM191.31 14.898C191.09 14.898 190.899 14.8374 190.736 14.716C190.577 14.59 190.498 14.4197 190.498 14.205C190.498 13.995 190.577 13.8294 190.736 13.708C190.899 13.582 191.09 13.519 191.31 13.519C191.529 13.519 191.718 13.582 191.877 13.708C192.035 13.8294 192.115 13.995 192.115 14.205C192.115 14.4197 192.035 14.59 191.877 14.716C191.718 14.8374 191.529 14.898 191.31 14.898ZM197.324 24.152C197.095 24.152 196.871 24.1264 196.652 24.075C196.432 24.0237 196.234 23.9327 196.057 23.802C195.884 23.6667 195.746 23.4777 195.644 23.235C195.541 22.9877 195.49 22.6704 195.49 22.283C195.49 22.185 195.49 22.0847 195.49 21.982C195.49 21.8747 195.49 21.7627 195.49 21.646V17.656H193.677V16.606H194.839C194.997 16.606 195.121 16.6014 195.21 16.592C195.298 16.578 195.361 16.5477 195.399 16.501C195.441 16.4497 195.466 16.3727 195.476 16.27C195.485 16.1627 195.49 16.0157 195.49 15.829V14.142H196.687V16.606H199.011V17.656H196.687V21.261C196.687 21.3637 196.687 21.464 196.687 21.562C196.687 21.66 196.687 21.751 196.687 21.835C196.687 22.2317 196.733 22.542 196.827 22.766C196.925 22.99 197.142 23.102 197.478 23.102C197.613 23.102 197.741 23.0904 197.863 23.067C197.984 23.0437 198.075 23.0204 198.136 22.997V24.033C198.056 24.061 197.944 24.0867 197.8 24.11C197.66 24.138 197.501 24.152 197.324 24.152ZM200.955 20.799V19.735H206.702L206.492 20.085C206.492 20.057 206.492 20.0314 206.492 20.008C206.492 19.98 206.492 19.9544 206.492 19.931C206.492 19.5017 206.401 19.1097 206.219 18.755C206.042 18.3957 205.776 18.1087 205.421 17.894C205.066 17.6794 204.628 17.572 204.105 17.572C203.578 17.572 203.113 17.684 202.712 17.908C202.311 18.132 201.998 18.4494 201.774 18.86C201.55 19.266 201.438 19.7514 201.438 20.316C201.438 20.89 201.545 21.3847 201.76 21.8C201.979 22.2154 202.29 22.535 202.691 22.759C203.092 22.983 203.568 23.095 204.119 23.095C204.511 23.095 204.852 23.0554 205.141 22.976C205.43 22.892 205.668 22.7824 205.855 22.647C206.046 22.507 206.191 22.3554 206.289 22.192C206.387 22.0287 206.445 21.8654 206.464 21.702H207.654C207.631 22.0007 207.537 22.297 207.374 22.591C207.211 22.885 206.98 23.1534 206.681 23.396C206.382 23.634 206.016 23.8254 205.582 23.97C205.148 24.1147 204.649 24.187 204.084 24.187C203.337 24.187 202.679 24.0237 202.11 23.697C201.541 23.3704 201.093 22.9177 200.766 22.339C200.444 21.7604 200.283 21.0954 200.283 20.344C200.283 19.5834 200.446 18.916 200.773 18.342C201.1 17.7634 201.55 17.3107 202.124 16.984C202.698 16.6574 203.354 16.494 204.091 16.494C204.842 16.494 205.493 16.6574 206.044 16.984C206.595 17.3107 207.019 17.7587 207.318 18.328C207.617 18.8927 207.766 19.5367 207.766 20.26C207.766 20.3347 207.764 20.4327 207.759 20.554C207.754 20.6754 207.747 20.757 207.738 20.799H200.955ZM211.182 13.099V24.04H210.006V13.099H211.182Z" fill="#9F8A7F"/>
<path d="M180.575 63.375C195.411 63.375 207.448 75.425 207.448 90.2676C207.448 105.072 195.373 117.16 180.575 117.198C165.701 117.237 153.549 105.11 153.549 90.2676C153.511 75.3868 165.586 63.375 180.575 63.375ZM180.499 113.067C193.149 113.067 203.385 102.815 203.346 90.1911C203.308 77.6438 193.034 67.3917 180.537 67.3917C167.886 67.3917 157.689 77.5673 157.651 90.2293C157.651 102.891 167.848 113.105 180.499 113.067Z" fill="#F0D6BF"/>
<path d="M107.201 92.2952C107.201 94.7052 107.201 96.9239 107.201 99.1044C107.201 100.749 106.358 101.247 104.901 100.405C99.8027 97.4977 94.7424 94.5522 89.6438 91.6066C88.3021 90.8415 88.2638 89.7704 89.6055 89.0053C94.7041 86.0215 99.841 83.076 104.978 80.1304C106.358 79.3271 107.163 79.8244 107.201 81.3928C107.24 83.2672 107.278 85.1034 107.201 86.9779C107.163 88.2403 107.508 88.1638 108.428 87.6282C112.607 85.1799 116.862 82.7317 121.079 80.3217C122.957 79.2506 123.724 79.6714 123.724 81.8136C123.724 87.5134 123.724 93.175 123.724 98.8749C123.724 100.788 122.88 101.285 121.194 100.329C116.862 97.842 112.492 95.3173 108.16 92.8307C107.93 92.6777 107.661 92.563 107.201 92.2952Z" fill="#F0D6BF"/>
<path d="M252.568 92.1804C247.968 94.8199 243.56 97.3447 239.189 99.8695C238.883 100.022 238.614 100.214 238.308 100.367C237.004 101.017 236.161 100.558 236.123 99.1044C236.084 95.6615 236.123 92.2187 236.123 88.7758C236.123 86.4423 236.123 84.1088 236.123 81.7753C236.123 79.6331 236.889 79.174 238.729 80.2451C242.908 82.6552 247.086 85.0652 251.265 87.4752C251.61 87.6664 251.993 87.8577 252.568 88.1637C252.568 85.8685 252.568 83.7263 252.568 81.584C252.568 79.7096 253.45 79.2123 255.098 80.1686C259.967 82.9612 264.874 85.792 269.742 88.5845C271.736 89.7322 271.736 90.5737 269.704 91.7596C264.874 94.5522 260.044 97.3447 255.213 100.137C253.412 101.17 252.568 100.711 252.568 98.6071C252.568 96.5796 252.568 94.5139 252.568 92.1804Z" fill="#F0D6BF"/>
<path d="M306.169 50.2157C303.88 54.3854 300.676 56.0685 296.052 55.4182C293.122 54.9974 290.97 53.6203 289.78 51.4015C289.231 50.3687 288.59 50.1774 287.354 50.1774C242.352 50.2157 197.304 50.2157 152.303 50.2157C107.438 50.2157 62.6196 50.2157 17.7552 50.2157C15.1 50.2157 14.0013 49.6419 14.0013 48.2265C13.9555 46.8111 15.1458 46.1607 17.7095 46.1607C107.53 46.1607 197.304 46.1607 287.125 46.199C288.59 46.199 289.276 45.893 289.917 44.7836C291.474 42.1441 294.266 40.8434 297.7 40.8817C301.271 40.9199 303.972 42.4118 305.574 45.1661C305.757 45.5104 305.94 45.8547 306.169 46.199C306.49 47.4996 306.49 48.8385 306.169 50.2157Z" fill="#F0D6BF"/>
<path d="M306.169 50.2157C306.489 48.8768 306.444 47.5379 306.169 46.199C318.209 46.199 330.295 46.199 342.335 46.199C342.839 46.199 343.388 46.1608 343.892 46.2373C345.219 46.3903 345.952 47.0406 345.998 48.15C346.043 49.3358 345.219 50.0244 343.892 50.2157C343.113 50.3305 342.289 50.2539 341.511 50.2539C329.7 50.1774 317.934 50.2157 306.169 50.2157Z" fill="#9F8A7F"/>
<path d="M62.7713 96.5796C59.5128 96.9621 58.2861 95.0876 57.251 92.7924C57.0594 93.0602 56.906 93.1749 56.8294 93.328C55.641 96.6561 52.9575 96.8856 50.044 96.6561C49.699 96.6178 49.354 96.6561 49.3157 96.197C49.2773 95.6997 49.5457 95.5084 50.0057 95.5084C50.7341 95.5084 51.4241 95.5084 52.1525 95.5084C53.9926 95.4702 56.4077 93.1749 56.4077 91.377C56.446 89.8468 54.0309 87.2838 52.4591 87.2073C51.6924 87.1691 50.9257 87.2073 50.159 87.2073C49.7757 87.2073 49.3157 87.2838 49.2773 86.7483C49.239 86.1745 49.6607 86.0979 50.1207 86.0597C53.1108 85.7919 55.6793 86.2892 56.8294 89.5408C56.8677 89.6556 56.9444 89.8086 57.136 90.1529C58.1711 87.7429 59.3978 85.9449 62.1196 86.0979C62.2346 85.6006 61.7746 85.6006 61.5829 85.3711C61.3912 85.1033 61.3146 84.8356 61.5062 84.606C61.6979 84.3383 62.0046 84.3 62.2729 84.453C63.1163 84.9121 63.9597 85.3329 64.7264 85.9067C65.3781 86.404 65.2631 87.1308 64.6114 87.5899C63.998 88.0107 63.308 88.3549 62.618 88.6992C62.1963 88.9287 61.6979 89.273 61.2379 88.814C60.7779 88.3167 61.4679 88.0107 61.5829 87.5899C60.0112 87.4368 58.0561 89.3878 57.8644 91.3005C57.7111 93.0219 60.2412 95.5084 62.1196 95.4702C62.1579 95.0494 61.7363 95.0111 61.5446 94.8199C61.3529 94.5903 61.2762 94.3226 61.4679 94.0548C61.6596 93.787 61.9663 93.7488 62.2346 93.9018C63.078 94.3608 63.883 94.8199 64.6881 95.3554C65.0714 95.6232 65.1864 96.044 64.9947 96.5031C64.8414 96.9621 62.388 98.454 61.8896 98.4158C61.2762 98.3392 61.1612 97.995 61.4679 97.5359C61.8129 97.2299 62.1579 97.0386 62.7713 96.5796Z" fill="#F0D6BF"/>
<path d="M298.801 94.3226C302.174 94.3226 305.164 94.3226 308.116 94.3226C309.688 94.3226 310.493 93.5575 310.57 91.9891C310.608 90.8797 310.57 89.8086 310.57 88.6993C310.57 88.3167 310.608 87.8577 311.145 87.8577C311.605 87.8577 311.758 88.2785 311.758 88.6993C311.758 90.0381 311.835 91.377 311.681 92.7159C311.49 94.4756 310.186 95.5085 308.308 95.5467C305.279 95.585 302.289 95.585 299.261 95.585C299.222 95.585 299.222 95.6232 299.184 95.6997C299.222 95.9675 299.491 96.0058 299.644 96.1588C299.912 96.3883 300.142 96.6561 299.912 97.0004C299.682 97.3447 299.337 97.3829 299.031 97.1534C298.111 96.3883 296.309 96.4266 296.347 94.9347C296.386 93.481 298.149 93.481 299.069 92.7159C299.337 92.4864 299.721 92.5629 299.912 92.9072C300.066 93.2132 299.989 93.4428 299.721 93.6723C299.529 93.8253 299.299 93.9401 298.801 94.3226Z" fill="#F0D6BF"/>
<path d="M308.423 84.8738C308.308 84.3765 307.925 84.3765 307.695 84.147C307.465 83.9175 307.388 83.6497 307.58 83.3819C307.771 83.1141 308.078 83.0759 308.346 83.1906C309.228 83.6879 310.071 84.1852 310.915 84.7591C311.298 85.0268 311.375 85.6006 311.106 85.9067C310.301 86.8248 309.228 87.3221 308.116 87.7429C307.886 87.8194 307.618 87.6664 307.541 87.3986C307.311 86.6718 308.116 86.6335 308.461 86.0597C305.164 86.0597 301.944 85.9832 298.724 86.0979C297.497 86.1362 296.961 87.1691 296.922 88.3167C296.884 89.4643 296.922 90.6119 296.884 91.7595C296.884 92.1038 296.961 92.6011 296.386 92.6394C295.772 92.6776 295.734 92.2186 295.734 91.7595C295.734 90.4589 295.657 89.1965 295.772 87.8959C295.887 86.0597 297.229 84.9121 299.146 84.9121C302.251 84.8738 305.318 84.8738 308.423 84.8738Z" fill="#F0D6BF"/>
<path d="M183.872 90.1911C183.872 87.3221 183.91 84.453 183.872 81.6222C183.833 80.2833 184.447 79.7478 185.75 79.7478C189.545 79.6713 189.545 79.6713 189.545 83.4967C189.545 88.5462 189.545 93.5957 189.545 98.6453C189.545 100.52 189.2 100.864 187.284 100.902C183.872 100.941 183.872 100.941 183.872 97.5359C183.872 95.0494 183.872 92.6011 183.872 90.1911Z" fill="#F0D6BF"/>
<path d="M171.49 90.3059C171.49 87.4369 171.49 84.5678 171.49 81.737C171.49 80.1304 171.835 79.7861 173.368 79.7478C177.087 79.6713 177.087 79.6713 177.087 83.3437C177.087 88.4315 177.087 93.5575 177.087 98.6453C177.087 100.52 176.742 100.826 174.978 100.864C171.49 100.902 171.49 100.902 171.49 97.4594C171.49 95.0494 171.49 92.6777 171.49 90.3059Z" fill="#F0D6BF"/>
</svg>
