<?xml version="1.0" encoding="utf-8"?>
<!-- Generator: Adobe Illustrator 28.3.0, SVG Export Plug-In . SVG Version: 6.00 Build 0)  -->
<svg version="1.1" id="OBJECTS" xmlns="http://www.w3.org/2000/svg" xmlns:xlink="http://www.w3.org/1999/xlink" x="0px" y="0px"
	 viewBox="0 0 160 160" style="enable-background:new 0 0 160 160;" xml:space="preserve">
<style type="text/css">
	.st0{fill:url(#SVGID_1_);}
	.st1{fill:url(#SVGID_00000148645943546439540240000000104376847011409313_);}
	.st2{fill:url(#SVGID_00000060713400945471789390000007123177407734141873_);}
	.st3{fill:url(#SVGID_00000026857321615160186760000017793679785441841041_);}
	.st4{fill:url(#SVGID_00000144318961294826348600000003040950055565494407_);}
	.st5{fill:url(#SVGID_00000082352305692325049270000014252277559041528719_);}
	.st6{fill:url(#SVGID_00000040573483907937970810000010798432492452571068_);}
	.st7{fill:url(#SVGID_00000160150313352623975300000014471154571038306954_);}
	.st8{fill:url(#SVGID_00000059277288680508471210000003339624658682672570_);}
	.st9{fill:url(#SVGID_00000135662037570969405970000002785886479862923660_);}
	.st10{fill:url(#SVGID_00000003799274580899446460000006960636692967550635_);}
	.st11{fill:url(#SVGID_00000019669225038848797310000014458377819122619325_);}
	.st12{fill:url(#SVGID_00000029016045243027732180000015362117730837758092_);}
	.st13{fill:url(#SVGID_00000040548279787473866100000004174353770183492499_);}
	.st14{fill:url(#SVGID_00000117641978686679930420000016801853633287640199_);}
	.st15{fill:url(#SVGID_00000103947854895290103200000008802481017381212588_);}
	.st16{fill:url(#SVGID_00000156574191572694330300000008894749748071538568_);}
	.st17{fill:url(#SVGID_00000046336395279971098600000008522992036740303527_);}
	.st18{fill:url(#SVGID_00000101789419769456411460000009960489869212104611_);}
	.st19{fill:url(#SVGID_00000168106746787810909110000016201760585594229142_);}
	.st20{fill:url(#SVGID_00000178885225137243247780000008552718749470222252_);}
	.st21{fill:url(#SVGID_00000021090513320098170860000008875843359383841931_);}
	.st22{fill:url(#SVGID_00000003799084464401125750000001033257628489128320_);}
	.st23{fill:url(#SVGID_00000044859450761584206400000014106342322919704192_);}
	.st24{fill:url(#SVGID_00000086649412731706223130000014647794277078608797_);}
	.st25{fill:url(#SVGID_00000181779663326075407600000002041170481034659260_);}
	.st26{fill:url(#SVGID_00000093873743025644271460000003259461715529564577_);}
	.st27{fill:#A99B67;}
	.st28{font-family:'PlayfairDisplay-Regular';}
	.st29{font-size:98.9251px;}
</style>
<g>
	<g>
		<g>
			<linearGradient id="SVGID_1_" gradientUnits="userSpaceOnUse" x1="56.8135" y1="-8.0093" x2="57.6673" y2="168.7186">
				<stop  offset="0" style="stop-color:#A99B67"/>
				<stop  offset="0.5782" style="stop-color:#D8C893"/>
				<stop  offset="1" style="stop-color:#A0935F"/>
			</linearGradient>
			<path class="st0" d="M102.6,33.4c-8.9-5-19.1-7.8-30-7.8c-33.9,0-61.4,27.6-61.4,61.4c0,6.6,1.1,13,3,19c0.2,0.1,0.4,0.1,0.6,0.2
				c-2-6-3.1-12.5-3.1-19.2c0-33.6,27.3-60.9,60.9-60.9c11.1,0,21.5,3,30.5,8.2C102.9,34,102.8,33.7,102.6,33.4z"/>
			
				<linearGradient id="SVGID_00000168085495397333996630000005036199106188775824_" gradientUnits="userSpaceOnUse" x1="87.6495" y1="-8.1583" x2="88.5033" y2="168.5696">
				<stop  offset="0" style="stop-color:#A99B67"/>
				<stop  offset="0.5782" style="stop-color:#D8C893"/>
				<stop  offset="1" style="stop-color:#A0935F"/>
			</linearGradient>
			<path style="fill:url(#SVGID_00000168085495397333996630000005036199106188775824_);" d="M129.9,107.7
				c-8.5,23.4-30.9,40.2-57.3,40.2c-9.4,0-18.4-2.2-26.3-6c0.1,0.2,0.2,0.5,0.3,0.7c7.9,3.7,16.8,5.8,26.1,5.8
				c26.5,0,49.1-16.9,57.7-40.5C130.2,107.8,130,107.8,129.9,107.7z"/>
		</g>
		<g>
			
				<linearGradient id="SVGID_00000115513489145557917300000007604643875975117214_" gradientUnits="userSpaceOnUse" x1="30.1367" y1="-7.8804" x2="30.9905" y2="168.8474">
				<stop  offset="0" style="stop-color:#A99B67"/>
				<stop  offset="0.5782" style="stop-color:#D8C893"/>
				<stop  offset="1" style="stop-color:#A0935F"/>
			</linearGradient>
			<path style="fill:url(#SVGID_00000115513489145557917300000007604643875975117214_);" d="M47.4,152.1c-0.1,0.4-0.2,0.8-0.3,1.2
				c-0.6,2.4-2,4.6-4.1,5.7c-2.5,1.3-5.9,0.7-7.9-1.3c0.6,0.5,1.3,0.7,2,0.7c1.2-0.1,2.2-1,2.3-2.2c0.1-1-0.5-1.9-1.2-2.5
				c-2.1-2.1-5.3-2.4-8.3-2.4c-2.9,0-6.1,0.1-8.6-1.5c-1.9-1.2-3.3-3.3-3.6-5.5c-0.2-1.4,0.1-2.9,0.7-4.2c-0.8,0.8-1.8,1.5-2.8,2.1
				c-0.5,0.3-1.1,0.5-1.6,0.2c1.4-0.7,2.1-2.2,2.6-3.7c0.8-2.6,0.7-5.5-0.1-8.2c0.3,0.7,3.4,8.7,15.3,14.3
				c-5.8-4.3-10.5-10.4-14.8-16.2l0,0c1.4,1.8,3.3,3.6,5.6,3.8c2.6,0.2,5.3-0.3,7.9-0.4c2.6,0,5.5,0.5,7.3,2.4
				c-1.8-0.4-3.7-0.3-5.4,0.4c-1.8,0.7-3.1,2.2-4.1,3.8l0,0c2.5-2.1,6-3,9.3-2.3c3.3,0.7,6.3,2.9,8,5.9
				C47.4,145.1,48,148.7,47.4,152.1z"/>
			
				<linearGradient id="SVGID_00000133504766004975390130000010814652727562574733_" gradientUnits="userSpaceOnUse" x1="124.5489" y1="-8.3365" x2="125.4026" y2="168.3914">
				<stop  offset="0" style="stop-color:#A99B67"/>
				<stop  offset="0.5782" style="stop-color:#D8C893"/>
				<stop  offset="1" style="stop-color:#A0935F"/>
			</linearGradient>
			<path style="fill:url(#SVGID_00000133504766004975390130000010814652727562574733_);" d="M139.9,49l0.1,0.1
				c-1.8,2.2-2.5,5.5-3,8.3l0,0c-2.4-7.3-7.7-14.5-13.8-19.1l0,0c-0.1-0.1-0.1-0.1-0.2-0.2l0,0c5.1,6.1,9.5,12.7,12.8,19.9
				c-0.1-0.2-0.3-0.5-0.4-0.7c-2.1-3.4-4.8-6.1-7.7-8.9c-1.2-1.2-2.5-2.3-4-3c-1.5-0.7-3.3-1.1-4.9-0.6c-1.6,0.5-2.9,1.8-3.2,3.4
				l-0.2,0c-0.7-1.7-0.7-3.5-0.2-5.2c0.5-1.7,1.6-3.2,3.1-4.2l0,0c-4.1,0.7-8.8,0.3-12-2.4c-2.7-2.3-4-6-4-9.5
				c0-1.1,0.1-2.2,0.2-3.2c0.4-2.4,1.1-4.8,1.9-7.1c1.2-3.3,2.6-6.6,3.4-10.1c0.5-2.1,0.6-4.5-0.8-6.1l0.1-0.1
				c5.7,1.6,10.3,6.4,11.7,12.2c0.6,2.3,0.6,4.8,0.7,7.2c0.1,2.4,0.3,4.8,1.1,7.1c0.8,2.2,2.2,4.3,4.3,5.3
				c-2.3-4.6-2.2-10.4,0.2-14.9c-0.2,1.9,0.5,3.8,1.5,5.4c1.3,1.9,3.1,3.3,4.9,4.7c1.8,1.4,3.5,3,4.7,5c0.9,1.7,1.3,3.8,0.7,5.6
				c1.4-1,3.2-1.6,4.9-1.5c2,0.1,4,0.9,5.4,2.4c-3.6,0.1-7.1,1.9-9.3,4.8c-2.1,2.8-2.3,7.7-1.6,11.2c0-1,0.1-2.5,0.7-4
				C137.5,49.4,138.8,49.1,139.9,49z"/>
			
				<linearGradient id="SVGID_00000158015680131779224070000000828234910631167628_" gradientUnits="userSpaceOnUse" x1="136.2596" y1="-8.3931" x2="137.1134" y2="168.3348">
				<stop  offset="0" style="stop-color:#A99B67"/>
				<stop  offset="0.5782" style="stop-color:#D8C893"/>
				<stop  offset="1" style="stop-color:#A0935F"/>
			</linearGradient>
			<path style="fill:url(#SVGID_00000158015680131779224070000000828234910631167628_);" d="M136.4,24.1c1,0,1.7,0.7,1.8,1.7
				c0,1-0.7,1.7-1.7,1.8s-1.7-0.7-1.8-1.7C134.7,24.9,135.4,24.1,136.4,24.1z"/>
			
				<linearGradient id="SVGID_00000159458233665324695980000014694744519204151459_" gradientUnits="userSpaceOnUse" x1="134.068" y1="-8.3825" x2="134.9218" y2="168.3454">
				<stop  offset="0" style="stop-color:#A99B67"/>
				<stop  offset="0.5782" style="stop-color:#D8C893"/>
				<stop  offset="1" style="stop-color:#A0935F"/>
			</linearGradient>
			<path style="fill:url(#SVGID_00000159458233665324695980000014694744519204151459_);" d="M134.2,21.2c0.3,0,0.5,0.2,0.5,0.5
				s-0.2,0.5-0.5,0.5c-0.3,0-0.5-0.2-0.5-0.5S133.9,21.2,134.2,21.2z"/>
			
				<linearGradient id="SVGID_00000083081359190509242410000002446575147173279905_" gradientUnits="userSpaceOnUse" x1="132.2709" y1="-8.3738" x2="133.1247" y2="168.354">
				<stop  offset="0" style="stop-color:#A99B67"/>
				<stop  offset="0.5782" style="stop-color:#D8C893"/>
				<stop  offset="1" style="stop-color:#A0935F"/>
			</linearGradient>
			<path style="fill:url(#SVGID_00000083081359190509242410000002446575147173279905_);" d="M132.4,22.8c0.5,0,0.9,0.4,0.9,0.8
				c0,0.5-0.4,0.9-0.8,0.9c-0.5,0-0.9-0.4-0.9-0.8C131.6,23.2,131.9,22.8,132.4,22.8z"/>
			
				<linearGradient id="SVGID_00000073697013117884329690000015902092030751971462_" gradientUnits="userSpaceOnUse" x1="106.5428" y1="-8.2496" x2="107.3966" y2="168.4783">
				<stop  offset="0" style="stop-color:#A99B67"/>
				<stop  offset="0.5782" style="stop-color:#D8C893"/>
				<stop  offset="1" style="stop-color:#A0935F"/>
			</linearGradient>
			<path style="fill:url(#SVGID_00000073697013117884329690000015902092030751971462_);" d="M106.8,44.2c0.9,0,1.6,0.7,1.6,1.5
				c0,0.9-0.7,1.6-1.5,1.6c-0.9,0-1.6-0.7-1.6-1.5C105.2,44.9,105.9,44.2,106.8,44.2z"/>
			
				<linearGradient id="SVGID_00000067212516669555930590000010198830524432628651_" gradientUnits="userSpaceOnUse" x1="111.129" y1="-8.2717" x2="111.9828" y2="168.4562">
				<stop  offset="0" style="stop-color:#A99B67"/>
				<stop  offset="0.5782" style="stop-color:#D8C893"/>
				<stop  offset="1" style="stop-color:#A0935F"/>
			</linearGradient>
			<circle style="fill:url(#SVGID_00000067212516669555930590000010198830524432628651_);" cx="111.4" cy="45.9" r="1.3"/>
			
				<linearGradient id="SVGID_00000139995773816022770750000015457398843065260930_" gradientUnits="userSpaceOnUse" x1="110.1694" y1="-8.2671" x2="111.0232" y2="168.4608">
				<stop  offset="0" style="stop-color:#A99B67"/>
				<stop  offset="0.5782" style="stop-color:#D8C893"/>
				<stop  offset="1" style="stop-color:#A0935F"/>
			</linearGradient>
			<path style="fill:url(#SVGID_00000139995773816022770750000015457398843065260930_);" d="M110.4,40.9c0.5,0,1,0.4,1,1
				c0,0.6-0.4,1-1,1c-0.5,0-1-0.4-1-1C109.4,41.4,109.8,40.9,110.4,40.9z"/>
			
				<linearGradient id="SVGID_00000080202800587206139010000002217328024673383584_" gradientUnits="userSpaceOnUse" x1="147.8633" y1="-8.4492" x2="148.7171" y2="168.2787">
				<stop  offset="0" style="stop-color:#A99B67"/>
				<stop  offset="0.5782" style="stop-color:#D8C893"/>
				<stop  offset="1" style="stop-color:#A0935F"/>
			</linearGradient>
			<path style="fill:url(#SVGID_00000080202800587206139010000002217328024673383584_);" d="M146.1,50.3c-2.5,2.5-4.2,5.8-4.8,9.3
				c-0.4,2.5-0.2,5.2,0.5,7.7c-0.8-2.4-1.6-4.9-2.4-7.3c-0.5-1.4-0.9-2.9-0.4-4.3c0.5-1.4,1.9-2.3,2.6-3.5c0.9-1.7,0.6-3.8,1.3-5.6
				c1.1-2.7,4.4-4.1,7.3-3.6c2.9,0.5,5.3,2.5,7.2,4.8l0,0.1c-0.9-0.5-2-0.5-2.9-0.1c-1,0.4-1.7,1.4-1.9,2.4
				c-0.2,1.2,0.2,2.3,0.5,3.5c0.3,1.1,0.5,2.5-0.1,3.5c-0.9,1.4-2.8,1.6-4.4,2c-2.6,0.8-4.7,2.8-5.7,5.3c0,0.1-0.1,0.2-0.1,0.3
				c-0.4-5,0.8-10.1,3.4-14.3L146.1,50.3z"/>
			
				<linearGradient id="SVGID_00000013906337734418469600000003207661515759819449_" gradientUnits="userSpaceOnUse" x1="129.3667" y1="-8.3598" x2="130.2205" y2="168.3681">
				<stop  offset="0" style="stop-color:#A99B67"/>
				<stop  offset="0.5782" style="stop-color:#D8C893"/>
				<stop  offset="1" style="stop-color:#A0935F"/>
			</linearGradient>
			<path style="fill:url(#SVGID_00000013906337734418469600000003207661515759819449_);" d="M139.1,70c0.3,1.7,0.2,3.4,0.1,5.1
				c-0.7-3.1-3.3-5.8-6.4-6.3c-1.3-0.2-2.6-0.2-3.9-0.4c-1.3-0.2-2.7-0.7-3.3-1.9c-0.5-0.9-0.6-2-1.4-2.7c-0.5-0.5-1.3-0.7-2.1-0.6
				c-0.7,0.1-1.3,0.3-1.9,0.5c0.5-2.4,2.5-4.5,4.9-5.1c2.4-0.6,5.1,0.4,6.6,2.4c0.6,0.8,1,1.8,1.8,2.4c0.7,0.6,1.7,0.9,2.5,1.4
				C137.7,66,138.7,68,139.1,70z"/>
			
				<linearGradient id="SVGID_00000123417818017348767830000008263164554950729643_" gradientUnits="userSpaceOnUse" x1="132.6798" y1="-8.3758" x2="133.5336" y2="168.3521">
				<stop  offset="0" style="stop-color:#A99B67"/>
				<stop  offset="0.5782" style="stop-color:#D8C893"/>
				<stop  offset="1" style="stop-color:#A0935F"/>
			</linearGradient>
			<path style="fill:url(#SVGID_00000123417818017348767830000008263164554950729643_);" d="M130.2,104.1c0.4-1.7,2-3,3.8-3.2
				s3.5,0.9,4.3,2.5l0,0c0.1-1.6-0.9-3.1-2.2-4.1c-1.3-1.1-2.9-1.9-4.2-3c-1.3-1.1-2.3-2.7-2.2-4.3c1.3,0.6,2.8,0.7,4.2,0.8
				c1.6,0.1,3.3,0.3,4.5,1.4l0.1,0c-0.4-2.1-2.6-3.3-4.6-4c-2-0.7-4.3-1.1-5.7-2.7c-1.4-1.6-1.7-3.9-1.5-6c0.2-2.1,0.7-4.2,0.5-6.3
				c-0.2-2.1-1.3-4.3-3.3-5l0-0.4c6.8,0,13.5,4.2,16.4,10.5c1.7,3.7,2.1,7.8,2,11.8c-0.1,5.4-1.1,10.8-2.9,15.9l0,0
				c-0.9,3.1-2.3,6.1-4.2,8.8c-0.7-1.1-0.8-2.5-0.7-3.8c0.1-1.3,0.4-2.7,0.5-4c0-1.3-0.2-2.8-1-3.8c-0.8-1.1-2.4-1.6-3.6-1
				L130.2,104.1z"/>
			
				<linearGradient id="SVGID_00000149360885086508424560000006027680684620720566_" gradientUnits="userSpaceOnUse" x1="148.5499" y1="-8.4525" x2="149.4036" y2="168.2754">
				<stop  offset="0" style="stop-color:#A99B67"/>
				<stop  offset="0.5782" style="stop-color:#D8C893"/>
				<stop  offset="1" style="stop-color:#A0935F"/>
			</linearGradient>
			<path style="fill:url(#SVGID_00000149360885086508424560000006027680684620720566_);" d="M155.2,95.6c0.1,0.7,0,1.5-0.6,1.9
				l-0.1-0.1c-0.7-1.3-2.5-1.7-3.9-1.4c-2.1,0.4-3.9,2-5.1,3.8c-1,1.6-2,3.3-2.6,5.1l0,0c3-10.6,3-22.1,0.2-32.7
				c1.8,2.2,3.2,4.8,4.1,7.5l0.1,0c-1.1-3.3-1.1-7,0-10.3c1.1-3.4,3.4-6.5,6.4-8.5l0.1,0c-1.4,3.3-0.7,7,0,10.5
				c0.6,3.5,1.1,7.4-0.9,10.5c-1.5,2.4-4.3,4-4.9,6.7l0.3,0c1.2-1.9,3.4-3.1,5.6-3l0,0c-2,2-3.7,4.3-4.8,6.9l0.1,0
				c1.2-0.5,2.6-0.5,3.8,0.2C154.2,93.2,155,94.3,155.2,95.6z"/>
			
				<linearGradient id="SVGID_00000134227105371974054770000003816293107539885193_" gradientUnits="userSpaceOnUse" x1="55.0196" y1="-8.0007" x2="55.8734" y2="168.7272">
				<stop  offset="0" style="stop-color:#A99B67"/>
				<stop  offset="0.5782" style="stop-color:#D8C893"/>
				<stop  offset="1" style="stop-color:#A0935F"/>
			</linearGradient>
			<path style="fill:url(#SVGID_00000134227105371974054770000003816293107539885193_);" d="M55.8,150c1,0,1.9,0.8,1.9,1.9
				c0,1-0.8,1.9-1.9,1.9c-1,0-1.9-0.8-1.9-1.9C53.9,150.8,54.8,150,55.8,150z"/>
			
				<linearGradient id="SVGID_00000020384523483825933590000003756218342644566422_" gradientUnits="userSpaceOnUse" x1="51.8684" y1="-7.9854" x2="52.7222" y2="168.7425">
				<stop  offset="0" style="stop-color:#A99B67"/>
				<stop  offset="0.5782" style="stop-color:#D8C893"/>
				<stop  offset="1" style="stop-color:#A0935F"/>
			</linearGradient>
			<path style="fill:url(#SVGID_00000020384523483825933590000003756218342644566422_);" d="M52.6,145.7c0.5,0,0.9,0.4,0.9,0.9
				s-0.4,0.9-0.9,0.9s-0.9-0.4-0.9-0.9S52.1,145.7,52.6,145.7z"/>
			
				<linearGradient id="SVGID_00000096059366066730647420000012075867071541466535_" gradientUnits="userSpaceOnUse" x1="50.2466" y1="-7.9776" x2="51.1004" y2="168.7503">
				<stop  offset="0" style="stop-color:#A99B67"/>
				<stop  offset="0.5782" style="stop-color:#D8C893"/>
				<stop  offset="1" style="stop-color:#A0935F"/>
			</linearGradient>
			<path style="fill:url(#SVGID_00000096059366066730647420000012075867071541466535_);" d="M51,148.7c0.8,0,1.5,0.7,1.5,1.5
				c0,0.8-0.7,1.5-1.5,1.5c-0.8,0-1.5-0.7-1.5-1.5C49.5,149.4,50.2,148.7,51,148.7z"/>
			
				<linearGradient id="SVGID_00000067202918399914172980000012697917404203741083_" gradientUnits="userSpaceOnUse" x1="13.5205" y1="-7.8002" x2="14.3742" y2="168.9277">
				<stop  offset="0" style="stop-color:#A99B67"/>
				<stop  offset="0.5782" style="stop-color:#D8C893"/>
				<stop  offset="1" style="stop-color:#A0935F"/>
			</linearGradient>
			<circle style="fill:url(#SVGID_00000067202918399914172980000012697917404203741083_);" cx="14.3" cy="146.7" r="1.1"/>
			
				<linearGradient id="SVGID_00000112622184275216097800000010008406585052497558_" gradientUnits="userSpaceOnUse" x1="11.4686" y1="-7.7903" x2="12.3224" y2="168.9376">
				<stop  offset="0" style="stop-color:#A99B67"/>
				<stop  offset="0.5782" style="stop-color:#D8C893"/>
				<stop  offset="1" style="stop-color:#A0935F"/>
			</linearGradient>
			<path style="fill:url(#SVGID_00000112622184275216097800000010008406585052497558_);" d="M12.2,142.5c0.4,0,0.8,0.3,0.8,0.8
				c0,0.4-0.3,0.8-0.8,0.8c-0.4,0-0.8-0.3-0.8-0.8C11.4,142.8,11.8,142.5,12.2,142.5z"/>
			
				<linearGradient id="SVGID_00000132085560824055295870000017938662219575292095_" gradientUnits="userSpaceOnUse" x1="10.1548" y1="-7.7839" x2="11.0086" y2="168.944">
				<stop  offset="0" style="stop-color:#A99B67"/>
				<stop  offset="0.5782" style="stop-color:#D8C893"/>
				<stop  offset="1" style="stop-color:#A0935F"/>
			</linearGradient>
			<path style="fill:url(#SVGID_00000132085560824055295870000017938662219575292095_);" d="M10.9,144.8c0.6,0,1.2,0.5,1.2,1.2
				c0,0.6-0.5,1.2-1.2,1.2c-0.6,0-1.2-0.5-1.2-1.2C9.7,145.3,10.3,144.8,10.9,144.8z"/>
			
				<linearGradient id="SVGID_00000072984481948770115990000015458941393864210850_" gradientUnits="userSpaceOnUse" x1="6.5017" y1="-7.7663" x2="7.3554" y2="168.9616">
				<stop  offset="0" style="stop-color:#A99B67"/>
				<stop  offset="0.5782" style="stop-color:#D8C893"/>
				<stop  offset="1" style="stop-color:#A0935F"/>
			</linearGradient>
			<path style="fill:url(#SVGID_00000072984481948770115990000015458941393864210850_);" d="M10.8,128c0.2,2.6,0,5.3-1.2,7.7
				c-1.2,2.4-3.4,4.3-6.1,4.5v0c1.2-0.5,1.6-2.1,1.4-3.4c-0.2-1.3-0.9-2.5-1.1-3.8c-0.3-1.7,0-3.4,1-4.8c1-1.4,2.5-2.4,3.4-3.9
				c0.7-1.1,1-2.5,0.9-3.8C10,122.9,10.6,125.4,10.8,128z"/>
			
				<linearGradient id="SVGID_00000129892019622205424910000004775675171669547404_" gradientUnits="userSpaceOnUse" x1="14.3287" y1="-7.8041" x2="15.1824" y2="168.9238">
				<stop  offset="0" style="stop-color:#A99B67"/>
				<stop  offset="0.5782" style="stop-color:#D8C893"/>
				<stop  offset="1" style="stop-color:#A0935F"/>
			</linearGradient>
			<path style="fill:url(#SVGID_00000129892019622205424910000004775675171669547404_);" d="M6.1,102.8c0.3,1.6,1.8,2.8,3.4,3.4
				c1.7,0.6,3.5,0.7,5.2,1.3c2,0.7,3.8,2,5,3.7c0.6,0.9,1.1,1.9,1.7,2.7c0.6,0.9,1.5,1.6,2.5,1.9c-3.9,1.5-8.5,0.5-11.8-2
				c-3.4-2.7-5.4-6.8-6.1-11L6.1,102.8z"/>
			
				<linearGradient id="SVGID_00000124132143258560689090000016134179475156745880_" gradientUnits="userSpaceOnUse" x1="21.1635" y1="-7.8371" x2="22.0173" y2="168.8908">
				<stop  offset="0" style="stop-color:#A99B67"/>
				<stop  offset="0.5782" style="stop-color:#D8C893"/>
				<stop  offset="1" style="stop-color:#A0935F"/>
			</linearGradient>
			<path style="fill:url(#SVGID_00000124132143258560689090000016134179475156745880_);" d="M21.8,125.8c0.4,0,0.7,0.3,0.7,0.7
				c0,0.4-0.3,0.7-0.7,0.7s-0.7-0.3-0.7-0.7C21.1,126.1,21.4,125.8,21.8,125.8z"/>
			
				<linearGradient id="SVGID_00000034080099580385431350000004862762319164162229_" gradientUnits="userSpaceOnUse" x1="22.2931" y1="-7.8426" x2="23.1468" y2="168.8853">
				<stop  offset="0" style="stop-color:#A99B67"/>
				<stop  offset="0.5782" style="stop-color:#D8C893"/>
				<stop  offset="1" style="stop-color:#A0935F"/>
			</linearGradient>
			<circle style="fill:url(#SVGID_00000034080099580385431350000004862762319164162229_);" cx="22.9" cy="121.5" r="1.1"/>
			
				<linearGradient id="SVGID_00000163775152956752074590000018379649338123668865_" gradientUnits="userSpaceOnUse" x1="17.465" y1="-7.8192" x2="18.3187" y2="168.9087">
				<stop  offset="0" style="stop-color:#A99B67"/>
				<stop  offset="0.5782" style="stop-color:#D8C893"/>
				<stop  offset="1" style="stop-color:#A0935F"/>
			</linearGradient>
			<circle style="fill:url(#SVGID_00000163775152956752074590000018379649338123668865_);" cx="18.1" cy="121.5" r="2.5"/>
		</g>
		<g>
			
				<linearGradient id="SVGID_00000140003745900619625690000002700304482785836191_" gradientUnits="userSpaceOnUse" x1="95.6157" y1="-8.1968" x2="96.4695" y2="168.5311">
				<stop  offset="0" style="stop-color:#A99B67"/>
				<stop  offset="0.5782" style="stop-color:#D8C893"/>
				<stop  offset="1" style="stop-color:#A0935F"/>
			</linearGradient>
			<path style="fill:url(#SVGID_00000140003745900619625690000002700304482785836191_);" d="M48.1,153.7c14.6,5.3,30.8,5.7,45.5,1.1
				c14.7-4.5,27.8-14,36.6-26.6c2.2-3.1,4.2-6.4,5.9-9.9c1.7-3.5,3.1-7,4.1-10.7c2.2-7.3,3-15.1,2.8-22.8
				c-0.6-15.4-6.3-30.5-16.2-42.5c5.2,5.8,9.3,12.5,12.3,19.7c2.9,7.2,4.7,14.9,5.1,22.7c0.8,15.6-3.7,31.5-12.8,44.3
				c-2.3,3.2-4.8,6.2-7.6,9c-2.8,2.8-5.8,5.3-8.9,7.6c-6.3,4.6-13.5,8.1-21,10.3c-3.7,1.1-7.6,1.9-11.5,2.3
				c-3.9,0.5-7.8,0.6-11.7,0.4C63,158.3,55.3,156.7,48.1,153.7z"/>
		</g>
		<g>
			
				<linearGradient id="SVGID_00000065793956627053056240000001558951061404773769_" gradientUnits="userSpaceOnUse" x1="51.8519" y1="-7.9853" x2="52.7057" y2="168.7425">
				<stop  offset="0" style="stop-color:#A99B67"/>
				<stop  offset="0.5782" style="stop-color:#D8C893"/>
				<stop  offset="1" style="stop-color:#A0935F"/>
			</linearGradient>
			<path style="fill:url(#SVGID_00000065793956627053056240000001558951061404773769_);" d="M101.8,23.8
				c-15.7-6.6-33.6-7.3-49.6-2.1c-8,2.6-15.5,6.7-22.1,11.9C23.6,39,18,45.4,13.7,52.6C9.4,59.8,6.4,67.8,5,76.1
				c-0.7,4.1-1.1,8.3-1.1,12.5c0,2.1,0.1,4.2,0.3,6.3c0.2,2.1,0.5,4.2,0.8,6.3c1.5,8.3,4.5,16.3,8.9,23.5c4.3,7.3,9,13.2,15.6,18.5
				c-3.4-2.5-5.6-4.9-8.4-8c-2.9-3.1-5.5-6.5-7.8-10.1c-4.6-7.2-7.8-15.3-9.4-23.7C3,97.2,2.5,93,2.5,88.7c0-4.3,0.3-8.6,1-12.8
				c1.4-8.5,4.4-16.7,8.8-24c8.8-14.7,23.1-26.2,39.5-31.2c8.2-2.5,16.8-3.5,25.3-3C85.7,18.2,94.1,20.2,101.8,23.8z"/>
		</g>
	</g>
	<g>
		<text transform="matrix(1 0 0 1 29.741 124.5761)" class="st27 st28 st29">M</text>
	</g>
</g>
</svg>
