<svg width="56" height="80" viewBox="0 0 56 80" fill="none" xmlns="http://www.w3.org/2000/svg">
<path d="M54.5503 76.8C53.3085 76.9778 52.2441 76.6222 51.091 76.0889C50.2927 75.7333 49.4944 75.4667 48.7848 75.0222C48.2526 74.7556 47.7204 74.4889 47.3656 74.1333C46.656 73.4222 46.0351 72.5333 45.4142 71.8222C45.1481 71.5556 45.2368 71.2889 45.4142 71.0222C45.5916 70.7556 45.769 70.1333 45.6803 70.0444C45.0594 69.4222 44.9707 68.4444 44.0837 68.0889C43.995 68.0889 43.9063 67.9111 43.9063 67.7333C43.4628 66.4889 43.0193 65.2444 42.6645 63.9111V63.8222C42.4871 63.2889 42.3097 62.7556 42.1323 62.2222C41.9549 61.7778 41.8662 61.3333 41.7775 60.9778C42.1323 60.8 42.4871 60.7111 42.7532 60.5333C43.1967 60.3556 43.7289 60.2667 44.1724 60.4444C44.3498 60.5333 44.5272 60.5333 44.7046 60.6222L46.2125 60.3556C46.4786 60.2667 46.8334 60.1778 47.0995 60.1778L47.9865 59.3778L46.3012 58.9333C46.2125 59.0222 46.0351 59.0222 45.6803 58.8444C44.2611 58.3111 42.7532 57.8667 41.334 57.3333C41.0679 57.2444 40.7131 56.9778 40.5357 56.7111C40.0922 56.0889 39.6487 55.7333 38.9391 55.6444L38.5843 54.9333C38.4956 54.7556 38.4069 54.5778 38.3182 54.4C38.0521 54.0444 37.8747 53.6 37.6086 53.2444C37.3425 52.8 37.2539 52.4444 37.6973 52.0889C38.0521 51.8222 38.0521 51.4667 37.6973 51.1111C37.4313 50.8444 37.3426 50.4889 37.0765 50.2222C36.8991 49.9556 36.8104 49.5111 36.2782 49.6C36.1895 49.6 36.0121 49.3333 35.9234 49.1556C34.7703 46.6667 33.7059 44.2667 32.5528 41.7778C32.0206 40.6222 31.3997 39.4667 30.7788 38.3111C30.9562 38.4889 31.1336 38.7556 31.311 38.9333C31.8432 39.6444 32.3754 40.2667 32.9963 40.8889C33.1737 41.0667 33.5285 41.1556 33.7059 41.0667C34.0607 40.8 33.7946 40.5333 33.6172 40.2667C33.4398 40 33.1737 39.6444 32.9076 39.3778C33.8833 39.2889 34.2381 39.5556 34.1494 40.3556C34.1494 40.7111 33.972 41.0667 33.8833 41.4222C33.8833 41.6889 33.7946 41.9556 34.2381 42.0444C34.3268 42.0444 34.4155 42.4 34.5042 42.5778C34.5929 42.5778 34.6816 42.5778 34.6816 42.4889C34.7703 42.2222 34.9477 41.9556 35.0364 41.6889C35.3025 41.9556 35.4799 41.8667 35.4799 41.5111C35.5686 40.7111 35.4799 40 35.2138 39.2C34.7703 38.0444 33.972 37.5111 32.8189 37.0667C31.3997 36.5333 30.0692 36.4444 28.5613 36.8C27.0534 37.1556 25.4568 37.4222 23.8602 37.7778C23.8602 37.6889 23.7715 37.6889 23.7715 37.6C23.6828 37.0667 23.5054 36.9778 23.0619 37.3333C22.7958 37.5111 22.5297 37.6 22.2636 37.2444C21.8201 36.7111 21.6427 37.2444 21.2879 37.5111C20.7558 37.0667 20.2236 37.1556 19.6914 37.6C19.6027 37.6889 19.4253 37.6 19.3366 37.6C18.9818 37.5111 18.627 37.2444 18.2722 37.3333C17.3852 37.3333 16.5869 37.2444 15.8773 36.8C15.7886 36.7111 15.6999 36.7111 15.6112 36.6222C15.2564 36.4444 14.5468 36.2667 14.4581 36C14.2807 35.3778 14.4581 34.7556 14.4581 34.0444C14.4581 33.9556 14.4581 33.8667 14.5468 33.7778C14.1033 33.5111 13.7485 33.3333 13.305 33.0667C13.4824 32.7111 13.6598 32.4444 13.7485 32.0889C13.9259 31.5556 14.0146 31.1111 14.1033 30.5778C14.192 30.0444 14.2807 29.6889 14.9016 29.6C15.3451 29.5111 15.6999 29.4222 16.1434 29.2444C16.853 28.9778 16.853 28.7111 16.5869 28C16.3208 27.3778 16.1434 26.7556 15.966 26.1333C15.966 26.0444 16.0547 25.7778 16.2321 25.6889C16.5869 25.4222 16.4982 25.1556 16.1434 24.9778C15.6112 24.7111 15.1677 24.4444 14.6355 24.1778C14.4581 24.0889 14.3694 23.8222 14.2807 23.5556C14.1033 23.1111 13.8372 22.6667 13.6598 22.2222C13.5711 22.1333 13.5711 21.9556 13.3937 21.7778C14.4581 21.3333 14.8129 20.8 14.6355 20.0889C14.4581 20.3556 14.2807 20.7111 14.1033 21.0667C14.0146 21.0667 14.0146 21.0667 13.9259 20.9778C13.9259 20.4444 14.3694 19.9111 13.8372 19.4667C13.5711 19.6444 13.305 19.8222 13.1276 20C13.2163 19.6444 13.2163 19.3778 13.2163 19.1111C13.1276 19.1111 13.1276 19.1111 13.0389 19.1111C13.0389 19.2889 12.9502 19.4667 12.8615 19.7333C11.9745 19.0222 11.0875 19.2889 10.2892 19.6444C9.49091 20 8.78132 20.1778 7.89432 20.3556C7.27343 20.5333 6.65253 20.8889 5.94293 21.2444L6.03163 21.1556L4.96724 22.1333L4.16895 23.3778L4.25764 25.3333V26.2222L5.14464 27.7333L7.00733 29.3333C7.27343 29.6 7.53953 29.7778 7.80562 30.0444C8.33782 30.4889 8.69262 31.1111 8.60392 31.9111C8.33782 31.9111 8.07172 31.8222 7.80562 31.8222C7.53953 31.8222 7.36213 31.9111 7.36213 32.1778C7.36213 32.3556 7.27343 32.5333 7.36213 32.7111C7.62823 33.4222 7.18473 33.9556 6.91863 34.4889C6.65253 34.9333 6.38643 35.4667 6.20903 35.8222L5.32204 36.3556L5.58814 46.5778C5.67684 46.9333 5.76554 47.2 5.85424 47.4667C6.56383 49.6889 6.91863 51.9111 7.18473 54.2222C7.18473 54.4 7.27343 54.5778 7.27343 54.8444C7.36213 55.5555 7.62823 56.0889 8.51522 56.1778C9.04742 56.2667 9.31352 56.6222 9.57961 57.0667C9.84571 57.6889 10.2005 58.3111 10.4666 59.0222C10.8214 59.6444 11.0875 59.6444 11.6197 59.2C11.7084 59.1111 11.7971 59.0222 11.9745 58.8444C11.9745 59.5556 12.2406 60.1778 12.5954 60.6222L13.3937 61.5111L28.65 62.3111C28.1178 62.3111 27.5856 62.2222 27.0534 62.1333C27.763 61.9556 28.4726 61.8667 29.1822 61.8667C31.2223 61.7778 33.3511 61.7778 35.3912 61.7778C35.5686 61.7778 35.8347 61.9556 35.8347 62.0444C36.1895 62.9333 36.3669 63.8222 36.7217 64.6222C37.6973 66.6667 38.7617 68.7111 39.8261 70.7556C40.0035 71.1111 40.1809 71.3778 40.0922 71.7333C39.9148 72.6222 40.5357 73.1556 41.1566 73.6889C41.4227 73.8667 41.8662 73.7778 42.3984 73.8667C43.1967 74.8444 43.995 76.8889 43.995 78.4889C43.995 79.2889 44.5272 79.8222 45.3255 79.8222C45.6803 79.8222 46.0351 79.7333 46.3012 79.6444C47.1882 79.3778 48.0752 79.3778 48.9622 79.5556C49.7605 79.7333 50.6475 80 51.4458 80C52.0667 80 52.7763 79.9111 53.1311 79.5556C53.4859 79.2 53.6633 79.2 54.1068 79.2889C54.0181 79.1111 53.9294 78.9333 53.8407 78.7556C54.1068 78.7556 54.3729 78.7556 54.7276 78.7556C54.5503 78.4889 54.3729 78.4 54.3729 78.4C54.639 78.1333 54.8163 77.9556 54.9937 77.6889C55.0824 76.9778 54.9937 76.7111 54.5503 76.8ZM24.9246 41.6889C23.0619 44.2667 21.4653 47.0222 20.2236 49.8667C20.2236 49.9556 20.1349 50.0444 20.0462 50.1333C19.4253 50.1333 19.3366 50.1333 19.6027 49.5111C19.7801 48.8 19.6027 48.6222 18.8931 48.5333C18.0061 48.5333 17.9174 48.3556 17.9174 47.5556C17.9174 47.2889 17.74 47.0222 17.6513 46.8444C17.4739 46.4 17.2078 46.0444 17.0304 45.6C16.7643 44.5333 16.5869 43.4667 16.4095 42.4C17.5626 42.2222 18.627 42.1333 19.7801 41.9556C19.6914 42.3111 19.6027 42.6667 19.514 43.0222C20.1349 42.8444 20.667 42.5778 21.2879 42.4C21.6427 42.3111 21.9975 42.1333 22.441 42.4C22.7958 42.6667 23.328 42.2222 23.4167 41.7778C23.4167 41.6 23.4167 41.4222 23.5054 41.1556C23.7715 41.1556 23.9489 41.1556 24.1263 41.0667L25.5455 40.8889C25.2794 41.1556 25.102 41.4222 24.9246 41.6889ZM28.0291 54.4889C27.6743 54.4889 27.4969 54.4 27.3195 53.9556C27.0534 53.4222 26.6986 52.9778 26.3438 52.4444C26.4325 52.2667 26.6099 51.9111 26.6986 51.6444C27.1421 50.2222 27.5856 48.8 28.1178 47.3778C28.2065 47.2 28.2952 47.0222 28.3839 46.7556C29.1822 48.8889 30.424 50.4889 31.8432 52C31.9319 52.0889 32.0206 52.1778 31.9319 52.1778C31.5771 52.8889 32.198 53.3333 32.3754 53.9556C32.3754 54.0444 32.4641 54.2222 32.4641 54.3111L32.7302 55.2C31.2223 54.9333 29.6257 54.6667 28.0291 54.4889Z" fill="#F0D6BF"/>
<path d="M0 3.91111L5.58807 63.2H7.98295H44.5271L49.583 0L0 3.91111ZM2.48359 5.68889L47.1881 2.57778L42.7531 61.3333H7.98295L2.48359 5.68889Z" fill="#F0D6BF"/>
</svg>
