<svg width="50" height="50" viewBox="0 0 50 50" fill="none" xmlns="http://www.w3.org/2000/svg">
<path d="M0 19.96V30.0232H1.72734V22.1107L8.09766 30.0271H18.9156V28.4205H11.9348V25.7639H17.548V24.1572H11.9348V21.5709H18.9152V19.9631H10.207V21.5709H10.2078V29.9529L2.15898 19.96H0ZM33.2383 19.9639V21.5713H36.7656V30.0283H38.4922V21.5713H41.948V19.9635H33.2383V19.9639ZM21.0031 19.9682L29.1008 30.0322H31.3676L27.3187 25.0037L31.3617 19.976L29.1 19.9799L26.1863 23.5975L23.2645 19.9686H21.0027L21.0031 19.9682ZM48.4086 25.6705C48.1113 25.6705 47.8441 25.7205 47.6074 25.8244C47.372 25.9273 47.1863 26.0716 47.0504 26.2572C46.9137 26.4434 46.8453 26.6601 46.8453 26.9072C46.8448 27.2077 46.9464 27.4482 47.15 27.6287C47.3523 27.81 47.6289 27.9449 47.9797 28.0334L48.4641 28.1553C48.6008 28.1884 48.7348 28.232 48.8648 28.2857C48.9659 28.3255 49.057 28.387 49.1316 28.4658C49.1965 28.5414 49.2311 28.6385 49.2285 28.7381C49.2295 28.8524 49.1904 28.9634 49.118 29.0518C49.0394 29.1466 48.9369 29.2188 48.8211 29.2607C48.6797 29.3131 48.5297 29.3385 48.3789 29.3357C48.2305 29.3381 48.0829 29.314 47.943 29.2646C47.8211 29.2208 47.7128 29.1458 47.6289 29.0471C47.5463 28.9431 47.4982 28.816 47.4914 28.6834H46.7332C46.7436 28.9613 46.8173 29.1972 46.9543 29.3912C47.1598 29.6822 47.2809 29.7322 47.5246 29.8326C47.7668 29.9342 48.0547 29.985 48.3848 29.985C48.7264 29.9844 49.0172 29.9324 49.257 29.8287C49.4979 29.7232 49.682 29.5777 49.8094 29.392C49.9371 29.2049 50 28.9904 50 28.7443C49.9997 28.562 49.9651 28.4036 49.8961 28.2689C49.8281 28.1347 49.7322 28.0166 49.6148 27.9225C49.493 27.8247 49.3577 27.7449 49.2133 27.6854C49.0631 27.6215 48.9076 27.5711 48.7484 27.535L48.35 27.4373C48.2619 27.4162 48.175 27.3908 48.0895 27.3611C48.0076 27.3334 47.9293 27.296 47.8563 27.2498C47.7883 27.2092 47.7308 27.1533 47.6883 27.0865C47.6459 27.0187 47.6244 26.9399 47.6266 26.86C47.6266 26.759 47.6592 26.6608 47.7195 26.5799C47.7805 26.4979 47.8699 26.433 47.9844 26.3846C48.116 26.3343 48.256 26.3099 48.3969 26.3127C48.6255 26.3124 48.8117 26.3623 48.9555 26.4623C49.025 26.5091 49.083 26.571 49.1251 26.6434C49.1673 26.7158 49.1925 26.7968 49.1988 26.8803H49.941C49.9403 26.6554 49.8704 26.4362 49.7406 26.2525C49.6104 26.0702 49.4311 25.9275 49.2027 25.8244C48.9749 25.7213 48.7102 25.67 48.4086 25.6705ZM45.2844 25.7268V28.676C45.2831 28.8236 45.2602 28.9479 45.2156 29.0486C45.1755 29.1436 45.1063 29.2235 45.018 29.2768C44.9323 29.3288 44.8277 29.3549 44.7043 29.3549C44.5913 29.3549 44.4909 29.3327 44.4031 29.2885C44.3184 29.2469 44.2476 29.1816 44.1992 29.1006C44.1486 29.0113 44.1223 28.9103 44.123 28.8076H43.3562C43.3557 29.066 43.4139 29.2816 43.5309 29.4545C43.6474 29.6279 43.8117 29.7638 44.0039 29.8459C44.216 29.9369 44.445 29.9822 44.6758 29.9787C44.9484 29.9787 45.1874 29.9266 45.3926 29.8225C45.5935 29.7227 45.7612 29.5668 45.8754 29.3736C45.99 29.1791 46.0483 28.9464 46.0504 28.6756V25.7268H45.2844ZM24.4516 25.7498L20.9969 30.0396H23.2645L25.5836 27.1568L24.4516 25.7498ZM42.3363 29.0693C42.2098 29.0693 42.1017 29.1131 42.0121 29.2006C41.9687 29.2407 41.9343 29.2895 41.9111 29.3438C41.888 29.3981 41.8766 29.4568 41.8777 29.5158C41.8762 29.5756 41.8874 29.6349 41.9106 29.69C41.9338 29.7451 41.9684 29.7946 42.0121 29.8354C42.1017 29.9231 42.2098 29.9669 42.3363 29.9666C42.4152 29.9673 42.4928 29.9462 42.5605 29.9057C42.6291 29.8664 42.6866 29.8105 42.7277 29.7432C42.7702 29.6749 42.7926 29.5962 42.7926 29.5158C42.7925 29.4566 42.7802 29.398 42.7564 29.3438C42.7326 29.2895 42.6978 29.2408 42.6543 29.2006C42.6128 29.1585 42.5632 29.1253 42.5086 29.1027C42.454 29.0802 42.3954 29.0688 42.3363 29.0693Z" fill="#F0D6BF"/>
</svg>
