<svg width="60" height="12" viewBox="0 0 60 12" fill="none" xmlns="http://www.w3.org/2000/svg">
<g clip-path="url(#clip0_113_438)">
<path d="M44.7024 4.2672V11.748H42.2549V3.0957L44.7024 4.2672Z" fill="#F0D6BF" fill-opacity="0.75"/>
<path d="M10.0625 10.3597L11.8982 11.9329L19.6319 7.96653L18.833 6.07537L10.0625 10.3597ZM42.2549 5.53987L48.4759 2.36011L47.4221 0.569336L42.255 3.09649L42.2549 5.53987Z" fill="#F0D6BF" fill-opacity="0.5"/>
<path d="M24.748 3.68194V11.7485H22.4024V0.251092L24.748 3.68194ZM10.0625 10.3592L11.8982 11.9324L15.4336 3.22986L14.2948 0.250977L10.0625 10.3592Z" fill="#F0D6BF" fill-opacity="0.75"/>
<path d="M14.2944 0.251092H16.7081L21.1783 11.7485H18.6968L14.2944 0.251092ZM25.1047 0.251092L30.2548 8.10001V11.7484L22.4021 0.250977L25.1047 0.251092ZM34.674 0.251092H37.1045V11.7485H34.674V0.251092ZM42.2547 2.35975H38.5153V0.251092H47.2348L48.4756 2.35975H42.2547Z" fill="#F0D6BF"/>
<path d="M55.6655 7.38086V11.7489H53.252V7.38086" fill="#F0D6BF" fill-opacity="0.5"/>
<path d="M57.3312 0.250977L53.252 7.38036H55.6655L59.8978 0.250977H57.3312Z" fill="#F0D6BF"/>
<path d="M53.2518 7.38036L49.0366 0.250977H51.6881L54.5266 5.13775L53.2518 7.38036Z" fill="#F0D6BF" fill-opacity="0.75"/>
<path d="M1.00316 1.58996C1.00316 3.17996 2.00593 4.13373 4.01158 4.63588L6.13617 5.12119C8.03987 5.55631 9.19569 6.62742 9.19569 8.36788C9.21268 9.121 8.9578 9.85738 8.49878 10.4598C8.49878 8.71934 7.58097 7.78219 5.38829 7.21311L3.29768 6.74465C1.61511 6.37623 0.323242 5.48915 0.323242 3.59811C0.323242 2.87846 0.561131 2.15881 1.00316 1.58984" fill="#F0D6BF"/>
<path d="M30.255 7.51477V0.251537H32.6006V11.7489H30.255V7.51477ZM7.18995 7.93315C8.09077 8.50223 8.4987 9.30554 8.4987 10.4603C7.73382 11.4142 6.42508 11.933 4.87833 11.933C2.27784 11.933 0.425232 10.6611 0.0341797 8.46877H2.53272C2.85568 9.47284 3.70552 9.94142 4.86134 9.94142C6.23816 9.95815 7.17296 9.22177 7.18995 7.93315ZM1.00308 1.57361C1.73386 0.63646 2.99174 0.0673828 4.52126 0.0673828C7.18984 0.0673828 8.71959 1.4565 9.11053 3.39784H6.69707C6.42519 2.628 5.76215 2.02546 4.55536 2.02546C3.24662 2.04219 2.3628 2.77857 2.31182 3.95007C1.43597 3.47446 0.968978 2.54423 1.00308 1.57361Z" fill="#F0D6BF" fill-opacity="0.75"/>
</g>
<defs>
<clipPath id="clip0_113_438">
<rect width="60" height="12" fill="white"/>
</clipPath>
</defs>
</svg>
