<svg width="74" height="80" viewBox="0 0 74 80" fill="none" xmlns="http://www.w3.org/2000/svg">
<path d="M29.0005 1.883C47.6193 -2.22821 66.1899 8.368 71.145 26.8527L71.3706 27.7394C74.4404 40.4776 71.1946 51.6768 61.9829 61.1027C56.2546 66.9642 49.1671 70.2496 41.0288 71.1955C34.5162 71.9465 28.2031 70.9871 22.2192 68.2267C21.7352 68.0031 21.1484 67.8007 20.5151 67.9562C19.8918 68.1094 19.4595 68.5533 19.1245 68.9641L19.1235 68.965C15.5597 73.3437 14.553 74.5391 14.1558 74.9914C13.8514 75.338 13.8752 75.2825 13.4224 75.8361L12.7808 76.6301C11.1148 78.7037 9.14232 79.2159 7.45361 78.9152C5.70586 78.6039 4.2055 77.4157 3.56006 75.9738H3.56104C2.63851 73.9041 2.90233 72.0194 4.29248 70.3107C4.6199 69.9502 4.94 69.5916 5.25244 69.2346L6.19092 68.1398L6.19873 68.131C7.70769 66.291 10.2875 63.2045 10.7661 62.5715C11.0529 62.192 11.348 61.6805 11.2847 61.0158C11.2277 60.4177 10.893 59.8956 10.522 59.425L9.97998 59.8517L10.478 59.3723C7.46083 56.1132 5.07027 52.1499 3.49658 47.6496L3.19287 46.7424C-3.09502 27.0184 8.70122 6.36882 29.0005 1.883ZM37.2056 8.73553C22.4429 8.76844 9.31836 19.9568 9.34326 36.0168C9.36812 51.5256 21.4099 63.6638 36.9282 63.7795H36.9292C51.4515 63.8848 64.2969 52.5196 64.687 36.9504L64.6968 36.2053C64.6964 20.4557 52.5348 9.22317 37.9146 8.75018L37.2163 8.73553H37.2056Z" fill="#CC9D8F" fill-opacity="0.5" stroke="#F0D6BF" stroke-width="2"/>
</svg>
