<svg width="79" height="80" viewBox="0 0 79 80" fill="none" xmlns="http://www.w3.org/2000/svg">
<g clip-path="url(#clip0_10_441)">
<path d="M40.8066 1.02148C61.1207 1.70354 78.5925 18.4404 77.9854 41.1924C77.4001 63.1723 59.1266 79.0182 39.7178 78.999C18.2456 78.8179 0.950247 61.6703 1 39.5498C1.04998 18.8686 18.1195 0.260919 40.8066 1.02148ZM39.626 9.64355C22.5113 9.6207 9.80883 23.2845 9.32422 38.875C8.76409 57.0217 23.5398 70.4682 39.6406 70.4453L40.6396 70.4434V70.4258C56.5512 69.9933 69.4559 56.5437 69.5596 40.1279C69.6655 23.2934 56.4175 9.66644 39.626 9.64355Z" fill="#CC9D8F" fill-opacity="0.5" stroke="#F0D6BF" stroke-width="2"/>
<path d="M39.9424 21.4175C49.6844 21.741 57.6744 29.526 57.8555 39.6177L57.8584 40.1001C57.7894 50.2609 49.9912 58.4265 39.6201 58.6929H39.3701C29.3911 58.6718 21.0452 50.2359 21.1562 39.9927V39.9917C21.268 29.3656 29.9447 21.0835 39.9424 21.4175ZM39.5244 30.2241C34.2009 30.249 29.8677 34.7389 29.875 40.1362C29.875 45.3517 34.3215 49.8354 39.5078 49.8354C44.7149 49.8352 49.2068 45.2486 49.1904 40.0151C49.174 34.7259 44.7481 30.1993 39.5244 30.2241Z" fill="#CC9D8F" fill-opacity="0.5" stroke="#F0D6BF" stroke-width="2"/>
</g>
<defs>
<clipPath id="clip0_10_441">
<rect width="79" height="80" fill="white"/>
</clipPath>
</defs>
</svg>
