<svg width="180" height="200" viewBox="0 0 180 200" fill="none" xmlns="http://www.w3.org/2000/svg">
<g filter="url(#filter0_i_21_384)">
<path fill-rule="evenodd" clip-rule="evenodd" d="M74.4633 118.56V199.999C40.8694 196.862 18.7125 184.555 1.50609 160.137L74.4633 118.56ZM85.1494 112.692L166.352 69.243C172.909 80.9974 176.187 95.4803 176.187 112.692C176.187 129.903 171.55 144.86 162.275 157.563L85.1494 112.692ZM85.1494 126.245L124.45 148.446C115.591 158.088 99.8386 165.317 85.1531 167.814L85.1494 126.245ZM27.0337 93.7464L62.0264 113.32L23.4023 133.452C21.8152 128.433 21.0089 123.199 21.0117 117.935C21.0117 109.424 23.0995 101.191 27.0337 93.7464ZM74.4591 23.8474V106.852L0 67.0075C8.82047 48.1389 38.1281 25.5194 63.8888 23.8474H74.4591ZM180 49.8297L85.1494 101.282L85.1569 -0.0012207C127.914 -0.0012207 164.122 23.2642 180 49.8297Z" fill="#F88D7F"/>
</g>
<path d="M73.4629 198.895C41.1514 195.66 19.7019 183.752 2.96289 160.458L73.4629 120.28V198.895ZM122.843 148.686C114.278 157.417 99.8714 164.059 86.1523 166.618L86.1494 127.959L122.843 148.686ZM165.948 70.5925C172.089 82.0083 175.188 96.0262 175.188 112.692C175.187 129.383 170.778 143.883 161.99 156.24L87.2002 112.728L165.948 70.5925ZM59.9219 113.288L24.0107 132.007C22.6839 127.436 22.0092 122.699 22.0117 117.936V117.935C22.0117 109.935 23.8935 102.185 27.4492 95.1238L59.9219 113.288ZM73.459 24.8474V105.182L1.31738 66.5779C5.79742 57.577 14.9628 47.7052 26.1689 39.7957C37.7175 31.6445 51.2985 25.6741 63.9277 24.8474H73.459ZM86.1562 1.00269C127.657 1.35762 162.76 23.7751 178.598 49.4519L86.1494 99.6013L86.1562 1.00269Z" stroke="#F0D6BF" stroke-width="2"/>
<defs>
<filter id="filter0_i_21_384" x="0" y="-0.0012207" width="180" height="200" filterUnits="userSpaceOnUse" color-interpolation-filters="sRGB">
<feFlood flood-opacity="0" result="BackgroundImageFix"/>
<feBlend mode="normal" in="SourceGraphic" in2="BackgroundImageFix" result="shape"/>
<feColorMatrix in="SourceAlpha" type="matrix" values="0 0 0 0 0 0 0 0 0 0 0 0 0 0 0 0 0 0 127 0" result="hardAlpha"/>
<feOffset/>
<feGaussianBlur stdDeviation="8"/>
<feComposite in2="hardAlpha" operator="arithmetic" k2="-1" k3="1"/>
<feColorMatrix type="matrix" values="0 0 0 0 0 0 0 0 0 0 0 0 0 0 0 0 0 0 0.75 0"/>
<feBlend mode="normal" in2="shape" result="effect1_innerShadow_21_384"/>
</filter>
</defs>
</svg>
