<?xml version="1.0" encoding="utf-8"?>
<!-- Generator: Adobe Illustrator 28.3.0, SVG Export Plug-In . SVG Version: 6.00 Build 0)  -->
<svg version="1.1" id="Ebene_1" xmlns="http://www.w3.org/2000/svg" xmlns:xlink="http://www.w3.org/1999/xlink" x="0px" y="0px"
	 viewBox="0 0 56 80" style="enable-background:new 0 0 56 80;" xml:space="preserve">
<style type="text/css">
	.st0{fill:#FFFFFF;}
</style>
<path class="st0" d="M54.6,76.8c-1.2,0.2-2.3-0.2-3.5-0.7c-0.8-0.4-1.6-0.6-2.3-1.1c-0.5-0.3-1.1-0.5-1.4-0.9
	c-0.7-0.7-1.3-1.6-2-2.3c-0.3-0.3-0.2-0.5,0-0.8c0.2-0.3,0.4-0.9,0.3-1c-0.6-0.6-0.7-1.6-1.6-2c-0.1,0-0.2-0.2-0.2-0.4
	c-0.4-1.2-0.9-2.5-1.2-3.8v-0.1c-0.2-0.5-0.4-1.1-0.5-1.6c-0.2-0.4-0.3-0.9-0.4-1.2c0.4-0.2,0.7-0.3,1-0.4c0.4-0.2,1-0.3,1.4-0.1
	c0.2,0.1,0.4,0.1,0.5,0.2l1.5-0.3c0.3-0.1,0.6-0.2,0.9-0.2l0.9-0.8l-1.7-0.4C46.2,59,46,59,45.7,58.8c-1.4-0.5-2.9-1-4.3-1.5
	c-0.3-0.1-0.6-0.4-0.8-0.6c-0.4-0.6-0.9-1-1.6-1.1l-0.4-0.7c-0.1-0.2-0.2-0.4-0.3-0.5c-0.3-0.4-0.4-0.8-0.7-1.2
	c-0.3-0.4-0.4-0.8,0.1-1.2c0.4-0.3,0.4-0.6,0-1c-0.3-0.3-0.4-0.6-0.6-0.9c-0.2-0.3-0.3-0.7-0.8-0.6c-0.1,0-0.3-0.3-0.4-0.4
	c-1.2-2.5-2.2-4.9-3.4-7.4c-0.5-1.2-1.2-2.3-1.8-3.5c0.2,0.2,0.4,0.4,0.5,0.6c0.5,0.7,1.1,1.3,1.7,2c0.2,0.2,0.5,0.3,0.7,0.2
	c0.4-0.3,0.1-0.5-0.1-0.8c-0.2-0.3-0.4-0.6-0.7-0.9c1-0.1,1.3,0.2,1.2,1c0,0.4-0.2,0.7-0.3,1.1c0,0.3-0.1,0.5,0.4,0.6
	c0.1,0,0.2,0.4,0.3,0.5c0.1,0,0.2,0,0.2-0.1c0.1-0.3,0.3-0.5,0.4-0.8c0.3,0.3,0.4,0.2,0.4-0.2c0.1-0.8,0-1.5-0.3-2.3
	c-0.4-1.2-1.2-1.7-2.4-2.1c-1.4-0.5-2.7-0.6-4.3-0.3c-1.5,0.4-3.1,0.6-4.7,1c0-0.1-0.1-0.1-0.1-0.2c-0.1-0.5-0.3-0.6-0.7-0.3
	c-0.3,0.2-0.5,0.3-0.8-0.1c-0.4-0.5-0.6,0-1,0.3c-0.5-0.4-1.1-0.4-1.6,0.1c-0.1,0.1-0.3,0-0.4,0c-0.4-0.1-0.7-0.4-1.1-0.3
	c-0.9,0-1.7-0.1-2.4-0.5c-0.1-0.1-0.2-0.1-0.3-0.2c-0.4-0.2-1.1-0.4-1.2-0.6c-0.2-0.6,0-1.2,0-2c0-0.1,0-0.2,0.1-0.3
	c-0.4-0.3-0.8-0.4-1.2-0.7c0.2-0.4,0.4-0.6,0.4-1c0.2-0.5,0.3-1,0.4-1.5c0.1-0.5,0.2-0.9,0.8-1c0.4-0.1,0.8-0.2,1.2-0.4
	c0.7-0.3,0.7-0.5,0.4-1.2c-0.3-0.6-0.4-1.2-0.6-1.9c0-0.1,0.1-0.4,0.3-0.4c0.4-0.3,0.3-0.5-0.1-0.7c-0.5-0.3-1-0.5-1.5-0.8
	c-0.2-0.1-0.3-0.4-0.4-0.6c-0.2-0.4-0.4-0.9-0.6-1.3c-0.1-0.1-0.1-0.3-0.3-0.4c1.1-0.4,1.4-1,1.2-1.7c-0.2,0.3-0.4,0.6-0.5,1
	c-0.1,0-0.1,0-0.2-0.1c0-0.5,0.4-1.1-0.1-1.5c-0.3,0.2-0.5,0.4-0.7,0.5c0.1-0.4,0.1-0.6,0.1-0.9c-0.1,0-0.1,0-0.2,0
	c0,0.2-0.1,0.4-0.2,0.6c-0.9-0.7-1.8-0.4-2.6-0.1c-0.8,0.4-1.5,0.5-2.4,0.7c-0.6,0.2-1.2,0.5-2,0.9L6,21.2l-1.1,1l-0.8,1.2l0.1,2
	v0.9l0.9,1.5L7,29.3c0.3,0.3,0.5,0.4,0.8,0.7c0.5,0.4,0.9,1.1,0.8,1.9c-0.3,0-0.5-0.1-0.8-0.1c-0.3,0-0.4,0.1-0.4,0.4
	c0,0.2-0.1,0.4,0,0.5c0.3,0.7-0.2,1.2-0.4,1.8c-0.3,0.4-0.5,1-0.7,1.3l-0.9,0.5l0.3,10.2c0.1,0.4,0.2,0.6,0.3,0.9
	c0.7,2.2,1.1,4.4,1.3,6.8c0,0.2,0.1,0.4,0.1,0.6c0.1,0.7,0.4,1.2,1.2,1.3c0.5,0.1,0.8,0.4,1.1,0.9c0.3,0.6,0.6,1.2,0.9,2
	c0.4,0.6,0.6,0.6,1.2,0.2c0.1-0.1,0.2-0.2,0.4-0.4c0,0.7,0.3,1.3,0.6,1.8l0.8,0.9l15.3,0.8c-0.5,0-1.1-0.1-1.6-0.2
	c0.7-0.2,1.4-0.3,2.1-0.3c2-0.1,4.2-0.1,6.2-0.1c0.2,0,0.4,0.2,0.4,0.3c0.4,0.9,0.5,1.8,0.9,2.6c1,2,2,4.1,3.1,6.1
	c0.2,0.4,0.4,0.6,0.3,1c-0.2,0.9,0.4,1.4,1.1,2c0.3,0.2,0.7,0.1,1.2,0.2c0.8,1,1.6,3,1.6,4.6c0,0.8,0.5,1.3,1.3,1.3
	c0.4,0,0.7-0.1,1-0.2c0.9-0.3,1.8-0.3,2.7-0.1c0.8,0.2,1.7,0.4,2.5,0.4c0.6,0,1.3-0.1,1.7-0.4c0.4-0.4,0.5-0.4,1-0.3
	c-0.1-0.2-0.2-0.4-0.3-0.5c0.3,0,0.5,0,0.9,0c-0.2-0.3-0.4-0.4-0.4-0.4c0.3-0.3,0.4-0.4,0.6-0.7C55.1,77,55,76.7,54.6,76.8z
	 M24.9,41.7c-1.9,2.6-3.5,5.3-4.7,8.2c0,0.1-0.1,0.2-0.2,0.3c-0.6,0-0.7,0-0.4-0.6c0.2-0.7,0-0.9-0.7-1c-0.9,0-1-0.2-1-1
	c0-0.3-0.2-0.5-0.3-0.7c-0.2-0.4-0.4-0.8-0.6-1.2c-0.3-1.1-0.4-2.1-0.6-3.2c1.2-0.2,2.2-0.3,3.4-0.4c-0.1,0.4-0.2,0.7-0.3,1.1
	c0.6-0.2,1.2-0.4,1.8-0.6c0.4-0.1,0.7-0.3,1.2,0c0.4,0.3,0.9-0.2,1-0.6c0-0.2,0-0.4,0.1-0.6c0.3,0,0.4,0,0.6-0.1l1.4-0.2
	C25.3,41.2,25.1,41.4,24.9,41.7z M28,54.5c-0.4,0-0.5-0.1-0.7-0.5c-0.3-0.5-0.6-1-1-1.5c0.1-0.2,0.3-0.5,0.4-0.8
	c0.4-1.4,0.9-2.8,1.4-4.3c0.1-0.2,0.2-0.4,0.3-0.6c0.8,2.1,2,3.7,3.5,5.2c0.1,0.1,0.2,0.2,0.1,0.2c-0.4,0.7,0.3,1.2,0.4,1.8
	c0,0.1,0.1,0.3,0.1,0.4l0.3,0.9C31.2,54.9,29.6,54.7,28,54.5z"/>
<path class="st0" d="M0,3.9l5.6,59.3H8h36.5L49.6,0L0,3.9z M2.5,5.7l44.7-3.1l-4.4,58.8H8L2.5,5.7z"/>
</svg>
